<?xml version="1.0" standalone="no"?>
<!DOCTYPE svg PUBLIC "-//W3C//DTD SVG 1.1//EN" "http://www.w3.org/Graphics/SVG/1.1/DTD/svg11.dtd" >
<svg xmlns="http://www.w3.org/2000/svg" xmlns:xlink="http://www.w3.org/1999/xlink" version="1.1">
<metadata></metadata>
<defs>
<font id="fawn_scriptregular" horiz-adv-x="1139" >
<font-face units-per-em="2048" ascent="1638" descent="-410" />
<missing-glyph horiz-adv-x="569" />
<glyph horiz-adv-x="0" />
<glyph unicode="&#xd;" horiz-adv-x="569" />
<glyph unicode=" "  horiz-adv-x="569" />
<glyph unicode="&#x09;" horiz-adv-x="569" />
<glyph unicode="&#xa0;" horiz-adv-x="569" />
<glyph unicode="!" horiz-adv-x="627" d="M104 108q0 14 2 29q18 160 170 177.5t163 -183.5q7 -179 -135 -179q-17 0 -35 2q-165 22 -165 154zM219 489q-30 211 67 785l-23 84q35 119 118 168l108 8q6 1 10 1q62 0 62 -117q0 -85 -32 -229q-79 -364 -140 -766q-112 -20 -170 66z" />
<glyph unicode="&#x22;" horiz-adv-x="594" d="M84 969q48 534 113 534h40l60 -84v-112q-48 -394 -133 -394h-40zM326 969q48 534 113 534h40l60 -84v-112q-48 -394 -133 -394h-40z" />
<glyph unicode="#" />
<glyph unicode="$" horiz-adv-x="674" d="M-5 851q11 235 192 359q45 31 102 57q33 266 51 266h26l41 -84v-112q-2 -13 -3 -25q27 8 55 16q27 205 43 205h27l40 -84v-95q71 15 151 25l58 -47q-9 -166 -70 -168q-87 -16 -159 -38q-24 -246 -45 -445q111 -90 115 -258q-60 -140 -175 -249q-45 -326 -71 -326h-27 l-26 56q7 94 15 181q-35 -24 -73 -47q-31 -190 -51 -190h-27l-27 56q5 60 10 117q-116 -2 -128 100q-17 134 69 124q41 5 80 17q14 165 28 309q-231 94 -221 280zM241 830q6 60 11 115q-45 -65 -11 -115zM300 314q31 20 59 45q7 81 14 156q-8 6 -18 12q-15 4 -29 7 q-14 -120 -26 -220zM350 756q14 -5 30 -10l14 -6q19 194 35 340q-26 -12 -49 -26q-16 -159 -30 -298z" />
<glyph unicode="%" horiz-adv-x="1821" />
<glyph unicode="&#x26;" horiz-adv-x="569" />
<glyph unicode="'" horiz-adv-x="391" d="M84 969q48 534 113 534h40l60 -84v-112q-48 -394 -133 -394h-40z" />
<glyph unicode="(" horiz-adv-x="682" />
<glyph unicode=")" horiz-adv-x="682" />
<glyph unicode="*" horiz-adv-x="797" />
<glyph unicode="+" horiz-adv-x="1196" />
<glyph unicode="," horiz-adv-x="539" d="M87 200q0 14 2 29q18 160 170 177.5t163 -183.5q3 -80 -24 -124q-72 -260 -148 -260h-40l-40 56q11 119 48 156q-131 30 -131 149z" />
<glyph unicode="-" horiz-adv-x="588" d="M50 680v51q0 75 320 126l99 4q31 -4 61 -105l-21 -93q-62 -58 -278 -84h-101z" />
<glyph unicode="." horiz-adv-x="627" d="M100 200q0 14 2 29q18 160 170 177.5t163 -183.5q7 -179 -135 -179q-17 0 -35 1q-165 22 -165 155z" />
<glyph unicode="/" horiz-adv-x="798" d="M14 -37q444 896 655 1706h20l61 -90q-125 -724 -560 -1584q-76 -153 -114.5 -143.5t-61.5 111.5z" />
<glyph unicode="0" horiz-adv-x="885" d="M12.5 470q13.5 483 195.5 744.5t461 150t167.5 -741.5t-474.5 -633t-349.5 480zM232.5 530q-3.5 -365 160.5 -293t223.5 312t-2 466.5t-220 53t-162 -538.5z" />
<glyph unicode="1" horiz-adv-x="492" d="M86 94l116 977q-73 44 -96 134q106 174 195 190q19 3 37 3q60 0 93 -42q-103 -1151 -141 -1290q-83 -69 -142 -69h-3q-61 2 -59 97z" />
<glyph unicode="2" horiz-adv-x="778" d="M16 -23q-82 136 17 320l48 33q417 653 435 753t-70.5 68t-220.5 -203q-112 45 -130 128q32 225 299 320t355 -129.5t-431 -931.5q307 50 360 59t76 -165q-15 -166 -171 -176z" />
<glyph unicode="3" horiz-adv-x="830" d="M-29 207q55 132 188 110q79 -134 181.5 -112.5t167 204t-294.5 154.5l-23 79q10 138 194 196q258 151 157 296q-164 66 -337 -127q-70 -7 -102.5 52.5t-18.5 109.5q113 216 413 233q291 -15 310 -273q-5 -271 -265 -432q280 -73 158.5 -399t-400.5 -325q-254 16 -328 234 z" />
<glyph unicode="4" horiz-adv-x="871" d="M19 446q262 362 487 975q32 30 64 30q54 0 108 -81q-184 -581 -367 -817l257 101q53 432 128 495q79 51 150 -21l-76 -476q50 -62 48 -110q-1 -64 -91 -102l-15 -375q-59 -84 -123 -84q-37 0 -76 28q-23 102 24 402l-403 -124q-100 13 -115 159z" />
<glyph unicode="5" horiz-adv-x="888" d="M56 141q19 111 82 103q237 -67 345.5 42.5t123.5 249.5t-93 180q-216 22 -235.5 -66t-94.5 -115.5t-118.5 33.5t13.5 302l83 483q377 31 649 80q67 -18 63 -129t-86 -122l-445 -58l-32 -212q431 115 501.5 -97.5t3 -433t-264.5 -331.5t-414 -67q-100 47 -81 158z" />
<glyph unicode="6" horiz-adv-x="805" d="M23 416q0 93 19 209q69 426 364 721l63 46q31 13 62 13q50 0 99 -34q79 -56 -51.5 -157.5t-250.5 -341.5l50 46q195 63 327 -105q93 -120 93 -280q0 -66 -15 -139q-55 -250 -246 -348q-84 -43 -167 -43q-106 0 -210 70q-137 91 -137 343zM237 451.5q-28 -145.5 50 -198.5 t167.5 -9.5t109 173t-36.5 224.5t-159 25.5t-131 -215z" />
<glyph unicode="7" horiz-adv-x="786" d="M48.5 1286q23.5 134 63.5 134l307 21l292 11q72 -74 66 -200q-392 -875 -506 -1255q-110 -89 -171.5 -33t-34 157.5t379.5 850.5l47 168h-40l-364 -28q-63 40 -39.5 174z" />
<glyph unicode="8" horiz-adv-x="921" d="M86 145q-72 239 194 561q-216 158 -190.5 353t214.5 327t361 69q55 -20 9.5 -129t-105.5 -91q-104 31 -219.5 -86t110.5 -276l411 622q130 15 139 -134l-328 -563q168 -75 154.5 -386.5t-346 -408.5t-404.5 142zM294 235.5q88 -76.5 207.5 9t126.5 220t-134 137.5 q-288 -290 -200 -366.5z" />
<glyph unicode="9" horiz-adv-x="824" d="M43.5 947q39.5 308 322 446t423.5 -61q-13 -70 -42 -123q77 25 95 -133l-250 -1025q-50 -175 -125 -152q-97 49 -92 133l117 512q-206 -83 -347 6t-101.5 397zM253.5 822q18.5 -162 177 -69.5t161.5 155.5l73 224q-192 101 -311 -23.5t-100.5 -286.5z" />
<glyph unicode=":" horiz-adv-x="627" d="M104 179q0 14 2 29q18 160 170 177.5t163 -183.5q7 -179 -135 -179q-17 0 -35 1q-165 22 -165 155zM188 793q0 14 2 29q18 160 170 177.5t163 -183.5q7 -179 -135 -179q-17 0 -35 1q-165 22 -165 155z" />
<glyph unicode=";" horiz-adv-x="568" d="M87 200q0 14 2 29q18 160 170 177.5t163 -183.5q3 -80 -24 -124q-72 -260 -148 -260h-40l-40 56q11 119 48 156q-131 30 -131 149zM175 793q0 14 2 29q18 160 170 177.5t163 -183.5q7 -179 -135 -179q-17 0 -35 1q-165 22 -165 155z" />
<glyph unicode="&#x3c;" horiz-adv-x="1196" />
<glyph unicode="=" horiz-adv-x="1196" />
<glyph unicode="&#x3e;" horiz-adv-x="1196" />
<glyph unicode="?" horiz-adv-x="919" d="M61 1167q265 324 495 324q58 0 114 -25q208 -91 204 -261q31 -97 -17 -219q-116 -173 -295 -288q-69 -42 -2.5 -42.5t65.5 -88.5l-52 -143q-276 32 -282.5 192.5t193.5 315t133.5 272t-405.5 -222.5q-74 -68 -151 186zM207 108q0 14 2 29q22 160 174.5 177.5 t158.5 -183.5q3 -179 -139 -179q-17 0 -35 2q-164 22 -161 154z" />
<glyph unicode="@" horiz-adv-x="2079" />
<glyph unicode="A" horiz-adv-x="858" d="M-48 104v2l60 335q56 444 120 506q26 9 44 9q48 0 48 -59q0 -10 -1 -22q140 335 261 478q70 83 130 83q43 0 82 -43q117 -465 117 -887q0 -157 -16 -309l-24 -145q-52 -40 -102 -40q-20 0 -39 7q-52 16 -52 81q0 22 6 49q8 38 8 94q0 105 -28 273q-299 -102 -431 -463 l-58 -41h-19q-106 0 -106 92zM352 610q93 72 230 147q-8 280 -42 280q-3 0 -6 -2q-63 -98 -136 -335z" />
<glyph unicode="B" horiz-adv-x="834" d="M24 295l69 766q-47 5 -47 59q0 41 28 111q45 83 276 132l237 39q224 -64 224 -225v-8q0 -8 -1 -16q-30 -177 -186 -285q150 -117 150 -347q0 -31 -3 -64q-17 -273 -632 -439q-119 0 -119 197q0 37 4 80zM253 286q312 140 321 230l23 67q-45 138 -149 138q-53 0 -121 -36 l-69 12q-30 -233 -30 -335q0 -79 18 -79q3 0 7 3zM269 881q340 122 340 213q0 4 -1 8q-7 44 -78 43q-81 0 -245 -56z" />
<glyph unicode="C" horiz-adv-x="777" d="M16 421q-2 21 -2 44q0 123 46 331q55 246 229 410.5t406 187.5q80 -8 80 -70q0 -66 -68 -153q-162 -27 -277 -150q-114 -123 -168 -399q-19 -97 -19 -171q-1 -137 63 -197q32 -30 83 -30q107 0 299 132q13 6 22 6q30 0 30 -60v-6q-2 -86 -48 -141q-122 -116 -250 -148 q-44 -11 -89 -11q-86 0 -177 40q-53 26 -101.5 141t-58.5 244z" />
<glyph unicode="D" horiz-adv-x="964" d="M25 1114l26 172q101 76 389 95h69q444 -64 444 -472q0 -45 -5 -94q-27 -251 -230.5 -493t-619.5 -330l-58 103l3 26l20 25l-14 26l-11 108l168 19l-46 47l-57 58l79 668h-35q-125 0 -122 42zM270 301h35q221 51 447 463l14 128q-93 236 -324 236q-29 0 -60 -4l-35 -301z " />
<glyph unicode="E" horiz-adv-x="745" d="M31 264q90 742 124 853q-1 56 29 154q23 76 77 76q15 0 33 -6l54 -56q85 60 183 84q49 12 95.5 12t90.5 -12q11 -25 11 -64q0 -71 -37 -189q-376 -55 -376 -158l-33 -181l235 60q57 0 57 -77q0 -37 -13 -92q-52 -84 -318 -155l-28 -96q-3 -23 -2 -42q0 -90 55 -91 q27 0 66 21l199 84l20 -28h20l79 28v-28l-20 -28l20 -28v-28q-260 -280 -457 -280h-40q-125 46 -125 226q0 20 1 41z" />
<glyph unicode="F" horiz-adv-x="773" d="M11 51q124 1056 192 1250q47 65 88 65q38 0 71 -56q75 64 386 72q25 -38 25 -92q0 -73 -45 -177q-381 -22 -391 -125l-35 -165l287 54q55 -12 55 -81q0 -47 -26 -120q-57 -54 -345 -107q-34 -151 -68 -532q-77 -65 -125 -65q-52 0 -69 79z" />
<glyph unicode="G" horiz-adv-x="944" d="M44 537q11 276 130.5 505.5t246 285t266.5 73.5q66 -7 66 -87q0 -13 -1 -28q-13 -106 -72 -114q-160 -26 -286 -178t-144 -405q14 -254 122 -309q41 -21 79 -21q63 0 119 57q29 31 29 64q0 64 -114 135q-78 2 -78 91q0 35 12 84q40 129 451 171q52 -6 52 -93 q0 -22 -3 -50l-46 -56l-173 -74q114 -110 114 -225q0 -122 -129 -249q-165 -104 -289 -104q-54 0 -101 20q-153 67 -193.5 179t-56.5 258q-2 19 -2 41q0 14 1 29z" />
<glyph unicode="H" horiz-adv-x="865" d="M38 154q24 120 59 376l-51 30l7 115v5q0 82 62 86l54 517q8 64 129 72q38 -61 44 -113l-37 -476l258 14l61 -88l44 581q-9 23 -9 40q0 64 113 64h39q40 -27 39 -164q0 -101 -21 -262q-29 -499 -88 -790l-24 -100q-35 -28 -83 -28q-34 0 -75 14l41 516h-19l-304 -57 q-27 -268 -85 -468l-99 -17q-61 10 -61 83q0 22 6 50z" />
<glyph unicode="I" horiz-adv-x="548" d="M37 44l30 213l83 11v47l73 786q-16 -3 -29 -3q-67 0 -81 70v28q0 166 63 166h2l329 22q27 -12 27 -62q0 -26 -7 -62q-8 -118 -125 -125l-13 -149q-48 -507 -83 -697l45 6q51 -11 67 -51q4 -10 4 -30q0 -53 -34 -174q-160 -35 -247 -35q-93 0 -104 39z" />
<glyph unicode="J" horiz-adv-x="571" d="M-139 -238q22 121 83 126q254 6 307 1206l-95 -12q-27 42 -27 91q0 75 64 165q188 41 287 41q40 0 65 -7q35 -86 35 -143q0 -44 -22 -71q-40 -48 -84 -48q-10 0 -20 2q-6 -577 -96.5 -945.5t-218.5 -486.5q-96 -88 -168 -88q-24 0 -46 10q-68 31 -68 114q0 21 4 46z" />
<glyph unicode="K" horiz-adv-x="841" d="M-24 122q79 562 147 1261q38 13 74 13q63 0 122 -39l-66 -563q283 268 473 596q76 -1 138 -1l41 -71q-11 -112 -419 -608q279 -536 282 -613l-94 -84q-67 0 -371 586l-71 -64q2 -74 -61 -410q-28 -90 -94 -90q-28 0 -62 16z" />
<glyph unicode="L" horiz-adv-x="576" d="M14 234q12 54 39 102q49 668 122 992q5 54 61 54q12 0 24 -2q78 -12 76 -85q-100 -748 -101 -938l6 -31l265 66l57 -84q-24 -238 -73 -246l-340 -92q-34 -12 -57 -12q-50 0 -54 56q-28 127 -28 188q0 19 3 32z" />
<glyph unicode="M" horiz-adv-x="1070" d="M0 121q104 1198 176 1203q31 17 54 17q37 0 57 -43l15 -91q75 168 153 172h106l4 -476q-1 -31 -1 -55q0 -84 16 -84q21 0 69 143q95 398 185 450q59 31 126 31q13 0 25 -1q69 -6 69 -275q0 -47 -2 -101l-69 -795q-12 -175 -74 -180q-51 -33 -82 -33q-44 0 -51 63 q45 538 45 711q0 82 -10 82q-4 0 -9 -11q-240 -792 -305 -795q-36 -25 -62 -25q-55 0 -57 117q-3 725 -37 725q-4 0 -8 -10q-46 -99 -175 -826q-35 -27 -65 -27q-25 0 -47 18q-46 39 -46 90v6z" />
<glyph unicode="N" horiz-adv-x="935" d="M4 93q99 671 134 936q-14 37 -26 119q-1 10 -1 20q0 79 80 205l51 51q29 26 49 -3l349 -954l40 320q35 650 144 655l15 -25l24 -21v33l64 15l-36 -416l-90 -878q-3 -108 -51 -118l-124 -34q-146 327 -340 852q-37 -549 -94 -779q-30 -65 -115 -71h-9q-65 0 -65 70 q0 11 1 23z" />
<glyph unicode="O" horiz-adv-x="971" d="M40 422q0 21 1 43q22 396 175.5 631t259.5 271q8 3 15 3q29 0 29 -60q0 -39 -12 -103l32 95q411 -72 411 -521q0 -28 -2 -57q-54 -675 -553 -710q-356 52 -356 408zM257 590q-2 -33 -2 -63q0 -294 182 -294q15 0 32 2q225 94 269 476q4 40 4 76q0 235 -165 303 q-23 10 -45 10q-161 0 -275 -510z" />
<glyph unicode="P" horiz-adv-x="857" d="M41 37l9 117l115 862q-46 38 -46 126q0 34 7 74q46 44 149 108q153 66 269 66q90 0 157 -40q154 -90 171 -260q3 -25 2 -51q0 -147 -82 -307q-97 -188 -230.5 -257.5t-252.5 -82.5l-33 80q-39 -182 -52 -427q-13 -45 -63 -45q-45 0 -120 37zM300 595q230 51 318 197 q57 94 56 181q0 49 -17 95q-25 67 -100 66q-72 0 -191 -61z" />
<glyph unicode="Q" horiz-adv-x="885" d="M12 470q14 483 196 744q128 184 303 184q75 0 158 -34q200 -79 200 -424q0 -138 -32 -317q-53 -297 -137 -417l112 -174q-40 -159 -116 -159l-67 13l-95 148q-77 -43 -172 -44h-4q-346 0 -346 446v34zM232 530v-15q0 -290 112 -290q22 0 49 12q33 14 62 36l-52 123v18 q0 166 67 166q6 0 13 -1q9 2 17 2q59 0 94 -107q13 35 23 75q29 118 29 232q0 119 -32 235q-34 128 -100 128q-51 0 -120 -76q-158 -173 -162 -538z" />
<glyph unicode="R" horiz-adv-x="907" d="M42 135l141 941q-8 -1 -15 -1q-59 0 -59 77q0 40 16 102q34 95 486 136q15 1 29 0q240 0 239 -260q0 -16 -1 -36q-18 -314 -387 -462l45 -20q295 -383 342 -537l-64 -77h-19q-186 140 -478 563q-68 -332 -79 -477q-68 -16 -113 -16q-84 0 -84 57q0 5 1 10zM336 756 q271 112 329 270q15 42 15 72q0 74 -94 74h-22q-160 -12 -198 -72l17 -28z" />
<glyph unicode="S" horiz-adv-x="674" d="M-4 851q12 235 193 358.5t533 169.5l58 -47q-9 -166 -70 -168q-319 -59 -440 -200q-41 -48 -41 -89q-1 -79 153 -129q234 -78 239 -323q-103 -240 -368 -391q-49 -11 -87 -11q-112 0 -125 100q-3 22 -3 40q0 84 61 85q5 0 11 -1q146 19 254 117q52 47 53 87q0 43 -60 78 q-361 86 -361 310v14z" />
<glyph unicode="T" horiz-adv-x="671" d="M11 1134v28q0 158 86 158q6 0 12 -1l563 52q70 -22 70 -95q0 -18 -4 -38q-8 -118 -135 -118l-129 -19l-29 -149q-93 -914 -167 -914l-60 -28l-39 56l19 140v280l81 581l-149 -17q-103 0 -119 84z" />
<glyph unicode="U" horiz-adv-x="919" d="M44 554q68 637 246 818q22 3 40 3q87 0 93 -64q-105 -311 -150 -700q-7 -69 -8 -125q0 -227 121 -227q8 0 18 1q208 4 252 254q30 172 29 437q0 122 -6 263q-3 18 -3 33q0 75 82 87q16 2 30 2q72 0 89 -62q6 -163 6 -312q-1 -258 -19 -472q-30 -338 -245 -417 q-142 -55 -257 -55q-94 0 -171 37q-150 73 -150 407q0 44 3 92z" />
<glyph unicode="V" horiz-adv-x="782" d="M22 1220q19 173 116 173h9q9 2 16 2q74 0 81 -138q-3 -214 -3 -378q0 -530 30 -530q6 0 13 20l275 828q55 151 133 183q24 10 43 10q46 0 72 -50q4 -7 4 -22q0 -138 -325 -969q-136 -315 -206 -339.5t-132 -31.5q-84 8 -126 1242z" />
<glyph unicode="W" horiz-adv-x="980" d="M37 1260q33 93 110 107q12 2 22 2q55 0 56 -63l32 -799q101 221 182 472q58 15 95.5 15t68.5 -506q83 197 194 769q25 102 126 104q11 3 21 3q53 0 74 -70l-144 -649q-123 -405 -177 -571q-98 -51 -157 -51q-45 0 -68 30l-20 268q-7 105 -27 105q-13 0 -32 -47l-141 -277 q3 -3 3 -7q0 -27 -156 -55q-43 24 -46 167z" />
<glyph unicode="X" horiz-adv-x="816" d="M-9 28q-35 16 -35 61q0 47 38 127q279 345 300 438q-86 278 -157 482q-11 43 -11 80q0 92 68 146q28 23 50 23q52 0 68 -129q34 -158 122 -368q132 151 265 388q64 113 124 113q13 0 26 -5q48 -19 48 -74q0 -28 -13 -66q-38 -111 -152 -288t-204 -301q22 -145 190 -531 q7 -41 7 -71q0 -43 -15 -60q-24 -27 -77 -27h-11q-112 0 -232 471q-113 -255 -285 -383q-28 -38 -67 -38q-22 0 -47 12z" />
<glyph unicode="Y" horiz-adv-x="785" d="M28 1162q-4 26 -4 50q0 109 83 164q27 18 48 18q60 0 80 -139q22 -209 93 -370q189 320 372 495q24 29 63 29q26 0 57 -12q44 -17 44 -58q0 -34 -30 -84q-179 -199 -403 -583q-127 -324 -131 -662q-40 -71 -97 -71q-47 0 -106 50q-18 53 -18 127q0 63 13 141 q29 169 128 401q-119 256 -192 504z" />
<glyph unicode="Z" horiz-adv-x="755" d="M-4 215v9q395 565 552 909l-250 -29q-26 -3 -49 -3q-151 0 -151 147q0 9 1 18q5 74 89 99l228 2l297 23q74 -24 74 -106v-10q-3 -48 -28 -112q-200 -497 -463 -874l274 39q40 19 73 19q41 0 70 -29q5 -43 5 -80v-20q-8 -130 -102 -165l-370 -28l-195 -8q-56 84 -56 178 q0 10 1 21z" />
<glyph unicode="[" horiz-adv-x="569" />
<glyph unicode="\" horiz-adv-x="569" />
<glyph unicode="]" horiz-adv-x="569" />
<glyph unicode="^" horiz-adv-x="961" />
<glyph unicode="_" />
<glyph unicode="`" horiz-adv-x="402" d="M37 1379q0 41 31 87q34 13 66 13q51 0 96 -34q100 -214 100 -306q0 -41 -20 -58l-31 -26l-41 16l-190 260q-11 23 -11 48z" />
<glyph unicode="a" horiz-adv-x="813" d="M67 417q0 48 8 105q42 308 388 458q49 16 86 16q76 0 98 -68l82 28q7 3 13 3q34 0 34 -90q0 -55 -13 -145l-55 -575q-61 -31 -105 -31q-55 0 -84 49l2 60q-73 -104 -186 -104q-52 0 -111 22q-157 56 -157 272zM283 369q17 -47 61 -47q68 0 202 110l34 271q-10 64 -63 64 q-24 0 -56 -13q-104 -41 -162 -154q-34 -66 -34 -133q0 -48 18 -98z" />
<glyph unicode="b" horiz-adv-x="794" d="M33 268v3l156 994q6 145 144 145q10 2 19 2q42 0 42 -42q0 -7 -1 -16l-89 -466q28 109 294 113q18 0 36 -2q146 -18 146 -240v-27q-3 -69 -19 -152q-7 -66 -24 -144q-64 -289 -295 -305q-17 -1 -32 -1q-136 0 -204 85q-20 -61 -62 -76q-16 -3 -29 -3q-82 0 -82 118v14z M281 595q-15 -67 -15 -116q0 -142 123 -142q25 0 56 6q99 8 127 148q4 22 7 43q18 77 18 132q0 113 -78 127h-3q-132 0 -235 -198z" />
<glyph unicode="c" horiz-adv-x="664" d="M17 484q0 131 52 271q135 224 206.5 230.5t76.5 6.5q179 0 276 -138q18 -23 18 -48q0 -35 -33 -74q-37 -43 -75 -43q-23 0 -47 16q-49 63 -107 63q-23 0 -48 -10q-80 -2 -117 -115q-22 -68 -22 -131q-1 -42 9 -82q23 -92 110 -92q7 0 14 1q12 -3 25 -3q50 0 111 52 q31 68 72 68q18 0 38 -14q49 -33 49 -84q0 -17 -6 -37q-113 -182 -292 -194q-18 -1 -34 -1q-201 0 -253 190q-23 82 -23 168z" />
<glyph unicode="d" horiz-adv-x="786" d="M67 417q0 48 8 105q21 408 250 474q84 24 146 25q105 0 143 -72l53 401q22 41 63 41q22 1 50 -11q59 -25 59 -83q0 -20 -7 -43q-56 -440 -69 -530l-55 -575q-61 -31 -105 -31q-55 0 -84 49l2 60q-73 -104 -186 -104q-52 0 -111 22q-157 56 -157 272zM280 652 q-19 -79 -19 -148q0 -74 22 -135q17 -47 61 -47q68 0 202 110l34 271q-15 92 -138 103q-8 1 -15 1q-110 0 -147 -155z" />
<glyph unicode="e" horiz-adv-x="698" d="M20 484q5 131 60 295q95 168 193 202.5t103 34.5q16 1 32 1q156 0 239 -119q17 -22 27 -123q2 -16 2 -31q0 -82 -46 -146q-54 -76 -185.5 -132.5t-237.5 -56.5q12 -82 82 -82q45 0 113 33q51 33 88 33q40 0 62 -38q17 -29 17 -53q0 -36 -40 -61q-82 -75 -212 -92 q-18 -2 -34 -3q-15 -1 -29 -1q-175 0 -217 173q-17 70 -17 144v22zM208 574q134 1 306 105q1 144 -100 144q-24 0 -53 -8q-91 -42 -132 -158q-15 -41 -21 -83z" />
<glyph unicode="f" horiz-adv-x="516" d="M15 907q-2 9 -2 18q0 70 116 90q2 1 3 1l97 5l16 123q1 58 23 92q8 28 19 57q135 166 206.5 172.5t76.5 6.5q5 1 10 1q55 0 78 -99q6 -30 6 -52q0 -57 -45 -62q-27 2 -57 -10q-76 -2 -121 -58l-21 -162l56 7q22 4 42 4q105 0 126 -115q4 -10 6 -18q1 -7 1 -12 q0 -38 -51 -41l-59 -5l-145 -17l-5 -37l-54 -500q-9 -134 -90 -157q-16 -3 -29 -3q-86 0 -86 129l1 6l70 549l-9 -1q-22 -3 -42 -3q-97 0 -128 63q-6 15 -9 28z" />
<glyph unicode="g" horiz-adv-x="777" d="M-69 -193q15 58 125 121q44 25 122 25q114 0 299 -54l42 328q-73 -104 -187 -104q-51 0 -111 21q-157 56 -157 273q0 48 8 105q43 308 389 458q49 16 86 16q76 0 98 -68l82 28q7 3 13 3q34 0 34 -90q0 -55 -13 -145l-64 -664l-41 -305q-7 -115 -102 -115q-201 78 -333 78 q-131 0 -195 -76q-25 -16 -45.5 -16t-35.5 16q-34 45 -34 92q0 36 20 73zM281 369q17 -47 61 -47q68 0 202 110l34 271q-10 64 -63 64q-24 0 -56 -13q-104 -41 -162 -154q-34 -66 -34 -133q0 -48 18 -98z" />
<glyph unicode="h" horiz-adv-x="776" d="M31 268v3l156 994q6 145 144 145q10 2 19 2q42 0 42 -42q0 -7 -1 -16l-106 -558q45 201 311 205q18 0 36 -2q146 -18 147 -240q0 -13 -1 -27q-5 -140 -67 -338q15 -54 15 -97v-10q-3 -87 -68 -133q-35 -18 -61 -18q-78 0 -78 163v20q58 229 58 349q-1 118 -57 128 q-4 1 -9 1q-112 0 -292 -501q-12 -134 -77 -157q-16 -3 -29 -3q-82 0 -82 118v14z" />
<glyph unicode="i" horiz-adv-x="355" d="M58 268v3l79 596q3 145 141 145q10 2 19 2q43 0 43 -43q0 -7 -1 -15l-23 -160l-54 -500q-9 -134 -90 -157q-16 -3 -29 -3q-85 0 -85 126v6zM164 1253q0 12 2 23q13 127 124 141q9 1 17 1q94 0 102 -146v-15q0 -127 -98 -127q-13 0 -26 1q-121 17 -121 122z" />
<glyph unicode="j" horiz-adv-x="391" d="M-526 -264q0 35 19 71q15 58 125 121q45 25 123 25q114 0 299 -54l42 328l25 205l30 251l20 197q7 61 133 76q7 3 13 3q34 0 34 -90q0 -55 -13 -145l-64 -664l-41 -305q-7 -115 -102 -115q-201 78 -333 78q-131 0 -195 -76q-25 -16 -46 -16q-20 0 -35 16q-34 46 -34 94z M152 1253q0 11 1 23q14 127 125 140q9 2 17 2q95 0 102 -147v-15q0 -126 -99 -126q-12 0 -25 1q-121 17 -121 122z" />
<glyph unicode="k" horiz-adv-x="717" d="M58 262v6v3l133 994q3 145 141 145q10 2 19 2q43 0 43 -43q0 -7 -1 -15l-77 -558l-11 -98l261 240q39 22 75 22q26 0 50 -11q26 -12 26 -41q0 -38 -43 -103q-77 -117 -211 -218l241 -294q20 -27 20 -51q0 -22 -16 -41q0 -60 -129 -78l-293 394l-24 -221q-9 -134 -90 -157 q-16 -3 -29 -3q-85 0 -85 126z" />
<glyph unicode="l" horiz-adv-x="355" d="M58 268v3l133 994q3 145 141 145q10 2 19 2q43 0 43 -43q0 -7 -1 -15l-77 -558l-54 -500q-9 -134 -90 -157q-16 -3 -29 -3q-85 0 -85 126v6z" />
<glyph unicode="m" horiz-adv-x="1257" d="M31 268v3l85 601q5 145 143 145q10 2 19 2q42 0 42 -42q0 -7 -1 -16l-60 -298q151 338 321 338q18 0 36 -2q146 -18 146 -240v-27q-1 -12 -1 -25q103 294 308 294q18 0 36 -2q146 -18 147 -240q0 -13 -1 -27q-6 -140 -64 -354q15 -54 15 -97v-10q-3 -87 -67 -133 q-35 -18 -61 -18q-78 0 -78 163v20q61 271 61 392q1 89 -33 95h-5q-80 0 -274 -519q-25 -46 -50 -77q-17 -33 -49 -56q-35 -18 -61 -18q-78 0 -78 163v20q70 314 70 426q1 56 -17 61h-4q-57 0 -291 -519q-58 -109 -123 -132q-16 -3 -29 -3q-82 0 -82 118v14z" />
<glyph unicode="n" horiz-adv-x="801" d="M31 268v3l85 601q6 145 144 145q10 2 19 2q42 0 42 -42q0 -7 -1 -16l-60 -298q150 338 370 338q18 0 36 -2q146 -18 147 -240q0 -13 -1 -27q-5 -140 -63 -354q15 -54 15 -97v-10q-3 -87 -68 -133q-35 -18 -61 -18q-78 0 -78 163v20q62 272 62 392q1 88 -33 95h-5 q-81 0 -316 -519q-58 -109 -123 -132q-16 -3 -29 -3q-82 0 -82 118v14z" />
<glyph unicode="o" horiz-adv-x="664" d="M40 316q-22 82 -23 168q-1 130 51 270q86 232 273 238h12q178 0 254 -134q44 -76 44 -198q0 -98 -29 -228q-64 -288 -295 -306q-17 -1 -33 -1q-202 0 -254 191zM206 430q23 -92 110 -92q7 0 14 1q98 7 126 147q12 62 13 111q0 59 -19 96q-33 65 -109 65h-5 q-80 -2 -117 -115q-22 -68 -22 -131q-1 -42 9 -82z" />
<glyph unicode="p" horiz-adv-x="794" d="M-79 -308l112 579l110 668q-1 7 -1 14q0 85 128 85q10 2 19 2q42 0 42 -42q0 -7 -1 -16l-26 -94q28 109 294 113q18 0 36 -2q139 -17 139 -303q0 -32 -1 -68q-18 -352 -288 -493q-28 -2 -53 -2q-159 0 -225 82q-108 -583 -150 -598q-16 -3 -29 -3q-87 0 -106 78zM281 595 q-16 -69 -16 -120q0 -155 139 -155q15 0 32 2q108 29 144 228q4 22 7 43q14 52 14 91q0 94 -82 109h-3q-132 0 -235 -198z" />
<glyph unicode="q" horiz-adv-x="786" d="M67 417q0 48 8 105q42 308 388 458q49 16 86 16q76 0 98 -68l82 28q7 3 13 3q34 0 34 -90q0 -55 -13 -145l-69 -783q13 -35 46 -35q12 0 27 4h5q47 0 47 -55q0 -59 -55 -182q-81 -46 -140 -46q-28 0 -50 11q-71 32 -85 162l32 427q-73 -104 -186 -104q-52 0 -111 22 q-157 56 -157 272zM283 369q17 -47 61 -47q68 0 202 110l34 271q-10 64 -63 64q-24 0 -56 -13q-104 -41 -162 -154q-34 -66 -34 -133q0 -48 18 -98z" />
<glyph unicode="r" horiz-adv-x="604" d="M31 254v14v3l106 589q6 145 144 145q10 2 19 2q42 0 42 -42q0 -7 -1 -16l-15 -43q54 92 270 95q18 0 78 -56q13 -17 13 -38q0 -41 -44 -99q-37 -50 -75 -50q-32 0 -64 35q-184 -12 -285 -497q-12 -134 -77 -157q-16 -3 -29 -3q-82 0 -82 118z" />
<glyph unicode="s" horiz-adv-x="530" d="M34 186v72q17 64 104 64q18 0 39 -3q143 36 143 89q0 40 -85 90q-197 58 -197 242q0 10 1 21q14 158 418 249q64 -40 64 -103q0 -35 -19 -76l-129 -37q-127 -16 -127 -60q0 -40 105 -102q161 -66 161 -182q4 -24 4 -45q0 -41 -15 -74q-83 -185 -318 -200l-88 -13 q-61 17 -61 68z" />
<glyph unicode="t" horiz-adv-x="516" d="M15 907q-2 9 -2 18q0 70 116 90q2 1 3 1l97 5l16 123q2 145 140 145q10 2 19 2q43 0 43 -43q0 -7 -1 -15l-26 -203l56 7q22 4 42 4q105 0 126 -115q4 -10 6 -18q1 -7 1 -12q0 -38 -51 -41l-59 -5l-145 -17l-5 -37l-54 -500q-9 -134 -90 -157q-16 -3 -29 -3q-86 0 -86 129 l1 6l70 549l-9 -1q-22 -3 -42 -3q-98 0 -128 63q-6 15 -9 28z" />
<glyph unicode="u" horiz-adv-x="778" d="M67 417q0 48 8 105q5 38 15 75q61 249 107 325q34 56 90 56q19 0 40 -6q57 -18 57 -62q0 -22 -13 -50q-80 -168 -96 -296q-6 -51 -6 -93q0 -62 14 -102q17 -47 61 -47q68 0 202 110l30 251l20 197q7 61 133 76q7 3 13 3q34 0 34 -90q0 -55 -13 -145l-51 -533 q-107 -75 -158 -75q-30 0 -40 27l7 84q-73 -104 -186 -104q-52 0 -111 22q-157 55 -157 272z" />
<glyph unicode="v" horiz-adv-x="706" d="M18 897l60 112h40q100 -98 100 -308v-84l-1 -155l334 518q34 75 72 75q17 0 35 -15q58 -49 68 -123q-186 -395 -588 -804q-62 0 -80 140l20 66z" />
<glyph unicode="w" horiz-adv-x="1082" d="M47 897l60 112h40q100 -98 100 -308v-84l8 -118l258 481q34 32 62 32q23 0 43 -22q44 -49 49.5 -77t-10.5 -60q16 -67 16 -152v-84l-1 -155l288 527q34 75 72 75q18 0 36 -15q58 -49 67 -123q-186 -395 -458 -813q-146 0 -164 140l-1 74l-8 271q-238 -482 -337 -485 q-62 0 -80 140l20 66z" />
<glyph unicode="x" horiz-adv-x="598" d="M-35 229q0 27 26 58q172 210 195 306q-26 27 -93 223q-2 83 80 151q38 31 62 31q28 0 37 -43q30 -155 49 -221l119 223q25 44 72 44q24 0 54 -11q49 -19 49 -59q0 -32 -31 -77q-70 -102 -181 -272q18 -143 143 -302q-5 -66 -61 -122q-32 -32 -60 -32q-20 0 -38 19 q-39 54 -110 241q-49 -137 -145 -241q-16 -16 -39 -16q-33 0 -81 32q-47 31 -47 68z" />
<glyph unicode="y" horiz-adv-x="777" d="M-89 -264q0 35 19 71q15 58 125 121q45 25 123 25q114 0 299 -54l42 328q-73 -104 -186 -104q-52 0 -111 21q-157 56 -157 273q0 48 8 105q5 38 15 75q61 249 107 325q34 56 90 56q19 0 40 -6q57 -18 57 -62q0 -22 -13 -50q-80 -168 -96 -296q-6 -52 -6 -93 q0 -62 14 -102q17 -47 61 -47q68 0 202 110l30 251l20 197q7 61 133 76q7 3 13 3q34 0 34 -90q0 -55 -13 -145l-64 -664l-41 -305q-7 -115 -102 -115q-201 78 -333 78q-131 0 -195 -76q-25 -16 -46 -16q-20 0 -35 16q-34 46 -34 94z" />
<glyph unicode="z" horiz-adv-x="732" d="M42 278q44 109 375 503l-136 -8l-161 -21l-7 58l27 102q5 81 86 81q10 0 20 -1q55 -6 180 -6q102 0 251 4q17 -53 17 -96q0 -57 -29 -99l-269 -357l-78 -93q139 33 251 42q9 1 18 1q88 0 88 -80v-10q-37 -137 -82 -137h-2q-317 -6 -473 -71q-79 2 -79 130q0 26 3 58z" />
<glyph unicode="{" horiz-adv-x="684" />
<glyph unicode="|" horiz-adv-x="532" />
<glyph unicode="}" horiz-adv-x="684" />
<glyph unicode="~" horiz-adv-x="1196" />
<glyph unicode="&#xa1;" horiz-adv-x="614" d="M60 69q0 85 32 229q79 364 140 766q112 20 170 -66q30 -211 -67 -785l23 -84q-35 -119 -118 -168l-108 -8q-6 -1 -10 -1q-62 0 -62 117zM182 1356q-7 179 135 179q17 0 35 -2q165 -22 165 -154q0 -14 -2 -29q-18 -160 -170 -177.5t-163 183.5z" />
<glyph unicode="&#xa2;" />
<glyph unicode="&#xa3;" />
<glyph unicode="&#xa4;" />
<glyph unicode="&#xa5;" />
<glyph unicode="&#xa6;" horiz-adv-x="532" />
<glyph unicode="&#xa7;" />
<glyph unicode="&#xa8;" horiz-adv-x="592" d="M77 1345q0 69 70 94q19 7 37 7q60 0 91 -84q-28 -114 -90 -114q-63 0 -103 56q-5 22 -5 41zM339 1345q0 69 70 94q19 7 37 7q60 0 91 -84q-28 -114 -90 -114q-63 0 -103 56q-5 22 -5 41z" />
<glyph unicode="&#xa9;" horiz-adv-x="1509" />
<glyph unicode="&#xaa;" horiz-adv-x="758" />
<glyph unicode="&#xab;" />
<glyph unicode="&#xac;" horiz-adv-x="1196" />
<glyph unicode="&#xad;" horiz-adv-x="588" d="M50 680v51q0 75 320 126l99 4q31 -4 61 -105l-21 -93q-62 -58 -278 -84h-101z" />
<glyph unicode="&#xae;" horiz-adv-x="1509" />
<glyph unicode="&#xaf;" horiz-adv-x="1131" />
<glyph unicode="&#xb0;" horiz-adv-x="819" />
<glyph unicode="&#xb1;" horiz-adv-x="1124" />
<glyph unicode="&#xb2;" horiz-adv-x="682" />
<glyph unicode="&#xb3;" horiz-adv-x="682" />
<glyph unicode="&#xb4;" horiz-adv-x="402" d="M84 1139q0 92 100 306q45 34 96 34q32 0 66 -13q31 -46 31 -87q0 -25 -11 -48l-190 -260l-41 -16l-31 26q-20 17 -20 58z" />
<glyph unicode="&#xb5;" horiz-adv-x="1180" />
<glyph unicode="&#xb6;" horiz-adv-x="1100" />
<glyph unicode="&#xb7;" horiz-adv-x="569" />
<glyph unicode="&#xb8;" horiz-adv-x="400" d="M36 -242q28 107 56 79q125 -144 149.5 -94.5t-49.5 115t-71.5 133t104.5 81.5l19 -61q0 -36 -24.5 -36.5t1.5 -18.5q66 -48 108 -122q18 -51 7 -92q1 -72 -76 -111q-20 -11 -42 -11q-84 0 -182 138z" />
<glyph unicode="&#xb9;" horiz-adv-x="682" />
<glyph unicode="&#xba;" horiz-adv-x="748" />
<glyph unicode="&#xbb;" />
<glyph unicode="&#xbc;" horiz-adv-x="1708" />
<glyph unicode="&#xbd;" horiz-adv-x="1708" />
<glyph unicode="&#xbe;" horiz-adv-x="1708" />
<glyph unicode="&#xbf;" horiz-adv-x="889" d="M12 238q-31 97 17 219q116 173 295 288q69 42 2.5 42.5t-65.5 88.5l52 143q276 -32 282.5 -192.5t-193.5 -315t-133.5 -272t405.5 222.5q74 68 151 -186q-265 -324 -495 -324q-58 0 -114 25q-208 91 -204 261zM344 1312q-3 179 139 179q17 0 35 -2q164 -22 161 -154 q0 -14 -2 -29q-22 -160 -174.5 -177.5t-158.5 183.5z" />
<glyph unicode="&#xc0;" horiz-adv-x="858" d="M-48 104v2l60 335q56 444 120 506q104 35 91 -72q140 335 261 478q70 83 130 83q43 0 82 -43q117 -465 117 -887q0 -157 -16 -309l-24 -145q-52 -40 -102 -40q-20 0 -39 7q-69 21 -46 130t-20 367q-299 -102 -431 -463l-58 -41h-19q-106 0 -106 92zM341 1800q0 41 31 87 q34 13 66 13q51 0 96 -34q100 -214 100 -306q0 -41 -20 -58l-31 -26l-41 16l-190 260q-11 23 -11 48zM352 610q93 72 230 147q-9 305 -48 278q-63 -98 -136 -335z" />
<glyph unicode="&#xc1;" horiz-adv-x="858" d="M-48 104v2l60 335q56 444 120 506q104 35 91 -72q140 335 261 478q70 83 130 83q43 0 82 -43q117 -465 117 -887q0 -157 -16 -309l-24 -145q-52 -40 -102 -40q-20 0 -39 7q-69 21 -46 130t-20 367q-299 -102 -431 -463l-58 -41h-19q-106 0 -106 92zM352 610 q93 72 230 147q-9 305 -48 278q-63 -98 -136 -335zM557 1569q0 92 100 306q45 34 96 34q32 0 66 -13q31 -46 31 -87q0 -25 -11 -48l-190 -260l-41 -16l-31 26q-20 17 -20 58z" />
<glyph unicode="&#xc2;" horiz-adv-x="858" d="M-48 104v2l60 335q56 444 120 506q104 35 91 -72q140 335 261 478q70 83 130 83q43 0 82 -43q117 -465 117 -887q0 -157 -16 -309l-24 -145q-52 -40 -102 -40q-20 0 -39 7q-69 21 -46 130t-20 367q-299 -102 -431 -463l-58 -41h-19q-106 0 -106 92zM352 610 q93 72 230 147q-9 305 -48 278q-63 -98 -136 -335zM354 1506q108 300 175 416q-14 65 5 76l35 20l94 -43l56 -97q154 -366 80 -408l-34 -20l-63 29q-55 119 -93 211q-121 -277 -192 -258l-39 10z" />
<glyph unicode="&#xc3;" horiz-adv-x="858" d="M-48 104v2l60 335q56 444 120 506q104 35 91 -72q140 335 261 478q70 83 130 83q43 0 82 -43q117 -465 117 -887q0 -157 -16 -309l-24 -145q-52 -40 -102 -40q-20 0 -39 7q-69 21 -46 130t-20 367q-299 -102 -431 -463l-58 -41h-19q-106 0 -106 92zM337 1566 q50 223 137 231h12q101 0 133 -108q64 -108 99 32q-9 67 34 79h39q29 0 38 -34l-7 -49q-8 -129 -110 -175q-28 -13 -66 -6q-64 0 -101 89q-72 122 -89 -12l-20 -72q-23 -10 -42 -10q-35 0 -57 35zM352 610q93 72 230 147q-9 305 -48 278q-63 -98 -136 -335z" />
<glyph unicode="&#xc4;" horiz-adv-x="858" d="M-48 104v2l60 335q56 444 120 506q104 35 91 -72q140 335 261 478q70 83 130 83q43 0 82 -43q117 -465 117 -887q0 -157 -16 -309l-24 -145q-52 -40 -102 -40q-20 0 -39 7q-69 21 -46 130t-20 367q-299 -102 -431 -463l-58 -41h-19q-106 0 -106 92zM352 610 q93 72 230 147q-9 305 -48 278q-63 -98 -136 -335zM352 1654q0 69 70 94q19 7 37 7q60 0 91 -84q-28 -114 -90 -114q-63 0 -103 56q-5 22 -5 41zM614 1654q0 69 70 94q19 7 37 7q60 0 91 -84q-28 -114 -90 -114q-63 0 -103 56q-5 22 -5 41z" />
<glyph unicode="&#xc5;" horiz-adv-x="1366" />
<glyph unicode="&#xc6;" horiz-adv-x="2048" />
<glyph unicode="&#xc7;" horiz-adv-x="777" d="M15.5 421q-10.5 129 44.5 375.5t229 410.5t406 187q82 -8 80 -73.5t-68 -149.5q-162 -27 -277 -150t-168.5 -398.5t45 -368.5t381.5 102q54 26 52 -60t-48 -141q-122 -116 -249.5 -148t-266.5 29q-53 26 -101.5 141t-59 244zM264 -242q28 107 56 79q125 -144 149.5 -94.5 t-49.5 115t-71.5 133t104.5 81.5l19 -61q0 -36 -24.5 -36.5t1.5 -18.5q66 -48 108 -122q18 -51 7 -92q1 -72 -76 -111q-20 -11 -42 -11q-84 0 -182 138z" />
<glyph unicode="&#xc8;" horiz-adv-x="745" d="M31 264q90 742 124 853q0 56 29.5 154t109.5 70l54 -56q85 60 183 84t186 0q32 -69 -26 -253q-376 -55 -376 -158l-33 -181l235 60q85 0 44 -169q-52 -84 -318 -155l-28 -96q-20 -185 119 -112l199 84l20 -28h20l79 28v-28l-20 -28l20 -28v-28q-260 -280 -457 -280h-40 q-139 51 -124 267zM315 1763q0 41 31 87q34 13 66 13q51 0 96 -34q100 -214 100 -306q0 -41 -20 -58l-31 -26l-41 16l-190 260q-11 23 -11 48z" />
<glyph unicode="&#xc9;" horiz-adv-x="745" d="M31 264q90 742 124 853q0 56 29.5 154t109.5 70l54 -56q85 60 183 84t186 0q32 -69 -26 -253q-376 -55 -376 -158l-33 -181l235 60q85 0 44 -169q-52 -84 -318 -155l-28 -96q-20 -185 119 -112l199 84l20 -28h20l79 28v-28l-20 -28l20 -28v-28q-260 -280 -457 -280h-40 q-139 51 -124 267zM342 1500q0 92 100 306q45 34 96 34q32 0 66 -13q31 -46 31 -87q0 -25 -11 -48l-190 -260l-41 -16l-31 26q-20 17 -20 58z" />
<glyph unicode="&#xca;" horiz-adv-x="745" d="M31 264q90 742 124 853q0 56 29.5 154t109.5 70l54 -56q85 60 183 84t186 0q32 -69 -26 -253q-376 -55 -376 -158l-33 -181l235 60q85 0 44 -169q-52 -84 -318 -155l-28 -96q-20 -185 119 -112l199 84l20 -28h20l79 28v-28l-20 -28l20 -28v-28q-260 -280 -457 -280h-40 q-139 51 -124 267zM231 1496q108 300 175 416q-14 65 5 76l35 20l94 -43l56 -97q154 -366 80 -408l-34 -20l-63 29q-55 119 -93 211q-121 -277 -192 -258l-39 10z" />
<glyph unicode="&#xcb;" horiz-adv-x="745" d="M31 264q90 742 124 853q0 56 29.5 154t109.5 70l54 -56q85 60 183 84t186 0q32 -69 -26 -253q-376 -55 -376 -158l-33 -181l235 60q85 0 44 -169q-52 -84 -318 -155l-28 -96q-20 -185 119 -112l199 84l20 -28h20l79 28v-28l-20 -28l20 -28v-28q-260 -280 -457 -280h-40 q-139 51 -124 267zM271 1654q0 69 70 94q19 7 37 7q60 0 91 -84q-28 -114 -90 -114q-63 0 -103 56q-5 22 -5 41zM533 1654q0 69 70 94q19 7 37 7q60 0 91 -84q-28 -114 -90 -114q-63 0 -103 56q-5 22 -5 41z" />
<glyph unicode="&#xcc;" horiz-adv-x="548" d="M37 44l30 213l83 11v47l73 786q-94 -17 -110 67v28q0 168 65 166l329 22q41 -18 20 -124q-8 -118 -125 -125l-13 -149q-48 -507 -83 -697l45 6q50 -12 66.5 -51.5t-29.5 -203.5q-329 -71 -351 4zM158 1754q0 41 31 87q34 13 66 13q51 0 96 -34q100 -214 100 -306 q0 -41 -20 -58l-31 -26l-41 16l-190 260q-11 23 -11 48z" />
<glyph unicode="&#xcd;" horiz-adv-x="548" d="M37 44l30 213l83 11v47l73 786q-94 -17 -110 67v28q0 168 65 166l329 22q41 -18 20 -124q-8 -118 -125 -125l-13 -149q-48 -507 -83 -697l45 6q50 -12 66.5 -51.5t-29.5 -203.5q-329 -71 -351 4zM271 1523q0 92 100 306q45 34 96 34q32 0 66 -13q31 -46 31 -87 q0 -25 -11 -48l-190 -260l-41 -16l-31 26q-20 17 -20 58z" />
<glyph unicode="&#xce;" horiz-adv-x="548" d="M37 44l30 213l83 11v47l73 786q-94 -17 -110 67v28q0 168 65 166l329 22q41 -18 20 -124q-8 -118 -125 -125l-13 -149q-48 -507 -83 -697l45 6q50 -12 66.5 -51.5t-29.5 -203.5q-329 -71 -351 4zM95 1492q108 300 175 416q-14 65 5 76l35 20l94 -43l56 -97 q154 -366 80 -408l-34 -20l-63 29q-55 119 -93 211q-121 -277 -192 -258l-39 10z" />
<glyph unicode="&#xcf;" horiz-adv-x="548" d="M37 44l30 213l83 11v47l73 786q-94 -17 -110 67v28q0 168 65 166l329 22q41 -18 20 -124q-8 -118 -125 -125l-13 -149q-48 -507 -83 -697l45 6q50 -12 66.5 -51.5t-29.5 -203.5q-329 -71 -351 4zM112 1659q0 69 70 94q19 7 37 7q60 0 91 -84q-28 -114 -90 -114 q-63 0 -103 56q-5 22 -5 41zM374 1659q0 69 70 94q19 7 37 7q60 0 91 -84q-28 -114 -90 -114q-63 0 -103 56q-5 22 -5 41z" />
<glyph unicode="&#xd0;" horiz-adv-x="1479" />
<glyph unicode="&#xd1;" horiz-adv-x="935" d="M4 93q99 671 134 936q-14 36 -26 118.5t79 225.5l51 51q29 26 49 -3l349 -954l40 320q35 650 144 655l15 -25l24 -21v33l64 15l-36 -416l-90 -878q-3 -108 -51 -118l-124 -34q-146 327 -340 852q-37 -549 -94 -779q-30 -65 -115 -71t-73 93zM331 1551q50 223 137 231h12 q101 0 133 -108q64 -108 99 32q-9 67 34 79h39q29 0 38 -34l-7 -49q-8 -129 -110 -175q-28 -13 -66 -6q-64 0 -101 89q-72 122 -89 -12l-20 -72q-23 -10 -42 -10q-35 0 -57 35z" />
<glyph unicode="&#xd2;" horiz-adv-x="971" d="M40 422q0 21 1 43q22 396 175.5 631t259.5 271q8 3 15 3q48 0 17 -163l32 95q411 -72 411 -521q0 -28 -2 -57q-54 -675 -553 -710q-356 52 -356 408zM257 590q-22 -384 212 -355q225 94 269 476q29 300 -161 379.5t-320 -500.5zM441 1744q0 41 31 87q34 13 66 13 q51 0 96 -34q100 -214 100 -306q0 -41 -20 -58l-31 -26l-41 16l-190 260q-11 23 -11 48z" />
<glyph unicode="&#xd3;" horiz-adv-x="971" d="M40 422q0 21 1 43q22 396 175.5 631t259.5 271q8 3 15 3q48 0 17 -163l32 95q411 -72 411 -521q0 -28 -2 -57q-54 -675 -553 -710q-356 52 -356 408zM257 590q-22 -384 212 -355q225 94 269 476q29 300 -161 379.5t-320 -500.5zM530 1509q0 92 100 306q45 34 96 34 q32 0 66 -13q31 -46 31 -87q0 -25 -11 -48l-190 -260l-41 -16l-31 26q-20 17 -20 58z" />
<glyph unicode="&#xd4;" horiz-adv-x="971" d="M40 422q0 21 1 43q22 396 175.5 631t259.5 271q8 3 15 3q48 0 17 -163l32 95q411 -72 411 -521q0 -28 -2 -57q-54 -675 -553 -710q-356 52 -356 408zM257 590q-22 -384 212 -355q225 94 269 476q29 300 -161 379.5t-320 -500.5zM301 1433q108 300 175 416q-14 65 5 76 l35 20l94 -43l56 -97q154 -366 80 -408l-34 -20l-63 29q-55 119 -93 211q-121 -277 -192 -258l-39 10z" />
<glyph unicode="&#xd5;" horiz-adv-x="971" d="M40 422q0 21 1 43q22 396 175.5 631t259.5 271q8 3 15 3q48 0 17 -163l32 95q411 -72 411 -521q0 -28 -2 -57q-54 -675 -553 -710q-356 52 -356 408zM257 590q-22 -384 212 -355q225 94 269 476q29 300 -161 379.5t-320 -500.5zM386 1547q50 223 137 231h12 q101 0 133 -108q64 -108 99 32q-9 67 34 79h39q29 0 38 -34l-7 -49q-8 -129 -110 -175q-28 -13 -66 -6q-64 0 -101 89q-72 122 -89 -12l-20 -72q-23 -10 -42 -10q-35 0 -57 35z" />
<glyph unicode="&#xd6;" horiz-adv-x="971" d="M40 422q0 21 1 43q22 396 175.5 631t259.5 271q8 3 15 3q48 0 17 -163l32 95q411 -72 411 -521q0 -28 -2 -57q-54 -675 -553 -710q-356 52 -356 408zM257 590q-22 -384 212 -355q225 94 269 476q29 300 -161 379.5t-320 -500.5zM368 1653q0 69 70 94q19 7 37 7 q60 0 91 -84q-28 -114 -90 -114q-63 0 -103 56q-5 22 -5 41zM630 1653q0 69 70 94q19 7 37 7q60 0 91 -84q-28 -114 -90 -114q-63 0 -103 56q-5 22 -5 41z" />
<glyph unicode="&#xd7;" horiz-adv-x="1196" />
<glyph unicode="&#xd8;" horiz-adv-x="1593" />
<glyph unicode="&#xd9;" horiz-adv-x="919" d="M44 554q68 637 246 818q126 16 133 -61q-105 -311 -150 -700q-39 -372 131 -351q208 4 251.5 254.5t23.5 699.5q-20 105 78.5 119.5t119.5 -59.5q17 -446 -12.5 -784.5t-245.5 -416.5q-259 -100 -428 -18t-147 499zM385 1739q0 41 31 87q34 13 66 13q51 0 96 -34 q100 -214 100 -306q0 -41 -20 -58l-31 -26l-41 16l-190 260q-11 23 -11 48z" />
<glyph unicode="&#xda;" horiz-adv-x="919" d="M44 554q68 637 246 818q126 16 133 -61q-105 -311 -150 -700q-39 -372 131 -351q208 4 251.5 254.5t23.5 699.5q-20 105 78.5 119.5t119.5 -59.5q17 -446 -12.5 -784.5t-245.5 -416.5q-259 -100 -428 -18t-147 499zM496 1500q0 92 100 306q45 34 96 34q32 0 66 -13 q31 -46 31 -87q0 -25 -11 -48l-190 -260l-41 -16l-31 26q-20 17 -20 58z" />
<glyph unicode="&#xdb;" horiz-adv-x="919" d="M44 554q68 637 246 818q126 16 133 -61q-105 -311 -150 -700q-39 -372 131 -351q208 4 251.5 254.5t23.5 699.5q-20 105 78.5 119.5t119.5 -59.5q17 -446 -12.5 -784.5t-245.5 -416.5q-259 -100 -428 -18t-147 499zM364 1511q108 300 175 416q-14 65 5 76l35 20l94 -43 l56 -97q154 -366 80 -408l-34 -20l-63 29q-55 119 -93 211q-121 -277 -192 -258l-39 10z" />
<glyph unicode="&#xdc;" horiz-adv-x="919" d="M44 554q68 637 246 818q126 16 133 -61q-105 -311 -150 -700q-39 -372 131 -351q208 4 251.5 254.5t23.5 699.5q-20 105 78.5 119.5t119.5 -59.5q17 -446 -12.5 -784.5t-245.5 -416.5q-259 -100 -428 -18t-147 499zM357 1645q0 69 70 94q19 7 37 7q60 0 91 -84 q-28 -114 -90 -114q-63 0 -103 56q-5 22 -5 41zM619 1645q0 69 70 94q19 7 37 7q60 0 91 -84q-28 -114 -90 -114q-63 0 -103 56q-5 22 -5 41z" />
<glyph unicode="&#xdd;" horiz-adv-x="1366" />
<glyph unicode="&#xde;" horiz-adv-x="1366" />
<glyph unicode="&#xdf;" horiz-adv-x="867" d="M65 269q1 2 1 3l112 873q1 58 23 92q8 28 19 57q135 166 206.5 172.5t76.5 6.5q63 9 160 -47q90 -54 127 -179.5t37 -165.5q0 -35 -19 -76l-104 -87q-192 -65 0 -171q161 -66 157 -297q12 -69 -11 -119q-83 -185 -318 -200l-88 -13q-61 17 -61 68v72q21 77 211 78 q193 119 -15.5 276t-187.5 243q0 10 1 21q13 151 147.5 190.5t62 135t-122.5 73.5q-60 -26 -105 -82l-104 -896q-9 -134 -90 -157q-16 -3 -29 -3q-87 0 -86 132z" />
<glyph unicode="&#xe0;" horiz-adv-x="813" d="M70 417q0 48 8 105q42 308 388 458q49 16 86 16q76 0 98 -68l82 28q47 18 47 -87q0 -55 -13 -145l-55 -575q-138 -70 -189 18l2 60q-73 -104 -186 -104q-52 0 -111 22q-157 56 -157 272zM286 369q42 -118 263 63l34 271q-15 92 -119 51t-162 -154t-16 -231zM339 1379 q0 41 31 87q34 13 66 13q51 0 96 -34q100 -214 100 -306q0 -41 -20 -58l-31 -26l-41 16l-190 260q-11 23 -11 48z" />
<glyph unicode="&#xe1;" horiz-adv-x="813" d="M67 417q0 48 8 105q42 308 388 458q49 16 86 16q76 0 98 -68l82 28q47 18 47 -87q0 -55 -13 -145l-55 -575q-138 -70 -189 18l2 60q-73 -104 -186 -104q-52 0 -111 22q-157 56 -157 272zM283 369q42 -118 263 63l34 271q-15 92 -119 51t-162 -154t-16 -231zM428 1139 q0 92 100 306q45 34 96 34q32 0 66 -13q31 -46 31 -87q0 -25 -11 -48l-190 -260l-41 -16l-31 26q-20 17 -20 58z" />
<glyph unicode="&#xe2;" horiz-adv-x="813" d="M67 417q0 48 8 105q42 308 388 458q49 16 86 16q76 0 98 -68l82 28q47 18 47 -87q0 -55 -13 -145l-55 -575q-138 -70 -189 18l2 60q-73 -104 -186 -104q-52 0 -111 22q-157 56 -157 272zM283 369q42 -118 263 63l34 271q-15 92 -119 51t-162 -154t-16 -231zM283 1089 q108 300 175 416q-14 65 5 76l35 20l94 -43l56 -97q154 -366 80 -408l-34 -20l-63 29q-55 119 -93 211q-121 -277 -192 -258l-39 10z" />
<glyph unicode="&#xe3;" horiz-adv-x="813" d="M67 417q0 48 8 105q42 308 388 458q49 16 86 16q76 0 98 -68l82 28q47 18 47 -87q0 -55 -13 -145l-55 -575q-138 -70 -189 18l2 60q-73 -104 -186 -104q-52 0 -111 22q-157 56 -157 272zM283 369q42 -118 263 63l34 271q-15 92 -119 51t-162 -154t-16 -231zM283 1247 q50 223 137 231h12q101 0 133 -108q64 -108 99 32q-9 67 34 79h39q29 0 38 -34l-7 -49q-8 -129 -110 -175q-28 -13 -66 -6q-64 0 -101 89q-72 122 -89 -12l-20 -72q-23 -10 -42 -10q-35 0 -57 35z" />
<glyph unicode="&#xe4;" horiz-adv-x="813" d="M67 417q0 48 8 105q42 308 388 458q49 16 86 16q76 0 98 -68l82 28q47 18 47 -87q0 -55 -13 -145l-55 -575q-138 -70 -189 18l2 60q-73 -104 -186 -104q-52 0 -111 22q-157 56 -157 272zM283 369q42 -118 263 63l34 271q-15 92 -119 51t-162 -154t-16 -231zM292 1345 q0 69 70 94q19 7 37 7q60 0 91 -84q-28 -114 -90 -114q-63 0 -103 56q-5 22 -5 41zM554 1345q0 69 70 94q19 7 37 7q60 0 91 -84q-28 -114 -90 -114q-63 0 -103 56q-5 22 -5 41z" />
<glyph unicode="&#xe5;" />
<glyph unicode="&#xe6;" horiz-adv-x="1821" />
<glyph unicode="&#xe7;" horiz-adv-x="664" d="M17 484q0 131 52 271q135 224 206.5 230.5t76.5 6.5q179 0 276 -138q18 -23 18 -48q0 -35 -33 -74q-59 -69 -122 -27q-68 88 -155 53q-80 -2 -117 -115t-12.5 -212.5t123.5 -91.5q59 -17 136 49q45 98 110 54t43 -121q-113 -182 -292 -194q-18 -1 -34 -1q-201 0 -253 190 q-23 82 -23 168zM153 -136q28 107 56 79q125 -144 149.5 -94.5t-49.5 115t-71.5 133t104.5 81.5l19 -61q0 -36 -24.5 -36.5t1.5 -18.5q66 -48 108 -122q18 -51 7 -92q1 -72 -76 -111q-20 -11 -42 -11q-84 0 -182 138z" />
<glyph unicode="&#xe8;" horiz-adv-x="698" d="M20 484q5 131 60 295q95 168 193 202.5t103 34.5q179 13 271 -118q17 -22 27 -123t-43.5 -177.5t-185.5 -132.5t-238 -56q19 -134 195 -49q106 69 149.5 -5t-22.5 -114q-82 -75 -212 -92q-18 -2 -34 -3q-201 -15 -246 172q-20 80 -17 166zM171 1379q0 41 31 87 q34 13 66 13q51 0 96 -34q100 -214 100 -306q0 -41 -20 -58l-31 -26l-41 16l-190 260q-11 23 -11 48zM208 574q134 1 306 105q1 178 -153 136q-91 -42 -132 -158q-15 -41 -21 -83z" />
<glyph unicode="&#xe9;" horiz-adv-x="698" d="M20 484q5 131 60 295q95 168 193 202.5t103 34.5q179 13 271 -118q17 -22 27 -123t-43.5 -177.5t-185.5 -132.5t-238 -56q19 -134 195 -49q106 69 149.5 -5t-22.5 -114q-82 -75 -212 -92q-18 -2 -34 -3q-201 -15 -246 172q-20 80 -17 166zM208 574q134 1 306 105 q1 178 -153 136q-91 -42 -132 -158q-15 -41 -21 -83zM323 1139q0 92 100 306q45 34 96 34q32 0 66 -13q31 -46 31 -87q0 -25 -11 -48l-190 -260l-41 -16l-31 26q-20 17 -20 58z" />
<glyph unicode="&#xea;" horiz-adv-x="698" d="M20 484q5 131 60 295q95 168 193 202.5t103 34.5q179 13 271 -118q17 -22 27 -123t-43.5 -177.5t-185.5 -132.5t-238 -56q19 -134 195 -49q106 69 149.5 -5t-22.5 -114q-82 -75 -212 -92q-18 -2 -34 -3q-201 -15 -246 172q-20 80 -17 166zM151 1089q108 300 175 416 q-14 65 5 76l35 20l94 -43l56 -97q154 -366 80 -408l-34 -20l-63 29q-55 119 -93 211q-121 -277 -192 -258l-39 10zM208 574q134 1 306 105q1 178 -153 136q-91 -42 -132 -158q-15 -41 -21 -83z" />
<glyph unicode="&#xeb;" horiz-adv-x="698" d="M20 484q5 131 60 295q95 168 193 202.5t103 34.5q179 13 271 -118q17 -22 27 -123t-43.5 -177.5t-185.5 -132.5t-238 -56q19 -134 195 -49q106 69 149.5 -5t-22.5 -114q-82 -75 -212 -92q-18 -2 -34 -3q-201 -15 -246 172q-20 80 -17 166zM169 1345q0 69 70 94q19 7 37 7 q60 0 91 -84q-28 -114 -90 -114q-63 0 -103 56q-5 22 -5 41zM208 574q134 1 306 105q1 178 -153 136q-91 -42 -132 -158q-15 -41 -21 -83zM431 1345q0 69 70 94q19 7 37 7q60 0 91 -84q-28 -114 -90 -114q-63 0 -103 56q-5 22 -5 41z" />
<glyph unicode="&#xec;" horiz-adv-x="355" d="M37 1379q0 41 31 87q34 13 66 13q51 0 96 -34q100 -214 100 -306q0 -41 -20 -58l-31 -26l-41 16l-190 260q-11 23 -11 48zM58 268v3l79 596q3 145 141 145q10 2 19 2q50 0 42 -58l-23 -160l-54 -500q-9 -134 -90 -157q-16 -3 -29 -3q-87 0 -85 132z" />
<glyph unicode="&#xed;" horiz-adv-x="355" d="M58 268v3l79 596q3 145 141 145q10 2 19 2q50 0 42 -58l-23 -160l-54 -500q-9 -134 -90 -157q-16 -3 -29 -3q-87 0 -85 132zM195 1139q0 92 100 306q45 34 96 34q32 0 66 -13q31 -46 31 -87q0 -25 -11 -48l-190 -260l-41 -16l-31 26q-20 17 -20 58z" />
<glyph unicode="&#xee;" horiz-adv-x="355" d="M55 1089q87 300 140 416q-11 65 4 76l28 20l75 -43l45 -97q123 -366 64 -408l-27 -20l-50 29q-44 119 -75 211q-97 -277 -153 -258l-32 10zM58 268v3l79 596q3 145 141 145q10 2 19 2q50 0 42 -58l-23 -160l-54 -500q-9 -134 -90 -157q-16 -3 -29 -3q-87 0 -85 132z" />
<glyph unicode="&#xef;" horiz-adv-x="355" d="M48 1345q0 69 70 94q19 7 37 7q60 0 91 -84q-28 -114 -90 -114q-63 0 -103 56q-5 22 -5 41zM58 268v3l79 596q3 145 141 145q10 2 19 2q50 0 42 -58l-23 -160l-54 -500q-9 -134 -90 -157q-16 -3 -29 -3q-87 0 -85 132zM310 1345q0 69 70 94q19 7 37 7q60 0 91 -84 q-28 -114 -90 -114q-63 0 -103 56q-5 22 -5 41z" />
<glyph unicode="&#xf0;" />
<glyph unicode="&#xf1;" horiz-adv-x="801" d="M31 268v3l85 601q6 145 144 145q10 2 19 2q50 0 41 -58l-60 -298q150 338 370 338q18 0 36 -2q155 -19 146 -267q-5 -140 -63 -354q17 -60 15 -107q-3 -87 -68 -133q-35 -18 -61 -18q-83 0 -78 183q107 472 28.5 487t-320.5 -519q-58 -109 -123 -132q-16 -3 -29 -3 q-87 0 -82 132zM287 1247q50 223 137 231h12q101 0 133 -108q64 -108 99 32q-9 67 34 79h39q29 0 38 -34l-7 -49q-8 -129 -110 -175q-28 -13 -66 -6q-64 0 -101 89q-72 122 -89 -12l-20 -72q-23 -10 -42 -10q-35 0 -57 35z" />
<glyph unicode="&#xf2;" horiz-adv-x="664" d="M39.5 316q-56.5 206 29 438.5t272.5 237t266 -133.5t15 -426.5t-295 -305t-287.5 189.5zM166 1379q0 41 31 87q34 13 66 13q51 0 96 -34q100 -214 100 -306q0 -41 -20 -58l-31 -26l-41 16l-190 260q-11 23 -11 48zM206.5 430.5q24.5 -99.5 123.5 -91.5t126.5 147.5 t-6.5 206.5t-114 65t-117 -115t-12.5 -212.5z" />
<glyph unicode="&#xf3;" horiz-adv-x="664" d="M39.5 316q-56.5 206 29 438.5t272.5 237t266 -133.5t15 -426.5t-295 -305t-287.5 189.5zM206.5 430.5q24.5 -99.5 123.5 -91.5t126.5 147.5t-6.5 206.5t-114 65t-117 -115t-12.5 -212.5zM356 1139q0 92 100 306q45 34 96 34q32 0 66 -13q31 -46 31 -87q0 -25 -11 -48 l-190 -260l-41 -16l-31 26q-20 17 -20 58z" />
<glyph unicode="&#xf4;" horiz-adv-x="664" d="M39.5 316q-56.5 206 29 438.5t272.5 237t266 -133.5t15 -426.5t-295 -305t-287.5 189.5zM138 1089q108 300 175 416q-14 65 5 76l35 20l94 -43l56 -97q154 -366 80 -408l-34 -20l-63 29q-55 119 -93 211q-121 -277 -192 -258l-39 10zM206.5 430.5q24.5 -99.5 123.5 -91.5 t126.5 147.5t-6.5 206.5t-114 65t-117 -115t-12.5 -212.5z" />
<glyph unicode="&#xf5;" horiz-adv-x="664" d="M39.5 316q-56.5 206 29 438.5t272.5 237t266 -133.5t15 -426.5t-295 -305t-287.5 189.5zM147 1247q50 223 137 231h12q101 0 133 -108q64 -108 99 32q-9 67 34 79h39q29 0 38 -34l-7 -49q-8 -129 -110 -175q-28 -13 -66 -6q-64 0 -101 89q-72 122 -89 -12l-20 -72 q-23 -10 -42 -10q-35 0 -57 35zM206.5 430.5q24.5 -99.5 123.5 -91.5t126.5 147.5t-6.5 206.5t-114 65t-117 -115t-12.5 -212.5z" />
<glyph unicode="&#xf6;" horiz-adv-x="664" d="M39.5 316q-56.5 206 29 438.5t272.5 237t266 -133.5t15 -426.5t-295 -305t-287.5 189.5zM155 1345q0 69 70 94q19 7 37 7q60 0 91 -84q-28 -114 -90 -114q-63 0 -103 56q-5 22 -5 41zM206.5 430.5q24.5 -99.5 123.5 -91.5t126.5 147.5t-6.5 206.5t-114 65t-117 -115 t-12.5 -212.5zM417 1345q0 69 70 94q19 7 37 7q60 0 91 -84q-28 -114 -90 -114q-63 0 -103 56q-5 22 -5 41z" />
<glyph unicode="&#xf7;" horiz-adv-x="1124" />
<glyph unicode="&#xf8;" horiz-adv-x="1251" />
<glyph unicode="&#xf9;" horiz-adv-x="778" d="M67 417q0 48 8 105q5 38 15 75q61 249 107 325q34 56 90 56q19 0 40 -6q85 -26 44 -112q-80 -168 -96 -296.5t8 -194.5q42 -118 263 63l30 251l20 197q7 61 133 76q7 3 13 3q34 0 34 -90q0 -55 -13 -145l-51 -533q-107 -75 -158 -75q-30 0 -40 27l7 84 q-73 -104 -186 -104q-52 0 -111 22q-157 55 -157 272zM294 1379q0 41 31 87q34 13 66 13q51 0 96 -34q100 -214 100 -306q0 -41 -20 -58l-31 -26l-41 16l-190 260q-11 23 -11 48z" />
<glyph unicode="&#xfa;" horiz-adv-x="778" d="M67 417q0 48 8 105q5 38 15 75q61 249 107 325q34 56 90 56q19 0 40 -6q85 -26 44 -112q-80 -168 -96 -296.5t8 -194.5q42 -118 263 63l30 251l20 197q7 61 133 76q7 3 13 3q34 0 34 -90q0 -55 -13 -145l-51 -533q-107 -75 -158 -75q-30 0 -40 27l7 84 q-73 -104 -186 -104q-52 0 -111 22q-157 55 -157 272zM450 1139q0 92 100 306q45 34 96 34q32 0 66 -13q31 -46 31 -87q0 -25 -11 -48l-190 -260l-41 -16l-31 26q-20 17 -20 58z" />
<glyph unicode="&#xfb;" horiz-adv-x="778" d="M67 417q0 48 8 105q5 38 15 75q61 249 107 325q34 56 90 56q19 0 40 -6q85 -26 44 -112q-80 -168 -96 -296.5t8 -194.5q42 -118 263 63l30 251l20 197q7 61 133 76q7 3 13 3q34 0 34 -90q0 -55 -13 -145l-51 -533q-107 -75 -158 -75q-30 0 -40 27l7 84 q-73 -104 -186 -104q-52 0 -111 22q-157 55 -157 272zM284 1089q108 300 175 416q-14 65 5 76l35 20l94 -43l56 -97q154 -366 80 -408l-34 -20l-63 29q-55 119 -93 211q-121 -277 -192 -258l-39 10z" />
<glyph unicode="&#xfc;" horiz-adv-x="778" d="M67 417q0 48 8 105q5 38 15 75q61 249 107 325q34 56 90 56q19 0 40 -6q85 -26 44 -112q-80 -168 -96 -296.5t8 -194.5q42 -118 263 63l30 251l20 197q7 61 133 76q7 3 13 3q34 0 34 -90q0 -55 -13 -145l-51 -533q-107 -75 -158 -75q-30 0 -40 27l7 84 q-73 -104 -186 -104q-52 0 -111 22q-157 55 -157 272zM300 1345q0 69 70 94q19 7 37 7q60 0 91 -84q-28 -114 -90 -114q-63 0 -103 56q-5 22 -5 41zM562 1345q0 69 70 94q19 7 37 7q60 0 91 -84q-28 -114 -90 -114q-63 0 -103 56q-5 22 -5 41z" />
<glyph unicode="&#xfd;" horiz-adv-x="1024" />
<glyph unicode="&#xfe;" />
<glyph unicode="&#xff;" horiz-adv-x="1024" />
<glyph unicode="&#x152;" horiz-adv-x="2048" />
<glyph unicode="&#x153;" horiz-adv-x="1933" />
<glyph unicode="&#x178;" horiz-adv-x="1366" />
<glyph unicode="&#x2c6;" horiz-adv-x="596" d="M59 1089q108 300 175 416q-14 65 5 76l35 20l94 -43l56 -97q154 -366 80 -408l-34 -20l-63 29q-55 119 -93 211q-121 -277 -192 -258l-39 10z" />
<glyph unicode="&#x2dc;" horiz-adv-x="622" d="M75 1247q50 223 137 231h12q101 0 133 -108q64 -108 99 32q-9 67 34 79h39q29 0 38 -34l-7 -49q-8 -129 -110 -175q-28 -13 -66 -6q-64 0 -101 89q-72 122 -89 -12l-20 -72q-23 -10 -42 -10q-35 0 -57 35z" />
<glyph unicode="&#x2000;" horiz-adv-x="1011" />
<glyph unicode="&#x2001;" horiz-adv-x="2023" />
<glyph unicode="&#x2002;" horiz-adv-x="1011" />
<glyph unicode="&#x2003;" horiz-adv-x="2023" />
<glyph unicode="&#x2004;" horiz-adv-x="674" />
<glyph unicode="&#x2005;" horiz-adv-x="505" />
<glyph unicode="&#x2006;" horiz-adv-x="337" />
<glyph unicode="&#x2007;" horiz-adv-x="337" />
<glyph unicode="&#x2008;" horiz-adv-x="252" />
<glyph unicode="&#x2009;" horiz-adv-x="404" />
<glyph unicode="&#x200a;" horiz-adv-x="112" />
<glyph unicode="&#x2010;" horiz-adv-x="588" d="M50 680v51q0 75 320 126l99 4q31 -4 61 -105l-21 -93q-62 -58 -278 -84h-101z" />
<glyph unicode="&#x2011;" horiz-adv-x="588" d="M50 680v51q0 75 320 126l99 4q31 -4 61 -105l-21 -93q-62 -58 -278 -84h-101z" />
<glyph unicode="&#x2012;" horiz-adv-x="588" d="M50 680v51q0 75 320 126l99 4q31 -4 61 -105l-21 -93q-62 -58 -278 -84h-101z" />
<glyph unicode="&#x2013;" />
<glyph unicode="&#x2014;" horiz-adv-x="2048" />
<glyph unicode="&#x2018;" horiz-adv-x="391" d="M84 969q48 534 113 534h40l60 -84v-112q-48 -394 -133 -394h-40z" />
<glyph unicode="&#x2019;" horiz-adv-x="391" d="M84 969q48 534 113 534h40l60 -84v-112q-48 -394 -133 -394h-40z" />
<glyph unicode="&#x201a;" horiz-adv-x="455" />
<glyph unicode="&#x201c;" horiz-adv-x="594" d="M84 969q48 534 113 534h40l60 -84v-112q-48 -394 -133 -394h-40zM326 969q48 534 113 534h40l60 -84v-112q-48 -394 -133 -394h-40z" />
<glyph unicode="&#x201d;" horiz-adv-x="594" d="M84 969q48 534 113 534h40l60 -84v-112q-48 -394 -133 -394h-40zM326 969q48 534 113 534h40l60 -84v-112q-48 -394 -133 -394h-40z" />
<glyph unicode="&#x201e;" horiz-adv-x="682" />
<glyph unicode="&#x2022;" horiz-adv-x="717" />
<glyph unicode="&#x2026;" horiz-adv-x="2048" />
<glyph unicode="&#x202f;" horiz-adv-x="404" />
<glyph unicode="&#x2039;" horiz-adv-x="682" />
<glyph unicode="&#x203a;" horiz-adv-x="682" />
<glyph unicode="&#x205f;" horiz-adv-x="505" />
<glyph unicode="&#x20ac;" horiz-adv-x="777" d="M-50 548v32q0 27 78 49q8 51 20 110q-11 0 -22 -1l-72 32v32q0 33 123 60q62 203 212 345q174 164 406 187q82 -8 80 -73.5t-68 -149.5q-162 -27 -277 -150q-46 -49 -82 -122q54 5 115 10h145l109 -48v-32q0 -41 -423 -73q-13 -41 -23 -87q83 9 188 17h145l109 -48v-32 q0 -43 -466 -76q-21 -200 60 -276q98 -93 381 102q54 26 52 -60t-48 -141q-122 -116 -249.5 -148t-266.5 29q-53 26 -101.5 141t-58.5 244q-4 43 0 98z" />
<glyph unicode="&#x2122;" horiz-adv-x="2048" />
<glyph unicode="&#x25fc;" horiz-adv-x="1000" d="M0 0v1000h1000v-1000h-1000z" />
</font>
</defs>
</svg>
