<?xml version="1.0" standalone="no"?>
<!DOCTYPE svg PUBLIC "-//W3C//DTD SVG 1.1//EN" "http://www.w3.org/Graphics/SVG/1.1/DTD/svg11.dtd" >
<svg xmlns="http://www.w3.org/2000/svg" xmlns:xlink="http://www.w3.org/1999/xlink" version="1.1">
<metadata></metadata>
<defs>
<font id="luis_candararegular" horiz-adv-x="454" >
<font-face units-per-em="2048" ascent="1536" descent="-512" />
<missing-glyph horiz-adv-x="385" />
<glyph horiz-adv-x="0" />
<glyph horiz-adv-x="682" />
<glyph unicode=" "  horiz-adv-x="385" />
<glyph unicode="&#x09;" horiz-adv-x="385" />
<glyph unicode="&#xa0;" horiz-adv-x="385" />
<glyph unicode="!" horiz-adv-x="251" d="M29 104q0 -25 8 -37t19.5 -17t21.5 -4t14 1q2 0 13.5 4t23.5 13.5t21.5 24.5t9.5 40q0 23 -8.5 35t-19.5 17t-21.5 5h-14.5q-20 -6 -35 -16q-12 -10 -22 -25.5t-10 -40.5zM89 369.5q1 31.5 6 80t13.5 105.5t16.5 107.5t15 86t12 44.5q2 4 11 16t20.5 23.5t22.5 17.5t17 0 v-4q-6 -8 -13 -44t-14.5 -85t-13.5 -104.5t-11 -103.5t-8 -81t-3 -37q0 -12 -22.5 -32.5t-43.5 -20.5q-6 0 -5 31.5z" />
<glyph unicode="&#x22;" horiz-adv-x="563" d="M153 668q3 43 9 98t12 106.5t8 67.5q0 6 8.5 15.5t18.5 16.5t19.5 12t13.5 1q2 -4 -2 -45t-9.5 -92t-11.5 -97t-6 -61q-2 -29 -24.5 -44t-32.5 -19q-6 -2 -3 41zM352 627q4 6 9.5 50t10.5 96t8 98.5t3 56.5q0 4 8 13t18.5 18.5t19.5 15.5t13 2t0 -47t-10 -94.5t-12 -97.5 t-8 -56q0 -10 -11.5 -22.5t-23.5 -22.5t-20.5 -14.5t-4.5 4.5z" />
<glyph unicode="#" horiz-adv-x="759" d="M76 47q4 10 25.5 55t48.5 93q31 55 67 124q-37 -2 -67 -2q-27 0 -48.5 1t-25.5 6q-4 4 3 14t19.5 20.5t24.5 18.5t18 8q4 0 22.5 -1t37.5 -1q23 -2 49 -2l88 182q-47 0 -84 -2q-33 -2 -60.5 -3t-31.5 -3q-4 -4 -3 8t21.5 27.5t63.5 28t123 8.5q2 2 14 31.5t25.5 65.5 t23.5 68.5t8 38.5t8.5 18.5t23.5 24t25.5 16.5t12.5 -1q0 -23 -12.5 -63t-28.5 -82t-31.5 -75.5t-21.5 -41.5l151 -4q16 39 31 75q12 33 23.5 71t19.5 69q2 8 13.5 19t23.5 20.5t22.5 13.5t10.5 -2t-14.5 -47t-31 -89t-33 -88t-20.5 -42t10.5 -2t34 2t37 2t17.5 -2 q-2 -4 -20.5 -29t-43.5 -31q-14 -2 -24.5 -3t-20.5 -1h-20l-91 -176h66q25 0 43 -2t16 -6t-9 -13.5t-16 -19.5t-20.5 -18.5t-19.5 -8.5h-24.5t-30.5 2q-18 0 -37 2q-23 -49 -41 -92q-16 -39 -29.5 -77.5t-17.5 -61.5t-16.5 -37t-26 -20t-22.5 -5t-7 9t16.5 48t33 87t36.5 90 t31 59q-8 2 -32 2.5t-50 0.5q-31 0 -70 -3q-31 -63 -57 -114q-23 -45 -44.5 -83t-29.5 -46q-10 -8 -20.5 -17.5t-19.5 -15.5t-14 -6t-1 10zM293 381h153l89 180l-150 2z" />
<glyph unicode="$" horiz-adv-x="491" d="M45 139q-8 4 0 8q6 10 14 19q6 8 14.5 14t18.5 6q6 0 43 -4t84 0q6 68 13.5 146t17.5 153q-31 18 -59.5 36t-52 38t-37 44t-13.5 52q0 43 20.5 74t51 51.5t64.5 32.5t61 18q0 2 1 3t1 4q4 33 18 70.5t28.5 66t25 40t3.5 -11.5q-2 -12 -7 -55t-11 -108q49 4 89 -3.5 t36 -13.5t-20.5 -21.5t-22.5 -19.5t-29.5 1t-58.5 9q-6 -59 -12.5 -127.5t-12.5 -140.5q57 -31 102.5 -71.5t43.5 -110.5q0 -82 -53.5 -126t-124.5 -62q-2 -23 -3.5 -38.5t-1.5 -23.5q0 -12 -10 -38.5t-22.5 -51.5t-24.5 -38t-14 1q-2 8 1 56.5t9 119.5q-23 -4 -43 -4h-41 q-43 0 -62.5 1t-23.5 5zM139 696q0 -51 35 -83.5t82 -59.5q8 72 14 134.5t11 100.5q-25 -2 -49.5 -8t-45 -17t-34 -27.5t-13.5 -39.5zM283 190q51 10 88 37t37 80q0 45 -30 78t-73 61q-6 -74 -12 -139t-10 -117z" />
<glyph unicode="%" horiz-adv-x="765" d="M55 72q2 8 39 57t90.5 118.5t115.5 150.5t119.5 154t99.5 127t56 71q20 25 51 49t58 40.5t40 20.5t-3 -12q-10 -10 -51 -61.5t-96.5 -123t-119 -153.5t-119.5 -155.5t-97.5 -129t-53.5 -71.5q-6 -10 -28.5 -29t-47 -34t-42 -23.5t-11.5 4.5zM129 664q0 53 22.5 87.5 t51.5 55.5q33 23 76 33q8 0 29.5 -1t44 -11.5t41 -36t18.5 -76.5t-19.5 -85t-45 -53.5t-49.5 -27.5t-32 -8t-30.5 -1t-46 8t-42 34.5t-18.5 81.5zM170 721q0 -33 10 -57q10 -23 28.5 -43.5t55.5 -30.5q37 -8 57.5 0t30.5 22.5t13.5 30t5.5 21.5q0 4 -1 21t-10.5 37.5t-29 39 t-54.5 26.5t-54 1t-30.5 -21t-15.5 -28.5t-6 -18.5zM399 264q0 53 22.5 88t51.5 56q33 22 76 34q8 0 29.5 -1t44 -12t41 -36.5t18.5 -77.5q0 -51 -19.5 -84.5t-45 -53t-49 -28t-31.5 -8.5t-31 -1t-46.5 8.5t-42 35t-18.5 80.5zM449 322q0 -33 10 -58q8 -23 27.5 -43 t56.5 -31q37 -8 57.5 0.5t30.5 22.5t13 29.5t3 21.5q2 4 0 21.5t-11 38t-28.5 40t-52.5 27.5q-35 8 -55.5 0t-31.5 -22.5t-15 -28.5t-4 -18z" />
<glyph unicode="&#x26;" horiz-adv-x="817" d="M51 254q0 63 25.5 106t59.5 73t68 47.5t50 31.5q-29 29 -44 53.5t-21.5 48t-6.5 50v61.5t22.5 63.5t55.5 48t71 30t68 10.5q63 0 95 -36t32 -116q0 -41 -25.5 -76t-56.5 -61q-37 -31 -79 -58l237 -229q12 14 21.5 40t15.5 51.5t9 47t3 27.5t12.5 20.5t25.5 26.5 t23.5 16.5t10.5 -10.5q4 -23 -11.5 -62.5t-33.5 -80.5q-22 -48 -51 -101q39 -49 69 -88q27 -35 48.5 -65.5t23.5 -40.5q0 -10 -10 -20.5t-23 -20.5q-14 -10 -35 -21q-31 47 -55 84q-23 33 -45 63t-33 38q-10 -18 -50 -49t-92 -59.5t-108.5 -47t-101.5 -14.5q-10 0 -37.5 10 t-55.5 34.5t-49.5 66.5t-21.5 108zM125 291q4 -41 20.5 -83t49.5 -76t86 -36q53 -4 102 15.5t88 44.5q45 29 84 65l-274 268q-51 -16 -80 -34.5t-44.5 -36t-21.5 -35.5t-10 -35q-4 -16 0 -57zM255 687q11 -46 32 -77q23 -37 55 -59l4 4q37 8 60.5 27.5t36 45t14.5 53.5 t-4 52q-8 25 -23.5 44.5t-39 29.5t-57.5 9t-77 -17q-12 -66 -1 -112z" />
<glyph unicode="'" horiz-adv-x="147" d="M32 668q3 43 9 98t12 106.5t8 67.5q0 6 8.5 15.5t18.5 16.5t19.5 12t13.5 1q2 -4 -2 -45t-9.5 -92t-11.5 -97t-6 -61q-2 -29 -24.5 -44t-32.5 -19q-6 -2 -3 41z" />
<glyph unicode="(" horiz-adv-x="491" d="M43 387q0 117 27.5 220.5t68.5 189.5t90.5 153.5t92.5 112.5t73.5 67.5t36.5 18.5q4 -2 -18.5 -26.5t-58.5 -66.5t-77.5 -101.5t-78.5 -134.5t-61.5 -164t-24.5 -189q0 -152 28.5 -249t64.5 -156.5t66.5 -86t34.5 -32.5q4 -8 -6 -17.5t-22 -19.5l-35 -25q-57 29 -101 94 q-39 55 -69.5 153.5t-30.5 258.5z" />
<glyph unicode=")" horiz-adv-x="530" d="M94 -76q-4 2 18.5 26.5t58.5 66.5t78 101.5t79 134.5t61.5 164t24.5 189q0 150 -29 248t-64.5 157.5t-66.5 86t-35 32.5t6.5 16.5t22.5 20.5l35 25q55 -29 100 -94q37 -55 68.5 -153.5t31.5 -258.5q0 -117 -27.5 -221.5t-68.5 -190.5t-90 -153.5t-92 -112.5t-75 -66.5 t-36 -17.5z" />
<glyph unicode="*" horiz-adv-x="620" d="M50 717q5 10 16.5 20.5t24.5 18.5t22 8q18 0 45.5 -14.5t56.5 -30.5q33 -20 68 -45q4 43 10 82q4 33 11 65.5t18 48.5q20 33 44.5 47.5t22.5 0.5q-14 -49 -21.5 -100.5t-11.5 -92.5q-6 -49 -6 -94q45 31 86 55q35 23 72 43.5t61 30.5q4 2 5 -5t-2 -17.5t-8 -20.5t-11 -15 q-16 -12 -48 -31.5t-63 -37.5q-37 -23 -75 -43q18 -20 36 -49q16 -25 33 -60t31 -82q2 -8 -7 -21t-21.5 -23.5t-25 -15.5t-14.5 3q-10 29 -29.5 64.5t-37.5 66.5q-23 37 -47 70q-45 -31 -82 -56q-33 -23 -60.5 -40t-33.5 -17q-10 -2 -10.5 3t8 15.5t22.5 22.5t31 27 q37 33 94 75q-33 29 -68 54q-29 23 -64.5 44t-70.5 34q-6 2 -1 12z" />
<glyph unicode="+" horiz-adv-x="655" d="M72 311q-6 4 3 15.5t24.5 21.5t29.5 18.5t21 8.5q12 -2 55 -3t98 -3q4 63 6 112t2 64q0 6 9.5 22.5t21.5 31.5t23.5 24.5t15.5 1.5q2 -4 2 -28t-2 -59.5t-6 -80.5l-8 -90q39 0 76.5 -1t68.5 -1t52.5 1t27.5 3q12 2 5 -7.5t-22.5 -21.5t-36 -23.5t-36.5 -11.5 q-12 -2 -50 -2h-90q-6 -57 -10 -101t-6 -57q-2 -18 -15.5 -39.5t-27.5 -37t-23.5 -21.5t-5.5 6q2 6 5.5 29.5t6.5 57.5t6 77t7 86h-80t-70.5 1t-53 3t-23.5 4z" />
<glyph unicode="," horiz-adv-x="243" d="M6.5 -205q-20.5 -2 9.5 21q31 23 50.5 65.5t29.5 88.5t12.5 86.5t0.5 58.5q-2 14 6 25.5t19 19.5t22.5 10t15.5 -2q8 -8 11 -24.5t3 -32.5q0 -20 -2 -43q-6 -94 -45 -153.5t-75.5 -88.5t-57 -31z" />
<glyph unicode="-" d="M86 276q-4 4 2 15.5t15.5 23t17.5 19.5t12 8q8 -2 47 -1t82 2t81 4t44 7t2 -5t-14 -22.5t-22.5 -25.5t-20.5 -14q-10 -2 -48 -5t-81 -6.5t-79 -3.5t-38 4z" />
<glyph unicode="." horiz-adv-x="200" d="M33 90q0 25 10 39t23 25q14 10 32 16h14.5t20.5 -5t18.5 -16.5t8.5 -33.5q0 -23 -9.5 -38.5t-20.5 -23.5t-21.5 -11t-12.5 -3q-4 0 -14 -1t-21.5 3t-19.5 14.5t-8 34.5z" />
<glyph unicode="/" horiz-adv-x="626" d="M23 -121q2 10 31.5 78t74.5 164t97.5 208.5t100.5 214t83.5 177.5t48.5 100q16 35 46 72t55.5 63.5t39.5 34.5t0 -14q-10 -14 -44 -86t-80 -171t-98 -214t-98.5 -216.5t-80 -178t-41.5 -99.5q-6 -14 -29 -42.5t-47.5 -54.5t-43 -39t-15.5 3z" />
<glyph unicode="0" horiz-adv-x="495" d="M27 236q0 125 37.5 202.5t84 119.5t88.5 56.5t52 14.5q6 0 36.5 -1t63.5 -21.5t59.5 -70t26.5 -145.5q0 -100 -20.5 -168.5t-52 -115t-69.5 -72t-71 -37.5t-57.5 -15t-28.5 -3q-8 0 -32.5 3t-50 26.5t-46 75.5t-20.5 151zM100 297q0 -102 19.5 -154.5t44 -75t47 -24.5 t27.5 -2q4 0 29.5 3t56 34t55.5 103.5t29 213.5q2 66 -24 100.5t-56 51.5q-37 18 -84 18q-41 -4 -72 -33q-29 -25 -50.5 -79t-21.5 -156z" />
<glyph unicode="1" horiz-adv-x="247" d="M10 420q-2 4 16.5 23.5t41 42t44 42t25.5 23.5q10 10 22.5 26.5t25 31t21.5 21.5t13 -1q2 -6 1 -47t-4 -100.5t-7 -129t-9 -131t-9.5 -107.5t-6.5 -59q-4 -18 -19 -38.5t-30.5 -34t-26 -15.5t0.5 17q4 8 9 36.5t9 68.5t7 89t5 98q7 115 11 256q-16 -20 -39 -41.5 t-44.5 -39t-38 -26.5t-18.5 -5z" />
<glyph unicode="2" horiz-adv-x="458" d="M29 -12q-2 2 5 16t21.5 36.5t37 49.5t50.5 51q27 25 63 60t68.5 72.5t54 74.5t21.5 66t-14 58.5t-37 52t-54.5 33.5t-64.5 5q-35 -6 -53 -11t-27.5 -8t-12.5 -4t-9 3q-6 2 5 16t33.5 28.5t55.5 27t70 12.5t70.5 -13.5t58 -36t39 -50t12.5 -56.5t-14.5 -58.5t-29 -55 t-32.5 -47t-29 -36.5q-12 -14 -46.5 -49t-71.5 -71.5t-67 -66.5t-32 -36q92 4 166 8q63 2 114.5 2t53.5 -4q0 -4 -8 -13t-19.5 -19.5t-22.5 -18.5t-15 -10q-10 -4 -55.5 -2t-88.5 2q-23 0 -55.5 -2t-63 -3t-54.5 -2z" />
<glyph unicode="3" horiz-adv-x="538" d="M40 -237.5q5 8.5 15.5 19.5t23.5 20.5t21 13.5q4 2 33 7t67 15t82 26.5t80.5 38t61.5 50.5t25 65q0 55 -20.5 94.5t-52.5 64t-68 34.5t-66 10q-16 -2 -29 -2q-10 0 -19.5 -1t-9.5 1q10 33 53.5 57.5t91.5 47t84 46t31 54.5q-6 35 -28 61q-18 23 -54 43.5t-100 20.5 q-41 -4 -60.5 -7t-27.5 -6.5t-10 -4.5t-6 1t2 14.5t26.5 27t54 25.5t83.5 11q49 0 85.5 -13t60.5 -32.5t35 -43t11 -44.5q0 -27 -22.5 -60.5t-53 -63t-64.5 -50t-59 -20.5q51 -8 95 -31q37 -20 68.5 -57t39.5 -101q4 -43 -17.5 -84t-61.5 -78.5t-91 -69.5t-105.5 -55.5 t-107.5 -38t-94 -14.5q-8 0 -3 8.5z" />
<glyph unicode="4" horiz-adv-x="557" d="M18 82q-10 0 4.5 24.5t41 62.5t61.5 83t68.5 86t60.5 73.5t39 47.5q16 18 41.5 44.5t50.5 50.5t44.5 37t21.5 7q0 -4 -1 -25.5t-3.5 -54.5t-5.5 -74t-7 -84q-8 -100 -20 -225h59q23 0 42.5 -1t21.5 -3q0 -14 -16.5 -37.5t-35.5 -25.5q-10 -2 -23 -1t-24 1h-26 q-4 -82 -6 -148q-4 -55 -5.5 -103t-1.5 -55q0 -6 -10 -17t-22.5 -21.5t-23.5 -17.5t-13 -3t-1 61.5t5 126.5q4 82 8 183q-76 0 -141 2q-55 2 -107.5 3t-75.5 3zM94 147l252 -8l33 381z" />
<glyph unicode="5" horiz-adv-x="514" d="M43 238q8 197 46 285.5t124 88.5q27 0 58.5 -1t59 -2t48 -2t27.5 -1q12 0 26 4t14 -2q0 -10 -9 -21.5t-22.5 -20.5t-27.5 -15t-25 -6q-10 0 -32.5 1t-49 2t-51 2t-39.5 1h-8q-4 0 -12 -1t-18 -3q-8 -8 -14.5 -47t-10.5 -86q-6 -53 -10 -121h14h22.5t39.5 2q29 2 71.5 -3 t82.5 -22.5t68.5 -50.5t28.5 -86q-2 -88 -32.5 -153.5t-73.5 -112.5t-93 -78t-93 -47t-72 -22.5t-31 -4.5t3 11.5t14.5 18.5t20.5 17.5t17 10.5q55 10 104.5 33.5t87.5 60.5t59.5 89t21.5 120q-2 57 -27.5 88t-62.5 44t-80 15t-79 1t-60.5 0t-24.5 14z" />
<glyph unicode="6" horiz-adv-x="534" d="M20 168q0 129 32 226.5t79 167t103.5 115.5t105.5 72.5t82 36t37 7.5v-2l-7 -11q-6 -10 -15 -22.5t-20 -22.5t-24 -10q-76 -8 -129 -63.5t-88 -118.5q-41 -74 -67 -166q29 35 65 61q31 23 73 43.5t93 20.5t83 -28t49 -65.5t23.5 -78.5t6.5 -68q0 -86 -41 -139t-90 -82 q-57 -35 -131 -49q-61 -2 -111 14q-41 14 -75 50t-34 112zM90 254q-2 -63 17.5 -102t48 -60.5t60 -29t56.5 -7.5t52.5 7.5t52 22.5t40 42t15.5 68q0 45 -9 91t-29.5 81.5t-50.5 56t-73 16.5q-49 -6 -88 -28q-35 -18 -62.5 -55.5t-29.5 -102.5z" />
<glyph unicode="7" horiz-adv-x="563" d="M25 -213q0 4 20.5 40t51 90t70.5 123t81 138q96 164 217 371q-8 0 -41 -2t-78 -4t-96 -4t-96 -4.5t-76 -2.5t-37 3q-6 2 -1 10t16.5 19t22.5 19.5t17 10.5q12 4 36 2t65 -2q20 0 73.5 5t109.5 9t102 7t53 -3q6 -6 -23 -61t-76 -135t-104.5 -174.5t-109.5 -178t-90 -148.5 t-44 -83q-2 -6 -13.5 -18.5t-23.5 -21.5t-20 -12t-6 7z" />
<glyph unicode="8" horiz-adv-x="595" d="M39 160q0 55 29.5 100t64.5 78q41 37 96 70q-29 35 -51 71q-20 33 -35.5 72t-13.5 80q2 39 21.5 70.5t48 54t63.5 34t66 11.5t68.5 -10.5t70.5 -30t55.5 -49t22.5 -66.5t-32 -76t-69 -69q-43 -37 -98 -72q53 -23 94 -53q35 -27 66 -66t31 -90t-32 -93t-74 -70.5t-82 -45 t-56 -16.5q-14 0 -56 5t-86.5 21.5t-78 50t-33.5 89.5zM109 219q-10 -47 15.5 -77.5t65 -50t82.5 -29t72 -11.5q12 -2 33.5 3t41 18.5t34 35t14.5 54.5q-2 37 -36 75.5t-75 69.5q-47 37 -106 72q-6 0 -24.5 -7t-42 -25.5t-45 -49.5t-29.5 -78zM201 688q0 -53 18.5 -96 t40.5 -74q25 -37 59 -65q39 12 72 34q29 16 52.5 44t29.5 63q8 61 -31 91t-89 41t-94 10t-48 -1q-10 0 -10 -12v-35z" />
<glyph unicode="9" horiz-adv-x="514" d="M35 371q0 51 25.5 96t61.5 79t75 53t67 19q57 0 101.5 -13t56.5 -25q12 -16 22 -62q10 -39 19.5 -113.5t17.5 -199.5q6 -86 -9 -152.5t-45 -115t-69 -81t-79 -53.5q-98 -49 -228 -53q-10 0 -4 8.5t17.5 18.5t23.5 20t16 15q6 4 33 6t65 10t80 26.5t78 55.5q25 25 35.5 76 t14.5 102q4 59 0 127q-29 -37 -58 -63q-27 -23 -57.5 -40.5t-61.5 -13.5t-65.5 29t-64 61.5t-49 83.5t-19.5 99zM106 416q0 -25 11.5 -68t35 -84t59.5 -71.5t87 -30.5q20 0 37.5 15.5t31 37t20.5 45t7 41.5q0 14 -3 42t-9 59.5t-13.5 63.5t-15.5 52q-14 10 -37 19 q-18 6 -43.5 12t-60.5 6t-56.5 -13.5t-32.5 -33t-14.5 -44t-3.5 -48.5z" />
<glyph unicode=":" horiz-adv-x="200" d="M41 90q0 25 10 39t23 25q14 10 32 16h14.5t21 -5t18.5 -16.5t8 -33.5q0 -23 -9 -38.5t-20.5 -23.5t-22 -11t-12.5 -3q-4 0 -14 -1t-21.5 3t-19.5 14.5t-8 34.5zM41 438q0 25 10 39.5t23 24.5q14 10 32 16h14.5t21 -5t18.5 -16.5t8 -33.5q0 -23 -9 -38t-20.5 -23.5 t-22 -11.5t-12.5 -3q-4 0 -14 -1t-21.5 3t-19.5 14.5t-8 34.5z" />
<glyph unicode=";" horiz-adv-x="221" d="M-36.5 -195q-20.5 -2 9.5 21q31 23 50.5 65.5t29.5 89t12.5 86.5t0.5 58q-2 14 6 25.5t19 19.5t22.5 10t15.5 -2q8 -8 11 -24.5t3 -32.5q0 -20 -2 -43q-6 -94 -45 -153.5t-75.5 -88.5t-57 -31zM41 438q0 25 10 39.5t23 24.5q14 10 32 16h14.5t21 -5t18.5 -16.5t8 -33.5 q0 -23 -9 -38t-20.5 -23.5t-22 -11.5t-12.5 -3q-4 0 -14 -1t-21.5 3t-19.5 14.5t-8 34.5z" />
<glyph unicode="&#x3c;" horiz-adv-x="571" d="M45 299q-10 8 24.5 35.5t85 58.5t100.5 58.5t71 37.5q23 12 52.5 30t60 35t56 30.5t37.5 13.5q4 -12 -24.5 -34.5t-69.5 -47t-84 -46t-63 -32.5q-23 -10 -52.5 -27.5t-58.5 -33.5q-33 -20 -65 -41q100 -70 180 -127q33 -25 65.5 -48.5t59 -44t43 -33.5t18.5 -15 q4 -16 -10 -35t-37 -23q-6 -2 -25.5 9.5t-48 32t-63.5 46t-70 54.5q-82 65 -182 147z" />
<glyph unicode="=" horiz-adv-x="815" d="M49 254q-8 4 3 15.5t29.5 22.5t38 19t25.5 8q12 -2 57.5 -2h106h128t126 1t100.5 3.5t52 4.5q14 4 7 -5.5t-26.5 -22.5t-45 -25.5t-46.5 -12.5q-14 -2 -58 -3t-104.5 -3t-127 -3t-124 -1h-96.5t-45 4zM109 485q-8 4 3 14.5t29.5 21.5t37 19.5t26.5 8.5q12 -2 57 -2h105.5 t128 1t126 1t100.5 2t52 4q14 4 7 -5t-26.5 -22.5t-45 -26t-45.5 -12.5q-14 0 -59.5 -2t-105 -3t-126 -2t-123.5 -2t-96 1t-45 4z" />
<glyph unicode="&#x3e;" horiz-adv-x="600" d="M76 0q-6 12 21.5 36.5t67.5 51.5t81 51.5t63 36.5q23 12 50.5 31.5t56.5 38.5q31 23 65 47q-104 61 -186 115q-72 43 -129 81.5t-62 47.5q-6 14 3.5 34.5t31.5 24.5q6 2 25.5 -8t49.5 -28.5t65.5 -43t72.5 -49.5q87 -59 193 -135q12 -10 -20.5 -39t-81 -62.5t-97.5 -65.5 t-70 -44q-20 -12 -48.5 -31.5t-58.5 -39t-54.5 -34t-38.5 -16.5z" />
<glyph unicode="?" horiz-adv-x="479" d="M102 756q0 4 4.5 14t15.5 20.5t32.5 18.5t56.5 8t74 -14.5t71.5 -40t54 -59t21.5 -74.5q0 -51 -28.5 -90t-63.5 -67t-64.5 -42t-29.5 -16q-2 -2 -1 -25.5t3 -34.5q0 -6 -9.5 -16t-20.5 -19.5t-22.5 -16.5t-13.5 -7q-6 0 -7 5t-1 46q6 55 39 79t68.5 40t61.5 38.5t17 76.5 q-20 82 -63 117.5t-86 47t-76 9.5t-33 2zM143 121q0 25 10.5 40t24.5 25q15 11 35 17h12.5t21.5 -5t19 -17.5t8 -37.5q0 -23 -9 -38t-20.5 -24t-22.5 -13.5t-15 -4.5t-14.5 -1t-20.5 4.5t-19.5 17.5t-9.5 37z" />
<glyph unicode="@" horiz-adv-x="1107" d="M59 444q0 141 48.5 258t133.5 201t201.5 130t255.5 46q92 0 153.5 -31.5t100.5 -80.5t58.5 -108.5t28 -115t8.5 -100.5v-63q0 -43 -21.5 -114t-63.5 -136.5t-102.5 -113.5t-138.5 -48q-27 -6 -36 28.5t-8 82t8 92.5t15 61q-45 -66 -92 -119q-41 -45 -91 -81.5t-99 -36.5 q-35 0 -52.5 22.5t-25.5 50.5q-8 33 -8 74q14 117 51 209q16 39 38.5 77t55.5 67.5t75 48t97 18.5q63 -6 94 -15.5t43.5 -20.5t10.5 -22.5t-2 -21.5q-2 -6 -8.5 -43t-14.5 -87t-15 -107.5t-9.5 -105.5t3 -80t23.5 -32q27 0 63.5 20.5t69.5 60.5t55.5 99.5t20.5 137.5 t-20.5 165t-61.5 158.5t-113.5 115.5t-179.5 38q-109 -8 -197.5 -47t-153 -108.5t-100.5 -169t-34 -228.5t44 -225.5t103.5 -158.5t132 -90t132.5 -18q61 8 90.5 12.5t41 4.5t10.5 -3t-3 -7q-4 -4 -14.5 -16.5t-35 -25t-65.5 -19.5t-106 -3q-66 4 -135.5 34t-127 91 t-94.5 159.5t-37 239.5zM393 383q0 -23 3 -46.5t12.5 -42t26.5 -29.5t46 -11t73 48t84 113.5t64.5 133t16.5 108.5q-2 8 -23.5 23.5t-54.5 24t-72 2t-74.5 -39t-63.5 -101t-38 -183.5z" />
<glyph unicode="A" horiz-adv-x="778" d="M-31 0q0 2 18.5 47t49.5 115.5t70.5 160t82.5 181.5t86 178t81 150.5t66 98t42 23.5q12 -10 30.5 -55t39 -109.5t43 -144.5t43.5 -162q49 -190 102 -426q0 -4 -10.5 -16t-23.5 -24.5t-23.5 -18.5t-10.5 2t-11 57t-26 109q-16 68 -34 151l-426 -6q-6 -4 -23.5 -39.5 t-38 -81t-37 -85t-22.5 -50.5q-6 -10 -17.5 -22.5t-22.5 -20.5t-19.5 -12t-8.5 0zM190 377q18 -6 80 -6t127 4q78 4 172 8l-135 489q-70 -123 -123 -223q-23 -43 -45 -87t-38.5 -81t-27 -64.5t-10.5 -39.5z" />
<glyph unicode="B" horiz-adv-x="708" d="M34 48.5q3 17.5 5 33.5q6 51 13 131t14.5 168t13.5 178t11 163t8 119t3 50t10.5 16.5t22.5 24.5t23.5 20.5t11.5 3.5q2 -6 2 -16v-8q4 4 12 8t23.5 8t42.5 8q45 0 111.5 -9t127 -30.5t103.5 -55.5t43 -83q0 -59 -26.5 -109.5t-59.5 -88.5q-37 -45 -86 -82q61 -10 110 -33 q41 -20 76 -57t35 -99q0 -72 -24.5 -124t-66.5 -87t-95.5 -55t-108.5 -31.5t-110.5 -15.5t-98.5 -6q-20 -1 -37 -1q-39 0 -61 6q-32 9 -41.5 22.5t-6.5 31zM106 68q107 -19 198 -19q29 0 56 2q47 2 93.5 13.5t82 34t58 57t22.5 86.5q0 61 -34.5 101t-88 63.5t-115 34 t-114.5 13.5q-32 2 -58 2q-17 0 -32 -1q-37 -2 -39 -2zM139 508q59 0 132 4t137.5 23.5t108.5 60.5t44 113q0 35 -17.5 61.5t-45 47t-62.5 33.5t-71 21q-86 21 -197 21q-8 -92 -14 -170q-6 -66 -10.5 -129.5t-4.5 -85.5z" />
<glyph unicode="C" horiz-adv-x="686" d="M35 406q0 109 28.5 190.5t73.5 142t100.5 101.5t108.5 65.5t98 34.5t70 12t54.5 -2t56 -10t45 -13t20.5 -14q2 -4 -6 -14t-20.5 -19.5t-24.5 -17.5t-14 -10q-4 0 -11.5 5t-25 11t-47 13.5t-76.5 9.5q-47 0 -104.5 -21.5t-108.5 -73t-89 -133t-46 -202.5q-1 -18 -1 -35 q0 -64 18 -114q22 -62 59.5 -106t85 -72t92.5 -43t80.5 -20t52.5 -5q23 0 45 1t41 3q20 2 39 6q6 -4 -1 -13.5t-17.5 -19.5t-21.5 -19.5t-18 -11.5q-6 -4 -24.5 -5t-38.5 -3q-23 -2 -53 -2h-11q-112 0 -200 39q-39 18 -77 47t-66.5 72t-47 103.5t-18.5 142.5z" />
<glyph unicode="D" horiz-adv-x="747" d="M31 0q12 135 22 258q4 51 9.5 106.5t8.5 105.5t6 95t5 76q2 37 2 77t1 73.5t2 59.5t3 32q2 8 14.5 21.5t24.5 25.5t21.5 17t9.5 -5q0 -16 -2 -18q4 2 18 10t34.5 16t45 15.5t47.5 7.5q25 0 66 -9.5t89 -30t96 -55t87 -88.5t63 -126q22 -67 21 -153v-15 q-4 -145 -56.5 -243.5t-134 -159t-185 -86t-210.5 -25.5q-47 0 -69.5 -1t-30.5 0t-8 5v14zM102 49q50 -5 97 -5q96 0 178 22q51 12 101 37.5t89 66.5t62.5 101.5t23.5 144.5q0 111 -24.5 190.5t-63.5 135t-85 88t-87 50t-72.5 22.5t-41.5 5q-14 0 -34 -1t-37.5 -2t-31.5 -4 t-18 -9l4 -2z" />
<glyph unicode="E" horiz-adv-x="612" d="M20 37v11q0 27 2 61q2 41 4.5 81.5t4.5 59.5q2 18 8 79.5t13 133.5t13.5 139.5t10.5 99.5q2 23 5 49.5t4 51t3 43t6 26.5q6 16 26.5 27.5t41.5 22.5q12 6 50 9t86 4t101.5 1t95.5 -2t68.5 -6t24.5 -8q-10 -14 -31.5 -34t-36.5 -24q-6 -2 -56 1t-112 5q-60 2 -116 3h-16 q-43 0 -56 -5l-19 -153q-4 -33 -7 -68t-5 -63q-4 -35 -4 -68q25 2 51 4q23 2 51.5 3t59.5 3q29 0 62.5 2t61 2t46 -2t16.5 -6q-4 -8 -24.5 -30.5t-42.5 -26.5q-10 -2 -54.5 -2h-94.5t-93 1t-49 -1q-2 -45 -6 -94q-4 -41 -7.5 -90.5t-5.5 -90.5q-4 -20 -4 -41.5t-2 -38.5 q-2 -23 -2 -40q131 2 236 2h86h75.5t54.5 -1l21 -1q2 -2 -3 -10.5t-13 -19.5t-18.5 -20.5t-22.5 -11.5q-8 -2 -47 -3t-91.5 -1h-112.5t-110.5 1t-85 1t-36.5 2q-5 2 -5 33z" />
<glyph unicode="F" horiz-adv-x="626" d="M33 4q0 8 4 73.5t9 161t11 205t11.5 203.5t8.5 159.5t3 74.5q0 20 22.5 36.5t38.5 26.5q4 2 40 4t86 3t107.5 1t107.5 -1t84 -2t36 -3t-3 -10t-15.5 -17.5t-21.5 -19.5t-17 -14q-4 -2 -22.5 -3t-46 -2t-62.5 0t-72 1q-84 2 -190 4l-19 -385q11 -2 32 -2q15 0 37 1 q50 3 101 6t92 5t47 0t0 -10t-16 -17.5t-20.5 -18.5t-16.5 -11q-6 -4 -19.5 -5.5t-29.5 -2.5t-32.5 -1h-28.5q-14 -2 -38 -2t-48 -2q-29 -2 -62 -4q-6 -88 -12 -160q-4 -61 -8.5 -118.5t-6.5 -75.5t-13 -37.5t-24.5 -33t-23.5 -16.5t-10 9z" />
<glyph unicode="G" horiz-adv-x="698" d="M25 436q0 100 26.5 178t68.5 136.5t95 98.5t104.5 64.5t97.5 34.5t75 10q86 0 140 -9t64 -19q6 -6 -1 -14.5t-17 -17.5t-23.5 -16.5t-19.5 -11.5t-21.5 -1t-33 8.5t-33 11.5t-21.5 6q-2 0 -34 5q-15 2 -34.5 2t-41.5 -2q-45 -5 -98.5 -24.5t-99.5 -65.5t-81 -127 t-43 -208q-2 -25 -2 -47q0 -66 14 -116q17 -68 50.5 -115t79 -76t92.5 -43q76 -25 167 -25q44 0 91 6q6 8 9 59.5t4 109.5q1 30 1 57t-1 51q-1 49 -1 55t9 16.5t21.5 19.5t23 16.5t12.5 7.5q6 2 6 -51.5v-145.5q0 -45 -6.5 -92t-28 -85t-62.5 -62.5t-112 -24.5 q-72 0 -148.5 13t-141.5 59.5t-105.5 134.5t-40.5 239z" />
<glyph unicode="H" horiz-adv-x="700" d="M41 -8q0 2 5 69.5t13.5 167t17.5 214t17 215t13.5 169t7.5 74.5q0 8 11 21.5t23.5 22.5t22.5 12.5t10 -5.5q0 -4 -2 -25.5t-4 -53t-6 -71.5t-6 -79q-9 -94 -17 -209l435 2q8 102 16 189q2 37 5 72.5t6 66t4 53.5t1 31q0 14 10.5 24.5t22.5 16.5t22.5 7t10.5 -5 q0 -4 -2 -46t-7 -107.5t-10.5 -147.5t-11.5 -168t-13 -169t-13.5 -148.5t-11.5 -106.5t-9 -45q-14 -16 -35.5 -33.5t-25.5 -7.5q-2 2 -1 23.5t4 54t6 73.5t7 84q8 98 23 224l-439 2q-6 -106 -12 -193q-2 -37 -5 -72.5t-6 -65.5t-5 -50.5t-2 -24.5q-2 -10 -13.5 -21.5 t-24 -20.5t-22.5 -13t-10 0z" />
<glyph unicode="I" horiz-adv-x="212" d="M57 -14q0 2 4.5 63.5t10.5 154.5t14 202.5t15.5 211t12.5 177t5 102.5q0 6 10 16.5t21.5 19.5t21.5 16t14 5q3 -1 3 -31q0 -15 -1 -37q-2 -66 -8 -163.5t-14 -212.5t-16.5 -215t-14.5 -169t-6 -77q0 -10 -11.5 -22.5t-24.5 -22.5t-24.5 -16t-11.5 -2z" />
<glyph unicode="J" horiz-adv-x="591" d="M31 23q2 2 10 12t19.5 20.5t21.5 17.5t14 7t36 -3q24 -2 52 -2h20q40 1 77.5 9t56.5 31q16 20 30.5 56t24.5 76t17.5 81t11.5 71q2 18 7 63.5t11 103t13.5 121t13.5 116.5t10 89t6 40q2 6 11.5 15t20.5 18.5t21.5 14.5t10.5 3q2 -4 1 -36t-6 -77t-10.5 -98t-10.5 -100 t-9 -83t-6 -46q-12 -111 -23.5 -171.5t-15.5 -72.5q-6 -25 -17.5 -73t-46 -97t-101 -87t-179.5 -38h-24q-45 0 -57 6q-15 8 -11 13z" />
<glyph unicode="K" horiz-adv-x="645" d="M35 20q0 12 4 56.5t9 109t10 144.5t12 159q12 189 28 422q4 6 15.5 18.5t24 24t22.5 15.5t10 -4q0 -4 -2 -25.5t-4 -52.5t-5 -69t-5 -77q-8 -92 -17 -206q39 14 78 34q35 16 73 42t72 59q33 33 76 85t83 99t67.5 78t31.5 18q2 -8 -19 -38.5t-56 -73.5t-79 -91.5 t-88 -91.5t-85 -74.5t-70 -39.5q31 -6 74 -42t89 -88.5t91 -112.5t79 -112.5t55.5 -89.5t19.5 -43q-2 -10 -11.5 -19t-20.5 -17.5t-21.5 -13.5t-16.5 -3q-4 0 -27.5 38t-61.5 93t-84 118.5t-91 117t-87 87.5q-38 30 -65 29h-6q-4 -49 -7 -117.5t-6 -134t-7 -118t-13 -68.5 q-8 -16 -20 -30.5t-23.5 -20.5t-19.5 -1t-6 27z" />
<glyph unicode="L" horiz-adv-x="589" d="M31 92q2 68 10 164t18.5 206.5t21.5 205t19.5 161t10.5 72.5q4 10 15 21.5t23.5 19.5t21.5 11t9 -3q0 -4 -7 -70.5t-16.5 -164t-19.5 -210t-18 -207.5q-7 -96 -11 -160q-1 -27 -2 -42q0 -23 3 -24q3 -8 37 -10q21 -1 47 0h39q52 1 109.5 4.5t107 6.5t81 4t29.5 -3 q-4 -10 -23.5 -31t-29.5 -25q-125 -10 -225 -16q-43 -2 -85 -3q-21 0 -40 -0.5t-36 0.5q-34 1 -57.5 4t-27.5 11q-5 8 -5 48q0 13 1 30z" />
<glyph unicode="M" horiz-adv-x="1005" d="M18 -6q0 4 11.5 60.5t30 139t40 181t41 187.5t31.5 155.5t14 87.5q2 45 14.5 75.5t29 46t35 15.5t30.5 -16q8 -12 22.5 -53.5t32 -100.5t34.5 -131t36 -145q41 -172 88 -381q90 236 172 422q35 80 73 155.5t74.5 135t70.5 96.5t63 37q2 -33 3 -111t2 -175t1 -203.5 t-1 -196t-2 -149.5t-3 -67l-35 -34q-14 -12 -24.5 -19.5t-10.5 2.5q0 4 -1 43t-1 100.5v137.5v155v418q-49 -98 -88 -180q-35 -72 -67 -136.5t-40 -84.5q-6 -14 -20.5 -52t-32.5 -87.5t-42 -102.5t-46.5 -99t-43 -76t-36.5 -32h-1q-16 0 -34 54q-20 56 -39.5 143.5t-40 190 t-40 191.5t-37 149.5t-29.5 64.5q-6 -35 -20.5 -98.5t-32 -140.5t-36 -157.5t-33.5 -148t-26.5 -115t-11.5 -55.5q-4 -23 -5 -38t-19 -32q-16 -16 -33 -28t-17 2z" />
<glyph unicode="N" horiz-adv-x="757" d="M31 4q0 6 1 30.5t2 56.5t3 65.5t4 56.5t11 82t18.5 123.5t17.5 121t10 74.5t3 60.5t3 86.5t5.5 80t7.5 40t13 15t19.5 19.5t20.5 11.5t16 -9q2 -8 33 -65.5t76 -141.5t97 -180.5t98.5 -179.5t80 -139t41.5 -60q12 139 21 254l8 98t7 92t5 74.5t2 46.5v60.5v58t2 45 t7 22.5q4 4 15 17.5t23.5 23.5t21.5 13.5t9 -11.5q0 -10 -4 -78.5t-10 -167t-13.5 -210t-13.5 -209t-10 -165t-4 -75.5q0 -12 -9.5 -24.5t-20.5 -19.5t-23.5 -11t-18.5 -2q-4 0 -23.5 32.5t-50 86t-69.5 121t-78 136.5q-94 164 -209 373q-16 -121 -31 -219q-6 -43 -12 -85 t-10 -78t-8 -62.5t-4 -36.5q-2 -23 -4.5 -52.5t-3.5 -59t-3 -54.5t-2 -33q0 -10 -11 -20t-23.5 -19.5t-22.5 -12.5t-10 3z" />
<glyph unicode="O" horiz-adv-x="864" d="M27 432q0 72 18 163t72.5 171t153.5 134t261 54q96 0 157 -46t94.5 -111.5t45 -137t11.5 -120.5q0 -61 -18.5 -154.5t-63.5 -182.5t-122 -152.5t-196 -63.5t-197.5 47t-126.5 115.5t-68.5 146.5t-20.5 137zM94 457q0 -90 38 -168t96 -135q60 -56 126 -86q55 -25 105 -24 q10 0 20 1q37 4 86 23.5t93 69.5t75 137t31 229q0 70 -12.5 124t-33 95t-45 68.5t-50.5 46.5q-61 43 -140 53q-70 0 -139.5 -34t-124.5 -92t-90 -138t-35 -170z" />
<glyph unicode="P" horiz-adv-x="710" d="M33 4q0 6 4 46l9 90t10 98.5t7 70.5q2 14 4.5 60.5t7.5 106t9 126t9 122.5t9 97t7 49q2 12 16 27.5t27.5 25t21.5 8.5t2 -24q23 19 69 31q42 11 92 11h9q55 -1 114.5 -13t108.5 -40t82 -70t37 -99q0 -98 -55 -168t-131 -113t-154 -60q-63 -14 -103 -14q-9 0 -18 1 q-31 4 -48 6t-27 6t-17 8q-6 -92 -12 -166q-4 -63 -11.5 -117.5t-11.5 -60.5q-6 -6 -17 -16t-22.5 -19.5t-19.5 -12.5t-8 3zM147 504q12 -20 35 -35q18 -14 51 -24.5t80 -10.5t101.5 16.5t99.5 47t74.5 72.5t29.5 92q0 49 -28.5 91t-74.5 73.5t-104.5 49t-117.5 17.5 q-51 -2 -74.5 -4t-34.5 -6q-10 -4 -10 -11z" />
<glyph unicode="Q" horiz-adv-x="884" d="M27 324q0 121 48 235.5t123.5 203.5t169 143.5t183.5 54.5q86 0 154 -48q29 -20 57.5 -52t50 -80t34.5 -114.5t13 -154.5q0 -117 -47 -207t-102 -151q-68 -72 -150 -123q61 -14 111 -51q41 -33 75.5 -93.5t34.5 -165.5q0 -12 -8 -23t-19.5 -20.5t-22.5 -13.5t-17 0 q-4 2 -4 25.5t-6.5 58.5t-22.5 75t-52 73.5t-96.5 56t-152.5 22.5q-100 12 -178 54q-33 18 -65 43.5t-56.5 60.5t-39.5 82t-15 109zM106 438q0 -102 31 -177t76 -123t97 -71.5t93 -23.5q39 0 103.5 23.5t126 76t106.5 135t45 203.5t-29.5 201t-74.5 127t-100 63 q-36 12 -71 12q-17 0 -34 -3q-39 -4 -101.5 -35t-121.5 -88.5t-102.5 -137.5t-43.5 -182z" />
<glyph unicode="R" horiz-adv-x="651" d="M37 -18q0 2 3 68.5t7 163.5t9 211t10.5 212t8.5 165.5t3 71.5q2 6 15 20.5t36 28t53.5 24.5t67.5 11q31 0 91 -11t121.5 -34.5t108.5 -61.5t54 -89q1 -8 1 -17q0 -43 -26 -91q-31 -56 -74 -103t-85 -78t-58 -31q61 -12 109.5 -72.5t80 -130t47.5 -129.5q15 -53 15 -65 q-1 -9 -13 -23q-10 -12 -21 -21t-22.5 -14t-13.5 -1q-2 2 -10 33.5t-22.5 75.5t-36 96.5t-54 96.5t-75.5 72.5t-99 28.5q-34 -1 -58 -1h-22q-28 1 -43.5 3t-19.5 4t-4 4q0 -6 -2 -61t-4 -120.5t-5.5 -121t-3.5 -63.5q-2 -6 -13 -16.5t-23.5 -19.5t-22.5 -14.5t-10 -0.5z M123 544.5q0 -28.5 1 -47t3 -20.5q8 -7 55 -19q26 -6 63 -7q29 0 64 4q39 4 84 27.5t83 60.5t60 82q19 38 20 78q0 7 -1 14q-4 47 -45 79.5t-102.5 53t-135.5 26.5q-38 3 -74 4q-34 0 -67 -3q-4 -109 -6 -195q0 -37 -1 -73t-1 -64.5z" />
<glyph unicode="S" horiz-adv-x="655" d="M53 0q-8 4 0 10q10 14 21 27q10 10 21 18t22 8q6 0 41 -4t83 -4t101 6.5t99 24.5t76 52t30 89t-33 97.5t-81 77t-104.5 65.5t-104.5 64.5t-80.5 73.5t-32.5 91q0 78 47 127t105.5 77t111.5 38t67 10q30 3 58 3h14q35 -1 62.5 -5t43 -9t13.5 -9q-6 -10 -29 -31t-33 -27 t-58 6q-41 11 -98 11h-18q-35 0 -72.5 -8.5t-69.5 -23.5t-53.5 -38.5t-21.5 -56.5q0 -57 33 -97t82 -73t106.5 -61.5t105.5 -63.5t81 -82q30 -43 30 -102v-11q0 -86 -45 -140t-111.5 -85t-145 -43t-146.5 -12q-59 0 -84 3t-33 7z" />
<glyph unicode="T" horiz-adv-x="645" d="M-6 885.5q6 11.5 20.5 24t31.5 22.5t28 10q6 0 52 1t111.5 1t141.5 1h73h66q64 -1 105 -2t41 -3q-2 -4 -10.5 -14.5t-18.5 -20.5t-20.5 -17t-18.5 -7h-236q-16 -221 -32 -398q-6 -76 -13.5 -148.5t-14.5 -131t-13 -95t-13 -42.5q-10 -12 -22 -23.5t-22.5 -19t-16.5 -9.5 t-6 4q0 4 7 50.5t16.5 119t19.5 163.5t19.5 185.5t15.5 183.5t8 159q-72 -2 -131 -2q-51 -2 -98.5 -2.5t-61.5 -0.5t-8 11.5z" />
<glyph unicode="U" horiz-adv-x="780" d="M33 377q0 86 2 176t6 166t9 126t9 56t15.5 18.5t23 23.5t20.5 15.5t9 -6.5v2q0 -2 2 -4v-8q0 -20 -6 -76q-9 -70 -15 -168q-4 -58 -3 -120q-1 -42 1 -88q4 -110 29 -203.5t78 -157t147 -66.5h12q88 -1 145 57q61 62 94.5 154.5t45 202t13.5 205.5q1 48 1 88.5t-1 73 t-1 50t1 19.5q4 6 15 18.5t23.5 23t21.5 15.5t9 -3q0 -4 4.5 -48.5t6.5 -112.5q1 -21 1 -44q1 -51 -3 -111q-4 -86 -19.5 -176t-47.5 -175t-85 -151.5t-132 -107.5t-190 -41q-117 0 -179 102.5t-62 274.5z" />
<glyph unicode="V" horiz-adv-x="827" d="M61 926q0 6 10.5 18t22.5 23.5t23.5 16.5t15.5 -7q0 -6 10.5 -45t25.5 -99.5t34.5 -135t40.5 -152.5q47 -183 106 -408q94 215 174 387q33 74 66 145.5t60.5 129t48 95.5t26.5 46q43 40 55 40q4 0 4 -5q0 -4 -29.5 -77t-76.5 -180.5t-104.5 -231.5t-111.5 -230 t-98.5 -177t-64.5 -71q-2 0 -13.5 38t-28.5 100.5t-37.5 142.5t-43 165t-43 166.5t-36 147.5t-26 109t-10.5 49z" />
<glyph unicode="W" horiz-adv-x="1273" d="M47 905q-8 12 1 26.5t24.5 25t29 14.5t15.5 -2q0 -4 8 -41t21.5 -96.5t30 -134t32.5 -150.5q39 -180 88 -408q80 182 143 328q27 61 53.5 121.5t47 108.5t34 80t15.5 38q2 10 7 28.5t14.5 37t24.5 33t40 16.5q2 0 13 -34t26.5 -89t35 -126t37.5 -144q45 -172 101 -394 q90 211 162 383q31 72 59.5 142.5t52 127t36.5 93.5t13 41q0 10 10.5 22.5t24 19.5t22.5 8t7 -13q-2 -10 -28.5 -86t-66.5 -184.5t-88.5 -231.5t-95.5 -223t-86 -162q-31 -49 -52 -50q-5 0 -9 3q-16 8 -33.5 46t-36 93t-36 122.5t-33.5 137.5q-37 162 -76 363 q-74 -184 -141 -340q-29 -66 -60 -132.5t-59.5 -125t-53 -103.5t-42.5 -65q-10 -8 -19.5 -15.5t-17.5 -5.5q-4 0 -17.5 65.5t-33 162t-43 210t-44 213t-36 169t-21.5 77.5z" />
<glyph unicode="X" horiz-adv-x="813" d="M51 5.5q10 21.5 34 57t55.5 84t66.5 97.5q82 117 190 266q-59 104 -106 186q-20 35 -39 69t-34 61.5t-23.5 45t-8.5 19.5q0 4 10.5 16.5t22.5 23.5t22.5 18t14.5 1q2 -4 11 -20.5t23.5 -43t32 -58t35.5 -64.5l99 -176q88 109 159 190q31 35 62 68t55.5 57.5t42 37.5 t21.5 9t-16.5 -32.5t-55.5 -69.5t-76 -89t-79 -90t-64.5 -74t-30.5 -38q2 -8 24.5 -46t52.5 -89t64.5 -111.5t64.5 -112t49.5 -89t19.5 -46.5q0 -12 -8.5 -23t-18.5 -19.5t-20.5 -13.5t-12.5 -5t-15 20.5t-32.5 54.5t-44.5 76t-49 87q-59 104 -133 239q-90 -135 -166 -243 q-33 -47 -64.5 -91.5t-58.5 -79t-47.5 -56t-28.5 -23.5q-10 -2 0 19.5z" />
<glyph unicode="Y" horiz-adv-x="684" d="M20 899q2 14 13.5 26.5t24 20.5t22.5 12.5t10 2.5t16.5 -42t41 -98.5t53 -128t55.5 -129t47.5 -100.5t28.5 -45q4 2 23.5 43t48 100.5t62.5 129t69.5 129t69.5 99t61 42.5q-18 -31 -34 -56.5t-30 -49.5t-29.5 -47.5t-33.5 -53.5q-8 -12 -24.5 -46t-38 -77t-44 -90 t-43 -86t-36 -65t-19.5 -28q-2 -82 -6 -149q-4 -57 -6.5 -106.5t-4.5 -57.5t-13 -19.5t-24.5 -21.5t-23.5 -15t-10 1q0 2 1 19.5t2 44t2 58t3 64.5q4 78 10 176q-72 143 -125 258q-23 49 -45 97.5t-38.5 87.5t-27 66.5t-8.5 33.5z" />
<glyph unicode="Z" horiz-adv-x="753" d="M53 20q-4 4 19.5 44t64.5 103.5t93.5 142.5t108.5 161t109.5 160t94.5 139t64.5 99t19.5 38t-40 -3t-88.5 -7t-111.5 -9t-109 -8q-38 -2 -67 -2h-17q-34 1 -34 7q0 12 12 36.5t45 24.5q10 0 48 2t88 4t107.5 6.5t106.5 6.5t85 4t44 2q6 0 -15.5 -38t-60 -99.5t-91 -140.5 t-107.5 -161.5t-108.5 -162.5t-95.5 -143.5t-67.5 -103.5t-25.5 -42q0 -10 60.5 -19.5t156.5 -9.5q49 0 106.5 2t108.5 3t88 3t45 2q16 0 5 -12t-36 -35q-12 -12 -58 -17t-105.5 -8t-120 -3h-99.5t-74.5 2t-66.5 7t-52.5 11t-29.5 14z" />
<glyph unicode="[" horiz-adv-x="540" d="M54 92q1 88 9.5 205t24.5 249t41 273.5t59 278.5q12 33 27.5 48t32 19t33 1t28.5 -5q14 -2 35 -4t40 -4t36.5 -4t28.5 -2l12 -2l8 -2l-92 -64q-35 6 -64 13q-25 4 -46 8t-25 2q-2 0 -11.5 -50.5t-21.5 -131t-25.5 -184t-26 -211t-21.5 -211t-11 -185.5t3 -132t22 -52 q33 -4 69.5 0t67 8t50 4t17.5 -12q-8 -25 -28.5 -41.5t-38.5 -16.5q-8 0 -39 -3t-67 -4t-67.5 0t-41.5 9q-10 6 -14.5 60.5t-3.5 142.5z" />
<glyph unicode="]" horiz-adv-x="507" d="M55 -49q0 23 28 33t58 8q14 0 37 1t43.5 2t35.5 3t17 4q0 2 6.5 51t16.5 129t21.5 181.5t22.5 208t22.5 209t18.5 183t10 131t1 54.5q-6 6 -36.5 4t-67.5 -6t-69 -8t-40 -2q-12 4 -1 15t36 24.5t57.5 23.5t63.5 12q33 2 57.5 5.5t41 3.5t24.5 -6.5t6 -26.5 q-2 -10 -5 -63.5t-8.5 -135.5t-12.5 -183t-16 -207.5t-21.5 -210t-26 -188.5t-29.5 -144.5t-35 -75.5q-37 -35 -82 -48.5t-82.5 -12.5t-64.5 10.5t-27 21.5z" />
<glyph unicode="_" horiz-adv-x="1024" d="M184 14q-8 4 3.5 15.5t30 22.5t38 19.5t25.5 8.5q12 -2 57 -2h105.5h128t126 1t101.5 3t53 4q14 4 6 -5t-27.5 -22.5t-45 -26t-46.5 -12.5q-14 -2 -58 -3t-104.5 -3t-127 -3t-124 -1h-96.5t-45 4z" />
<glyph unicode="`" horiz-adv-x="292" d="M-31 965q-8 6 2.5 7t27.5 -3t35.5 -11.5t26.5 -17.5q8 -12 41 -57t70 -96.5t65.5 -95.5t28.5 -50t-13 -6t-28.5 4t-29 10.5t-15.5 12.5q-6 10 -35.5 57t-66.5 99t-69 96t-40 51z" />
<glyph unicode="a" horiz-adv-x="512" d="M18 207q0 106 40 183t93.5 124t108.5 69.5t84 22.5t53.5 -4t42.5 -8q23 -6 39 -12q-8 -80 -14 -148q-6 -59 -10 -115.5t-4 -78.5v-168q0 -10 -10.5 -21.5t-24 -19.5t-24.5 -13.5t-13 -1.5v32v64.5t1 65.5t1 37q0 -6 -8 -21.5t-22.5 -37t-34 -46t-42.5 -47.5t-40 -35 t-31.5 -17t-26.5 -5t-24 4q-23 4 -45.5 20.5t-43 43t-33 60.5t-12.5 73zM92 242q0 -14 7 -42t25.5 -55.5t48.5 -49t75 -21.5q16 8 32.5 31.5t30 56.5t26.5 71.5t23 77.5q25 92 48 205v4q-45 16 -86 23q-15 2 -30 2q-23 0 -47 -4q-40 -6 -71 -37t-47 -71t-24.5 -78 t-9.5 -68.5t-1 -44.5z" />
<glyph unicode="b" horiz-adv-x="591" d="M27 70q0 35 7 106.5t16 158.5t21.5 179t21.5 169t16.5 127t7.5 56t10 17.5t23.5 20.5t24.5 15.5t13 4.5q0 -2 -2 -23.5t-6 -55.5t-9 -77t-11 -88q-14 -104 -35 -238q68 68 122 102t95 48q42 14 76 14h8h10q33 0 62 -12q27 -14 49 -47t22 -101q0 -96 -22.5 -174.5 t-62.5 -137t-92 -90.5t-109 -32q-117 0 -185.5 8.5t-70.5 49.5zM98 130q2 -38 19 -38q14 0 59 -4q46 -4 96 -5h13q43 -1 84 5q47 6 65 27q12 12 26.5 49t24 84t12.5 99q1 14 1 27q0 37 -6 68q-8 43 -31 71t-64 28q-61 0 -112.5 -19.5t-88 -45t-58 -53.5t-21.5 -44 q0 -18 -6.5 -65.5t-10.5 -96.5q-3 -33 -3 -60q0 -14 1 -27z" />
<glyph unicode="c" horiz-adv-x="491" d="M27 260q0 80 28.5 145.5t71.5 112.5t95 73.5t102 26.5q47 0 74.5 -1t41 -3t16.5 -3t3 -3l-7 -10q-8 -10 -18 -20.5t-22.5 -19.5t-24.5 -9q-10 0 -39 3t-61.5 3t-63.5 -3t-47 -15q-8 -6 -21.5 -24.5t-25.5 -45.5t-21.5 -62.5t-9.5 -78.5t13.5 -92.5t39 -90.5t61.5 -68.5 t79 -27.5q16 0 28.5 3t20.5 7t14 9l33 28q12 10 22.5 17.5t14.5 3.5q2 -2 -2 -9q-4 -4 -12.5 -14t-24.5 -26q-35 -33 -75 -56.5t-81 -23.5q-20 0 -55 13t-67.5 45t-56 85t-23.5 131z" />
<glyph unicode="d" horiz-adv-x="632" d="M25 205q0 96 27.5 165.5t68.5 117t91 76t96 44t81 20.5t47 5q18 0 33.5 -7.5t28.5 -15.5q14 -10 26 -22q2 68 6 123q4 47 6.5 89t2.5 48t10 15t22.5 18.5t23.5 16.5t15 7q2 0 0 -52t-7 -132t-12 -176t-14.5 -183.5t-12.5 -153t-5 -83.5q-2 -29 -5 -42t-8 -19.5 t-12.5 -11.5t-15.5 -13q-18 -16 -26 -16q-4 0 -7 4q0 8 2 28q0 16 1 44t1 73q-59 -61 -111 -92t-91 -43q-45 -14 -82 -14q-51 2 -90 24q-35 16 -62.5 54t-27.5 104zM96 268q0 -4 3 -32.5t18.5 -62.5t48.5 -61.5t92 -27.5q57 0 100 18.5t71 41t43.5 44t19.5 25.5 q11 65 11 122q0 28 -3 54q-4 33 -13.5 64.5t-28 57.5t-48 41t-72.5 15q-59 0 -100 -21.5t-69 -54t-42 -70.5t-21.5 -72t-8.5 -56.5t-1 -24.5z" />
<glyph unicode="e" horiz-adv-x="587" d="M23 246q0 37 18 98.5t59 119.5t103.5 100t152.5 42q66 0 105 -17.5t58.5 -39t25.5 -40t6 -20.5q-16 -57 -70 -100q-47 -39 -137 -69.5t-250 -30.5q6 -66 33 -117q23 -43 70 -79t133 -36q37 0 64.5 11.5t48 26t33.5 24.5t18 8q6 -2 -9.5 -23.5t-47 -46t-79 -44 t-104.5 -19.5t-100 25.5t-73 63.5t-44 82t-14 81zM96 350q0 -2 29 -1t71 5t92 10.5t92 15.5t70.5 21.5t28.5 26.5q0 41 -51 78t-162 37q-55 0 -88 -29t-51 -64.5t-24.5 -66.5t-6.5 -33z" />
<glyph unicode="f" horiz-adv-x="368" d="M-20 -281q-2 4 7 13.5t19 19.5t20.5 18.5t12.5 10.5q14 14 29.5 63.5t26.5 104.5t18.5 102t7.5 58q0 6 2 40.5t5 83t6 102.5t6 100t4 76l1 30l-21 -1q-22 -1 -46.5 -1t-45 1t-20.5 5q0 14 23.5 30.5t30.5 22.5q8 4 47 4h43q0 82 19.5 137.5t49 91t64.5 55t66.5 29 t54 10.5t26.5 1q6 0 3 -5.5t-11 -13.5t-17.5 -16t-15.5 -14t-9 -9.5t-10 -3.5h-20.5h-40.5q-29 0 -46 -41t-27 -88q-12 -57 -21 -129q37 0 70 2q27 2 51.5 3t32.5 1t2 -8t-17.5 -18.5t-23.5 -20.5t-14 -12q-4 -4 -21.5 -6t-36.5 -2q-23 -2 -49 0q-2 0 -4 -37 q-4 -31 -7 -103.5t-9 -211.5q0 -154 -34 -246t-75 -144q-47 -59 -106 -84z" />
<glyph unicode="g" horiz-adv-x="661" d="M39 -98q0 33 14.5 55.5t31.5 36.5t32.5 20t17.5 6q4 0 3 -6t-27 -30q-12 -12 -2 -50t36.5 -78t65.5 -72t82 -32t87 22.5t80 54.5t57.5 67.5t21.5 64.5q-2 27 -29 40t-67 21.5t-86 12.5t-86 13t-66.5 23.5t-26.5 43.5q0 20 9.5 40.5t21.5 39.5q12 20 31 41q-35 6 -60 24 q-23 16 -41 45t-18 76t25.5 93t66.5 83t89 59.5t95 22.5t77 -18.5t46 -40.5q20 -27 31 -60q-2 4 10 10.5t27 14.5l37 20q0 -61 -15.5 -107t-41 -81t-57.5 -59.5t-65 -41.5q-78 -37 -176 -45q-6 -10 -10 -18q-10 -16 -10 -43q0 -29 26.5 -42t66.5 -19.5t86 -9.5t86 -11 t66.5 -25.5t26.5 -52.5q0 -43 -40 -98t-97 -104.5t-119.5 -83t-107.5 -33.5q-47 0 -84 20.5t-64.5 52t-42 68.5t-14.5 70zM190 438q0 -43 16.5 -69.5t37.5 -42.5q23 -18 53 -27l184 166q-8 31 -28 55q-16 20 -45 37.5t-76 17.5t-76 -14t-43 -35.5t-18.5 -45.5t-4.5 -42z M324 293q29 -2 55 0q23 2 48.5 9.5t43.5 27.5q10 10 14 28.5t4 36.5q0 23 -4 45z" />
<glyph unicode="h" horiz-adv-x="534" d="M25 14q0 6 5 68.5t11 152t15.5 193.5t15.5 193.5t11 152t5 68.5q0 18 19.5 41.5t31.5 17.5q2 -2 2 -23.5t-1 -55.5t-4 -77t-5 -88q-8 -104 -18 -235q39 51 80 92q35 35 79.5 64.5t92.5 31.5q45 0 71.5 -37.5t39.5 -96t15 -126.5q1 -34 1.5 -67t-1.5 -63q-2 -62 -6 -105 t-4 -52q0 -12 -9 -23t-21.5 -20.5t-23.5 -15.5t-13 -6t1 40t5 102q1 31 1 63.5t-1 68.5q-2 70 -13.5 131.5t-34 102.5t-61.5 41q-53 0 -90 -34t-63.5 -85t-42 -111.5t-24.5 -113.5t-12 -90t-3 -43q0 -8 -8.5 -21.5t-17.5 -24t-17 -15.5t-8 5z" />
<glyph unicode="i" horiz-adv-x="225" d="M37 12q4 4 8 44t10 97.5t11.5 125t9.5 127t7 100.5t3 47q0 4 9 14.5t19.5 19.5t21.5 16t18 7q4 0 3 -37.5t-5.5 -95t-10.5 -125t-12 -128t-11 -103.5t-5 -49q-2 -12 -15.5 -24.5t-29 -22t-26.5 -13.5t-5 0zM88 760q-4 4 3 13t19.5 19.5t24 18.5t15.5 10q16 4 36 -4 q4 -4 -2 -11t-15 -16.5t-19.5 -17.5t-12.5 -10q-4 -4 -19.5 -5t-29.5 3z" />
<glyph unicode="j" horiz-adv-x="256" d="M-70.5 -280.5q7.5 8.5 21.5 20.5t28.5 25.5t20.5 23.5t23.5 54t38 136.5t37 238t22.5 360.5q0 10 11 21t23.5 20.5t23.5 12.5t11 -3q0 -4 -2 -74t-10 -171t-24.5 -220t-45 -219.5t-71.5 -167t-105 -66.5q-10 0 -2.5 8.5zM121 774q-4 4 4 13.5t19.5 20.5t22.5 19.5t15 8.5 q6 2 17.5 1t21.5 -3q2 -4 -4 -12.5t-15 -17.5t-18.5 -17.5t-11.5 -10.5q-4 -4 -20.5 -5t-30.5 3z" />
<glyph unicode="k" horiz-adv-x="503" d="M18 113q0 8 5.5 20t13.5 24.5t14 21.5t10 9q2 0 5.5 51.5t6.5 130.5t6 170t5 169.5t3 134t1 59.5t8 8t19.5 6.5t20.5 1.5t9 -6q0 -2 -2 -32.5t-4 -77.5t-6 -107.5t-6 -124.5q-8 -147 -16 -333q23 16 45 30q18 10 37.5 20.5t35.5 10.5q14 12 52 59.5t80 99.5t77 92t47 38 q4 0 -3 -12.5t-22.5 -33t-36 -45t-40.5 -51.5q-51 -61 -117 -139q16 -2 33 -8q33 -10 59 -35q12 -12 36 -44t44.5 -66.5t30.5 -65.5t-2 -43q-23 -23 -43.5 -39t-20.5 -8q0 4 -14 43t-39.5 83t-61.5 81t-79 37q-14 -14 -31.5 -30.5t-34.5 -31.5q-18 -18 -37 -35v-51 q0 -20 -1 -39.5t-3 -23.5q-4 -10 -24.5 -12.5t-20.5 1.5v93q-12 -6 -20 -9q-18 -4 -19 9zM109 172l67 68q-14 -4 -26 -9l-22.5 -9t-18.5 -15v-35z" />
<glyph unicode="l" horiz-adv-x="186" d="M25 16q0 2 4 64.5t10 155t13 200t13.5 201.5t10.5 159.5t4 73.5q0 10 10 22.5t22.5 22t23.5 12.5t16 -3q1 -1 1 -7q1 -13 -3 -57q-4 -62 -10.5 -157t-13.5 -204.5t-14.5 -203.5t-11.5 -158.5t-4 -66.5q-2 -6 -13 -17.5t-15 -15.5q-2 -2 -9.5 -7t-14.5 -10.5t-13 -6.5 t-6 3z" />
<glyph unicode="m" horiz-adv-x="940" d="M46 14.5q1 12.5 2 27.5t3 31.5t2 26.5t6.5 60.5t13.5 109t13 109.5t6 63q0 25 -5 62t-7 49q10 16 22 29q10 10 21.5 18t21.5 8q10 -2 12.5 -29.5t2.5 -62.5q0 -39 -2 -90q27 55 61 98q29 37 72 68t98 31q35 0 58.5 -20.5t38 -50.5t20.5 -63.5t9 -60.5t2 -41t-1 -4 q0 14 21.5 51t56.5 76t78 69.5t84 30.5t69.5 -22.5t46 -57t25.5 -81t8 -91.5t-4 -90t-10 -85t-10 -70.5t-4 -46.5t-9.5 -31t-21.5 -25t-23.5 -15t-13.5 -5q-4 0 0 39t10 91t11.5 103t5.5 74t-5.5 64.5t-20.5 82.5t-44 72t-76 31q-31 0 -57.5 -33t-47 -84t-35.5 -111.5 t-25.5 -113.5t-15.5 -93t-5 -51q0 -14 -9.5 -26t-20.5 -21.5t-22.5 -15.5t-15.5 -8t-4 11t2 32.5t4 44t2 45.5q0 12 2 50t3 86v24q0 37 -2 77q-3 54 -15 98t-35.5 72.5t-60.5 28.5q-39 0 -70 -33.5t-54.5 -86t-39.5 -114t-27.5 -116.5t-16.5 -94t-5 -47q0 -10 -10.5 -22.5 t-22.5 -22t-23.5 -15.5t-13.5 -6q-4 0 -3 12.5z" />
<glyph unicode="n" horiz-adv-x="591" d="M35 -6v23.5t1 43t2 54t3 55.5t6 65.5t8 78.5t6 73t2 47q-2 57 -6 91t-2 38q0 2 10.5 13.5t22.5 22.5t22.5 19.5t14.5 2.5q2 -6 4 -28t2 -50.5v-57.5v-49q35 51 76 90q35 35 84 63.5t104 28.5t87 -25.5t48.5 -63t21.5 -84t5 -87.5t-5 -86t-11 -85t-13.5 -70.5t-13.5 -42.5 q-4 -12 -15.5 -24.5t-23.5 -22t-21.5 -12.5t-9.5 3q0 4 9.5 46t19.5 102t13 128q1 16 1 31q0 51 -8 95q-10 58 -41.5 97.5t-93.5 39.5q-61 0 -102 -36t-68 -89t-40 -117.5t-19 -121t-7.5 -97.5t-1.5 -49q0 -12 -11 -24.5t-24.5 -20.5t-24.5 -11t-11 3z" />
<glyph unicode="o" horiz-adv-x="620" d="M39 244q0 131 41 207.5t94 116.5t102.5 51.5t67.5 11.5q6 0 43 -4t79 -33t74.5 -91.5t32.5 -180.5q0 -119 -44 -187.5t-101 -104.5t-109.5 -46.5t-68.5 -10.5t-51 5.5t-71 31t-62.5 79.5t-26.5 155zM111 334q0 -86 18 -143.5t48 -92.5t66.5 -49t71.5 -14t69 14t59.5 47 t41 88.5t15.5 134.5q0 80 -28 129.5t-62.5 77t-68.5 36.5t-48 9q-10 0 -40 -5t-61.5 -28.5t-56 -71.5t-24.5 -132z" />
<glyph unicode="p" horiz-adv-x="622" d="M31 -299q0 6 3 53t8 113.5t11 144.5t11.5 144.5t9.5 113.5t4 54q0 8 2 37.5t3 65.5t2 68.5t1 49.5q0 14 11.5 28.5t24.5 22.5t24.5 10t11.5 -6q0 -10 -1 -34.5t-1 -49.5q-2 -31 -2 -63q31 39 67 71q33 29 77 51.5t97 22.5t91 -23.5t62.5 -61.5t36 -85t11.5 -92 q0 -47 -20.5 -104.5t-61.5 -109.5t-103.5 -87t-146.5 -35q-27 0 -52.5 6t-47.5 12q-25 8 -49 19q-4 -78 -6 -141q-4 -53 -5.5 -98.5t-5.5 -49.5t-15 -15.5t-22.5 -21.5t-20.5 -15t-9 5zM119 102q47 -12 90 -20q37 -8 76.5 -13.5t68.5 -5.5t59.5 14.5t55.5 42t41 68.5t16 95 q0 53 -14 99t-38.5 80t-56.5 53.5t-69 19.5h-6q-59 0 -109 -41q-23 -18 -43 -49t-35.5 -78.5t-25.5 -112t-10 -152.5z" />
<glyph unicode="q" horiz-adv-x="620" d="M35 254q0 90 48 159.5t110.5 115.5t123 70t86.5 24q27 0 47.5 -7.5t36.5 -17.5q18 -10 33 -25q14 14 27 23q10 8 19.5 13t13.5 1q2 -2 -4.5 -63.5t-16.5 -152.5t-23.5 -196.5t-24.5 -198.5t-18.5 -157.5t-7.5 -70.5q0 -10 -9 -21.5t-21.5 -20t-24.5 -13.5t-16 -5 q-2 0 -1 22.5t5 59.5t10 85t12 97q14 117 37 267q-8 -25 -22 -54q-12 -25 -36 -57.5t-59 -67.5q-33 -33 -60.5 -48t-47.5 -19q-25 -8 -45 -4q-49 10 -86 41q-33 27 -59.5 78t-26.5 143zM102 309q0 -92 22.5 -142t52.5 -73.5t59 -27t43 -3.5q31 0 68.5 49.5t70.5 114 t55.5 130t22.5 98.5q-23 31 -47 53q-23 20 -51.5 36.5t-63.5 16.5t-75 -21.5t-74.5 -57.5t-58.5 -81t-24 -92z" />
<glyph unicode="r" horiz-adv-x="376" d="M46 66.5q3 52.5 9 116t12.5 119.5t6.5 71q0 12 1 38.5t1 54.5v49.5t-2 25.5t8 15t23.5 22.5t24.5 18.5t13 5t3 -20.5t1 -41t-1 -44t-1 -31.5q27 37 60 67q29 27 66.5 48.5t84.5 21.5q35 -4 48.5 -8t17.5 -8q4 -6 -2 -8q-12 -14 -23 -25q-10 -10 -20 -17.5t-21 -9.5 q-23 6 -36 11.5t-35 1.5q-47 -4 -79 -47t-51.5 -110t-27.5 -151t-8 -170l-29 -32q-12 -12 -23.5 -20.5t-17.5 -0.5q-6 6 -3 58.5z" />
<glyph unicode="s" horiz-adv-x="491" d="M31 33q14 16 26 28q10 10 21.5 18.5t21.5 6.5q8 -2 50.5 -7t88.5 -5t83.5 8t37.5 37q0 51 -20.5 82.5t-50 52t-64.5 35t-64.5 31t-49 41t-19.5 65.5q0 39 22.5 72.5t56.5 59.5t76 40t83 14q80 0 102.5 -8t20.5 -12q0 -2 -9.5 -11.5t-19.5 -20.5t-21.5 -18t-17.5 -7 q-10 2 -36.5 8t-59.5 8q-11 1 -22 1q-23 0 -43 -3q-32 -4 -52 -25q-9 -23 -9 -43q0 -15 5 -27q12 -28 42 -51.5t67.5 -44t72.5 -41t58.5 -46t23.5 -58.5q0 -39 -16.5 -76t-51 -66.5t-90 -47t-133.5 -17.5q-45 2 -67.5 7t-32.5 10q-10 6 -10 10z" />
<glyph unicode="t" horiz-adv-x="438" d="M26 488.5q3 7.5 10 17.5t18.5 21.5t27.5 15.5q29 8 55 12q13 2 23 2q2 33 4 59q2 23 2 45.5t2 32.5t12 21.5t22.5 18.5t24 10.5t11.5 -1.5q0 -4 -2.5 -33.5t-4.5 -62.5q-4 -39 -6 -86h88q33 -2 57.5 -4t14.5 -12q-18 -16 -31.5 -27.5t-31.5 -17.5q-10 -4 -29 -3t-35 1 q-23 0 -43 2q-16 -98 -25 -183q-4 -37 -5 -73q0 -9 -1 -17q0 -26 3 -50q3 -32 10.5 -57.5t21.5 -37.5q27 -27 54.5 -30t50 3t40 14.5t23.5 6.5q6 -4 -7 -19.5t-40 -30.5q-28 -16 -62 -27q-25 -8 -53 -8q-10 0 -20 1q-41 4 -58.5 40t-23.5 77q-5 28 -5 60q0 24 3 50l33 277 l-62 -4q-23 -2 -42 -4.5t-23 -4.5t-1 5.5z" />
<glyph unicode="u" horiz-adv-x="534" d="M34 400q1 60 3 104.5t2 52.5q0 12 11 23.5t23.5 20.5t24 13t11.5 2q4 -6 3 -47t-2 -98q0 -57 -2 -123q0 -16 -1 -32q-1 -48 3 -90q4 -58 13.5 -99t30.5 -47q14 -5 32 -5t40 5q44 10 87 46t77 100.5t40 162.5q4 53 5 87t1 54q-2 23 -4 35q18 18 35 33q14 10 24.5 18.5 t10.5 -2.5v-53t-7.5 -114.5t-28 -144.5t-64.5 -141.5t-114.5 -107.5t-178.5 -43q-25 0 -40.5 39t-23.5 97t-10 126q-1 46 -1 87v41z" />
<glyph unicode="v" horiz-adv-x="462" d="M45 543q-2 6 5 16t18.5 19.5t21.5 17.5t16 8q10 0 19.5 -70.5t44.5 -201.5q16 -66 30.5 -111t24.5 -74q11 -33 21 -51q10 16 18 37q8 16 17.5 34.5t19.5 35.5q12 23 33.5 74t44 104t39 97t16.5 54q0 8 11.5 23.5t25.5 28t24.5 18.5t10.5 -5q0 -15 -18 -65 q-20 -54 -50 -125t-67 -149t-72 -140.5t-63.5 -98t-40.5 -23.5t-28.5 56t-33 103.5t-32 126t-28 123t-20.5 95.5t-8 43z" />
<glyph unicode="w" horiz-adv-x="950" d="M101 523q-1 9 1 11l2 3q2 2 11.5 12t20.5 19.5t21.5 14.5t12.5 -3q2 -6 9 -41t17.5 -86.5t20.5 -109.5t20.5 -108.5t16.5 -87.5t8 -43q51 135 100 240q20 45 42 87t43.5 75t40 52.5t32.5 16.5q23 -2 36 -63t25.5 -142t30 -164t47.5 -128q0 -2 13.5 28.5t32 78.5t41 105.5 t44 109t40 88t26.5 44.5q12 12 27.5 26.5t25 19t9.5 -5t-17 -42.5q-12 -23 -31.5 -71.5t-44 -109t-52.5 -126t-55.5 -119t-53 -87t-46.5 -33.5q-20 0 -36.5 35.5t-29.5 89t-24.5 116t-21.5 117.5t-17.5 93t-13.5 42q0 2 -8 -14.5t-18 -38.5q-12 -25 -27 -57 q-43 -109 -80 -193q-16 -37 -33.5 -70.5t-34 -61.5t-31 -43t-24.5 -15q-23 2 -32 47t-17 112.5t-17.5 146.5t-29.5 150q-10 37 -15.5 55.5t-6.5 27.5z" />
<glyph unicode="x" horiz-adv-x="538" d="M-47 -10q-2 0 14.5 21.5t41 55t55 73.5t59.5 76t51.5 61.5t30.5 33.5q-37 57 -68 107q-27 41 -51.5 77.5t-30.5 47.5q-8 8 0 20t22.5 22.5t28 16.5t17.5 0q4 -4 25.5 -38t48.5 -72q31 -45 67 -103q41 55 78 100q33 37 66.5 69t56.5 32q8 -2 3 -9.5t-16.5 -16.5t-24.5 -19 t-19 -17q-6 -6 -28 -32.5t-44 -55.5q-27 -35 -57 -78q47 -84 83 -151q31 -57 56.5 -105.5t25.5 -50.5t-7 -11t-18 -20.5t-22.5 -18.5t-21.5 -7q-23 35 -50.5 84t-52.5 96q-29 53 -57 113q-53 -70 -96 -125q-37 -49 -72 -93t-45 -55q-23 -23 -34 -26.5t-15 -1.5z" />
<glyph unicode="y" horiz-adv-x="512" d="M4 -245q4 9 14.5 20.5t22.5 21.5t20 10q16 2 39 10.5t47 32.5q12 12 27.5 37t30.5 52q16 31 33 65q-41 143 -76 256q-14 49 -28.5 96t-26 85t-18.5 63.5t-7 30.5q-2 10 8 22t23.5 21.5t25 13.5t13.5 0q0 -4 7 -25.5t16 -55.5t22.5 -77t25.5 -86q31 -102 68 -233 q33 68 63 133q27 55 52.5 113.5t37.5 99.5t18.5 61.5t9.5 29.5t6 11l9 6t15.5 12.5t17.5 14.5t13.5 10t5.5 0t-9.5 -32.5t-25 -70.5t-33.5 -93.5t-36.5 -99.5t-36 -89t-29.5 -61q-18 -33 -38 -73l-39.5 -79t-37.5 -72.5t-37 -56.5q-57 -70 -101 -101.5t-108 -31.5q-8 0 -4 9 z" />
<glyph unicode="z" horiz-adv-x="501" d="M8 23q2 10 26.5 45.5t53.5 70.5q6 8 22.5 29.5t40 50.5t50 63.5t55.5 69.5q66 82 141 178q-14 0 -30 2q-14 2 -29.5 3.5t-32.5 1.5q-16 0 -42.5 -3.5t-58.5 -6.5t-65 -3t-57 4q-2 6 4 17.5t15.5 22t21.5 16.5t22 6q6 0 33 2t62.5 3t75.5 3t74 2t56.5 -1t20.5 -7 q4 -6 -15.5 -37t-54.5 -77t-78 -101t-88 -110.5t-85 -103.5t-66 -79q48 -6 95 -6q18 0 36 1q65 3 119 6q40 2 69 2h18q34 -1 34 -13v-2q-6 -14 -15 -25q-8 -10 -21.5 -19.5t-31.5 -15.5q-23 2 -29 4t-13 2h-22.5t-56.5 -2t-86 -3q-22 0 -43 -0.5t-40 0.5q-38 1 -62.5 3 t-22.5 7z" />
<glyph unicode="{" horiz-adv-x="509" d="M47 578l37 24l42 31.5t54 44.5q14 14 20.5 47t8.5 81t0 107.5t-2 124.5q0 68 40 108t89 60.5t90 25.5t43 3q2 -4 -6 -16.5t-22.5 -24.5t-32 -19.5t-33.5 -0.5q-51 0 -71.5 -30t-25 -78t1 -107.5t5.5 -118.5t-20.5 -101.5t-43.5 -68.5q-26 -31 -61 -49q4 0 19.5 -8.5 t30.5 -24t27.5 -41t12.5 -58.5q0 -35 -8.5 -60.5t-17.5 -55t-16 -68.5t-7 -98t25.5 -92t56 -48.5t56.5 -20.5t28 -11q0 -6 -6.5 -16.5t-15.5 -20.5t-21.5 -17.5t-22.5 -7.5t-39 8.5t-58.5 30t-53 57t-23.5 91.5q0 55 8 89t18.5 61.5t18.5 53t8 64.5t-21.5 66.5t-45.5 46.5 q-29 23 -66 37z" />
<glyph unicode="|" horiz-adv-x="133" d="M29 -2q2 25 4 105.5t3 191.5t3 233.5t2 231t-1 185.5t-3 95q-4 27 5 12.5t22.5 -49t24.5 -82t11 -83.5q0 -27 1 -110t1 -192.5v-232.5v-226.5t-2 -176t-4 -80.5q-6 -14 -17 6t-22.5 53t-19.5 68t-8 51z" />
<glyph unicode="}" horiz-adv-x="495" d="M51 -113q-2 2 6.5 14.5t21.5 25t29.5 19.5t32.5 1q49 0 68.5 29.5t24 75.5t0 104.5t-4.5 117.5t18.5 99.5t41.5 66.5q26 31 61 49q-6 0 -20.5 7.5t-29.5 23t-26.5 39t-11.5 57.5q0 33 7 58.5t16.5 54.5t16.5 65.5t7 96.5q0 59 -24.5 91t-54 47t-54 20.5t-26.5 11.5 q0 6 6 15t15 19.5t20.5 17.5t21.5 7t38 -8t56.5 -29.5t50 -56.5t21.5 -88t-8.5 -87t-17.5 -60.5t-16 -52t-7 -62.5q0 -39 19.5 -65.5t43.5 -45.5q27 -23 64 -35q-16 -12 -37 -26q-16 -12 -39 -30.5t-51 -43.5q-16 -12 -21.5 -45t-7.5 -79t0 -104.5t2 -123.5q0 -66 -39 -105 t-86 -58t-86 -25.5t-41 -2.5z" />
<glyph unicode="&#xa1;" horiz-adv-x="227" d="M39 74q-2 2 0 30.5t6 69.5t10 91t13.5 98.5t14.5 88.5t11 60q6 20 18.5 34.5t25 20.5t20.5 5t6 -9t-8 -42t-11.5 -79t-11.5 -95t-11 -94t-8 -76t-3 -38q0 -10 -9.5 -22.5t-21.5 -23.5t-24.5 -17t-16.5 -2zM92 782q0 25 10.5 40.5t24.5 25.5q15 10 35 16h14t21.5 -5 t19.5 -16.5t8 -35.5q0 -25 -9 -40t-21.5 -24.5t-23.5 -12.5t-13 -3q-4 0 -14.5 -1t-21.5 4t-20.5 16.5t-9.5 35.5z" />
<glyph unicode="&#xa8;" horiz-adv-x="557" d="M82 739q0 29 11 47.5t28 28.5q18 13 41 19h15t23.5 -6.5t21.5 -19.5t9 -40q0 -29 -10 -46t-23.5 -28.5t-26.5 -15.5t-17 -4h-15.5t-24 5t-22.5 18.5t-10 41.5zM328 739q0 29 11 47.5t28 28.5q18 13 41 19h15t23.5 -6.5t22.5 -19.5t10 -40q0 -29 -10 -46t-24.5 -28.5 t-26.5 -15.5t-17 -4h-16t-24.5 5t-22.5 18.5t-10 41.5z" />
<glyph unicode="&#xad;" d="M86 276q-4 4 2 15.5t15.5 23t17.5 19.5t12 8q8 -2 47 -1t82 2t81 4t44 7t2 -5t-14 -22.5t-22.5 -25.5t-20.5 -14q-10 -2 -48 -5t-81 -6.5t-79 -3.5t-38 4z" />
<glyph unicode="&#xb4;" horiz-adv-x="274" d="M10 627q0 8 23.5 55t54.5 103.5t57.5 105.5t32.5 61q6 10 21.5 18.5t30 12.5t22.5 3t2 -7q-4 -4 -18.5 -28.5t-33 -58.5t-38 -73t-37.5 -74.5t-30.5 -61.5t-14.5 -34q-2 -6 -13.5 -13t-23.5 -11t-23.5 -4t-11.5 6z" />
<glyph unicode="&#xbf;" horiz-adv-x="389" d="M25 215q0 51 28.5 90t62.5 66.5t64 42.5l29 14q2 4 1 26.5t-3 34.5q0 6 9 16.5t20.5 20t21.5 16.5t14 7q6 0 7.5 -5t1.5 -46q-6 -55 -39 -79t-69 -41.5t-61.5 -40t-17.5 -75.5q20 -82 63.5 -117.5t87.5 -46t75.5 -8.5t31.5 -2t-4 -14.5t-15 -21.5t-32.5 -18t-56.5 -7 t-74 14t-71.5 39.5t-53 59.5t-20.5 75zM188 764q0 25 10.5 40t24.5 25q15 11 35 17h12.5t21.5 -5t19 -17.5t8 -37.5q0 -23 -9 -38t-21.5 -24t-23.5 -13t-13 -4q-4 0 -14.5 -1t-21.5 4t-19.5 17t-8.5 37z" />
<glyph unicode="&#xc0;" horiz-adv-x="811" d="M27 0q0 -4 8 0t19.5 12t22.5 20.5t17 22.5t22.5 50t37 85.5t38 81t23.5 39.5l426 6q18 -84 35 -151q14 -59 25.5 -108.5t11.5 -57.5t10 -2t23.5 18.5t23.5 24.5t10 16q-53 236 -102 426q-20 82 -43 162t-43.5 144.5t-39 109.5t-30.5 55q-14 10 -41.5 -23.5t-65.5 -98 t-81 -150.5t-86 -178t-83 -181.5t-71 -160t-49 -115.5t-18 -47zM223 1434q-8 6 2.5 7t27.5 -3t35.5 -11.5t26.5 -17.5q8 -12 41 -57t70 -96.5t65.5 -95.5t28.5 -50t-13 -6t-28.5 4t-29 10t-15.5 12q-6 10 -35.5 57.5t-66.5 99.5t-69 96t-40 51zM248 377q0 12 10 39.5 t26.5 64.5t39 81t45.5 87q53 100 123 223l135 -489q-94 -4 -172 -8q-66 -4 -127.5 -4t-79.5 6z" />
<glyph unicode="&#xc1;" horiz-adv-x="839" d="M51 0q0 2 18.5 47t49.5 115.5t70.5 160t82.5 181.5t86 178t81 150.5t66 98t42 23.5q12 -10 30.5 -55t39 -109.5t43 -144.5t42.5 -162q49 -190 103 -426q0 -4 -10.5 -16t-23.5 -24.5t-23.5 -18.5t-10.5 2t-11 57t-26 109q-16 68 -34 151l-426 -6q-6 -4 -23.5 -39.5 t-38 -81t-37 -85t-22.5 -50.5q-6 -10 -17.5 -22.5t-22.5 -20.5t-19.5 -12t-8.5 0zM272 377q18 -6 80 -6t127 4q78 4 172 8l-135 489q-70 -123 -123 -223q-23 -43 -45 -87t-38.5 -81t-27 -64.5t-10.5 -39.5zM500 1106q2 8 34.5 49t74.5 88t79 90t47 53q8 8 24.5 13.5t32 6.5 t23.5 -1t0 -8t-45 -47t-78 -90.5t-77 -93.5t-42 -54q-4 -6 -15 -10t-24.5 -5t-23.5 1t-10 8z" />
<glyph unicode="&#xc4;" horiz-adv-x="1024" d="M-31 0q0 2 18.5 47t49.5 115.5t70.5 160t82.5 181.5t86 178t81 150.5t66 98t42 23.5q12 -10 30.5 -55t39 -109.5t43 -144.5t43.5 -162q49 -190 102 -426q0 -4 -10.5 -16t-23.5 -24.5t-23.5 -18.5t-10.5 2t-11 57t-26 109q-16 68 -34 151l-426 -6q-6 -4 -23.5 -39.5 t-38 -81t-37 -85t-22.5 -50.5q-6 -10 -17.5 -22.5t-22.5 -20.5t-19.5 -12t-8.5 0zM190 377q18 -6 80 -6t127 4q78 4 172 8l-135 489q-70 -123 -123 -223q-23 -43 -45 -87t-38.5 -81t-27 -64.5t-10.5 -39.5zM274 1149q0 29 11.5 47t27.5 29q18 12 41 18h15.5t24 -6 t21.5 -19.5t9 -39.5q0 -29 -10.5 -46.5t-23.5 -28.5t-26.5 -15.5t-17.5 -4.5h-15.5t-23.5 5.5t-22.5 18.5t-10.5 42zM520 1149q0 29 11.5 47t27.5 29q18 12 41 18h15.5t23.5 -6t22.5 -19.5t10.5 -39.5q0 -29 -10.5 -46.5t-24.5 -28.5t-26.5 -15.5t-16.5 -4.5h-16.5 t-24.5 5.5t-22.5 18.5t-10.5 42z" />
<glyph unicode="&#xc8;" horiz-adv-x="675" d="M63 37q0 -31 5 -33q2 -2 36.5 -2t85 -1t110.5 -1h112.5t91.5 1t47 3q12 2 22.5 11.5t18.5 20.5t13 19t3 11l-22 1q-21 1 -53.5 1h-75.5h-86q-104 0 -236 -2q0 18 2 40q2 16 2 38t4 42q2 41 5.5 90.5t7.5 90.5q4 49 6 94q6 2 49 1t93 -1h94t55 2q23 4 43 26.5t24 30.5 q2 4 -16.5 6t-46 2t-61.5 -2t-62 -2q-31 -2 -59.5 -3t-51.5 -3q-27 -2 -51 -4q0 33 4 68q2 29 5 63.5t7 67.5l19 153q16 6 71.5 5t117 -3t111.5 -5t56 -1q14 4 36 23.5t32 34.5q2 4 -24.5 8t-68.5 6t-95.5 2t-101.5 -1t-85 -4t-51 -9q-20 -10 -41 -21.5t-27 -28.5 q-4 -8 -6 -26.5t-3 -43t-4 -51t-5 -49.5q-4 -33 -10.5 -100t-13.5 -139t-13 -133.5t-8 -79.5t-4 -59t-4.5 -82t-2.5 -72zM195 1434q-8 6 2 7t27.5 -3t36 -11.5t26.5 -17.5q8 -12 40.5 -57t69.5 -96.5t66 -95.5t29 -50t-13.5 -6t-29 4t-28.5 10t-15 12q-6 10 -36 57.5 t-67 99.5t-68.5 96t-39.5 51z" />
<glyph unicode="&#xc9;" horiz-adv-x="675" d="M53 37q0 31 2 72t4 81.5t4 59.5q2 18 8.5 79.5t13.5 133.5t13 139.5t11 99.5q2 23 5 49.5t4 51t3 43t6 26.5q6 16 26.5 27.5t41.5 22.5q12 6 50 9t86 4t101 1t95 -2t69 -6t25 -8q-10 -14 -32 -34t-36 -24q-6 -2 -56.5 1t-111.5 5t-116.5 3t-71.5 -5l-19 -153 q-4 -33 -7 -68t-5 -63q-4 -35 -4 -68q25 2 51 4q23 2 51.5 3t59.5 3q29 0 62.5 2t61 2t46 -2t16.5 -6q-4 -8 -24.5 -30.5t-43.5 -26.5q-10 -2 -54 -2h-94t-93 1t-49 -1q-2 -45 -7 -94q-4 -41 -7 -90.5t-5 -90.5q-4 -20 -4 -41.5t-2 -38.5q-2 -23 -2 -40q131 2 235 2h86h76 t54 -1l22 -1q2 -2 -3 -10.5t-13.5 -19.5t-18.5 -20.5t-22 -11.5q-8 -2 -47 -3t-91.5 -1h-113t-110.5 1t-85 1t-37 2q-4 2 -4 33zM330 1106q2 8 34.5 49t74.5 88t79 90t47 53q8 8 24.5 13.5t32 6.5t23.5 -1t0 -8t-45 -47t-78 -90.5t-77 -93.5t-42 -54q-4 -6 -15 -10t-24.5 -5 t-23.5 1t-10 8z" />
<glyph unicode="&#xcb;" horiz-adv-x="698" d="M72 35q0 31 2 71.5t4 81.5t4 60q2 18 8 79.5t13.5 133t13.5 139.5t10 100q2 23 5 49.5t4 51t3 43t6 26.5q6 16 27 27.5t41 22.5q12 6 50 9t86 4t101.5 1t95.5 -2t68.5 -6t24.5 -8q-10 -14 -31.5 -34t-36.5 -24q-6 -2 -56 1t-111.5 5t-117 3t-71.5 -5l-18 -153 q-4 -33 -7.5 -68t-5.5 -63q-4 -35 -4 -68q25 2 51 4q23 2 51.5 3t59.5 3q29 0 62.5 2t61.5 2t46 -2t16 -6q-4 -8 -24.5 -30.5t-42.5 -26.5q-10 -2 -54.5 -2h-94.5t-93 1t-49 -1q-2 -45 -6 -94q-4 -41 -7 -90.5t-5 -90.5q-4 -20 -4.5 -41.5t-2.5 -38.5q-2 -23 -2 -41 q131 2 236 3h86h75.5t53.5 -2l22 -1q2 -2 -3 -10t-13 -19t-18.5 -20.5t-22.5 -11.5q-8 -2 -47 -3t-91 -1h-112.5t-111 1t-85 1t-36.5 2q-4 2 -4 33zM186 1149q0 29 11.5 47t27.5 29q18 12 41 18h15.5t23.5 -6t21.5 -19.5t9.5 -39.5q0 -29 -10.5 -46.5t-23.5 -28.5 t-26.5 -15.5t-17.5 -4.5h-15.5t-23.5 5.5t-22.5 18.5t-10.5 42zM432 1149q0 29 11.5 47t27.5 29q18 12 41 18h15.5t23.5 -6t22.5 -19.5t10.5 -39.5q0 -29 -10.5 -46.5t-24.5 -28.5t-26.5 -15.5t-16.5 -4.5h-16.5t-24.5 5.5t-22.5 18.5t-10.5 42z" />
<glyph unicode="&#xcc;" horiz-adv-x="264" d="M-80 1434q-8 6 2 7t27.5 -3t36 -11.5t26.5 -17.5q8 -12 41 -57t70 -96.5t65.5 -95.5t28.5 -50t-13.5 -6t-28.5 4t-28.5 10t-15.5 12q-6 10 -35.5 57.5t-66.5 99.5t-69 96t-40 51zM63 -14q0 -4 11.5 2t25 16t24.5 22.5t11 22.5q0 8 6 77t14.5 169t16.5 215t14.5 212 t8.5 163.5t-2 68.5t-14.5 -5t-22 -16t-21.5 -19.5t-10 -16.5q0 -27 -5 -102.5t-12.5 -177t-15.5 -211t-14 -202.5t-10.5 -154.5t-4.5 -63.5z" />
<glyph unicode="&#xcd;" horiz-adv-x="325" d="M66 -14q0 2 4 63.5t10 154.5t14 202.5t15.5 211t12.5 177t5 102.5q0 6 10 16.5t21.5 19.5t22 16t14.5 5t2 -68.5t-8.5 -163.5t-14.5 -212t-16 -215t-14.5 -169t-6.5 -77q0 -10 -11 -22.5t-24.5 -22.5t-24.5 -16t-11 -2zM135 1106q2 8 35 49t75 88t78.5 90t47.5 53 q8 8 24.5 13.5t31.5 6.5t23.5 -1t0.5 -8t-45 -47t-78 -90.5t-77 -93.5t-42 -54q-4 -6 -15.5 -10t-24.5 -5t-23.5 1t-10.5 8z" />
<glyph unicode="&#xcf;" horiz-adv-x="243" d="M-33 1149q0 29 11.5 47t27.5 29q18 12 41 18h15.5t23.5 -6t21.5 -19.5t9.5 -39.5q0 -29 -10.5 -46.5t-23.5 -28.5t-26.5 -15.5t-17.5 -4.5h-15.5t-23.5 5.5t-22.5 18.5t-10.5 42zM39 -14q0 2 4 63.5t10 154.5t14.5 202.5t15.5 211t12 177t5 102.5q0 6 10.5 16.5 t21.5 19.5t21.5 16t14.5 5t2 -68.5t-8 -163.5t-14.5 -212t-16.5 -215t-14 -169t-6 -77q0 -10 -11.5 -22.5t-25 -22.5t-24.5 -16t-11 -2zM213 1149q0 29 11.5 47t27.5 29q18 12 41 18h15t23.5 -6t23 -19.5t10.5 -39.5q0 -29 -10.5 -46.5t-25 -28.5t-26.5 -15.5t-16 -4.5 h-16.5t-25 5.5t-22.5 18.5t-10 42z" />
<glyph unicode="&#xd1;" horiz-adv-x="770" d="M37 6q0 6 1 30.5t2 56.5t3 66t6 56q2 25 11.5 83t18.5 123.5t17 121t10 73.5t3.5 60.5t2.5 86.5t4 80t7 40q4 6 13 16t19.5 19.5t20.5 11.5t17 -8q2 -6 20 -41t47 -89.5t64.5 -121t74.5 -136t76 -137t66.5 -120t50 -86t26.5 -37.5q12 139 23 254l8 98t7 92t5.5 75t2.5 46 v60.5v58t1 46t5 23.5t15 16.5t23.5 23.5t21.5 13.5t9 -12.5q0 -10 -4 -78.5t-10 -166t-13 -210t-13.5 -210t-10.5 -165t-4 -75.5q0 -27 -28.5 -44t-41.5 -13q-4 0 -23.5 32.5t-51 86t-70.5 121t-78 136.5q-94 164 -209 373q-16 -121 -30 -219q-12 -86 -22.5 -163t-12.5 -99 q-2 -23 -3 -52.5t-3 -59t-3.5 -54.5t-3.5 -33q0 -10 -11 -20t-23.5 -19.5t-22.5 -12.5t-10 3zM205 1018q-4 4 1 13t15 19.5t20.5 17.5t14.5 9q10 2 34.5 5t54.5 6.5t60.5 5.5t55.5 2q23 0 60.5 2t72.5 1t57.5 -6.5t16.5 -15.5q-14 -23 -39 -35t-45 -12h-28.5h-30h-45 t-77.5 -2q-10 0 -39.5 -3t-63.5 -6t-62.5 -4t-32.5 3z" />
<glyph unicode="&#xd2;" horiz-adv-x="880" d="M27 432q0 -59 20.5 -137t68.5 -146.5t127 -115.5t197 -47q119 0 196 63.5t122 152.5t63.5 182t18.5 155q0 49 -11.5 120.5t-45 137t-94.5 111.5t-157 46q-162 0 -261 -54t-153.5 -134t-72.5 -171t-18 -163zM94 457q0 90 35 170t90 138t125 92t139 34q78 -10 140 -53 q27 -18 51 -46t44.5 -69t33 -95.5t12.5 -123.5q0 -141 -31 -228.5t-75 -137.5t-93 -69.5t-86 -23.5q-59 -6 -125.5 23.5t-125 86t-96.5 134.5t-38 168zM223 1434q-8 6 2.5 7t27.5 -3t35.5 -11.5t26.5 -17.5q8 -12 41 -57t70 -96.5t65.5 -95.5t28.5 -50t-13 -6t-28.5 4 t-29 10t-15.5 12q-6 10 -35.5 57.5t-66.5 99.5t-69 96t-40 51z" />
<glyph unicode="&#xd3;" horiz-adv-x="892" d="M27 432q0 72 18 163t72.5 171t153.5 134t261 54q96 0 157 -46t94.5 -111.5t45 -137t11.5 -120.5q0 -61 -18.5 -154.5t-63.5 -182.5t-122 -152.5t-196 -63.5t-197.5 47t-126.5 115.5t-68.5 146.5t-20.5 137zM94 457q0 -90 38 -168t96.5 -134.5t125 -86t125.5 -23.5 q37 4 86 23.5t93 69.5t75 137t31 229q0 70 -12.5 124t-33 95t-45 68.5t-50.5 46.5q-61 43 -140 53q-70 0 -139.5 -34t-124.5 -92t-90 -138t-35 -170zM401 1106q2 8 35 49t75 88t79 90t47 53q8 8 24.5 13.5t32 6.5t23.5 -1t0 -8t-45 -47t-78 -90.5t-77 -93.5t-42 -54 q-4 -6 -15 -10t-24.5 -5t-24 1t-10.5 8z" />
<glyph unicode="&#xd6;" horiz-adv-x="892" d="M27 432q0 72 18 163t72.5 171t153.5 134t261 54q96 0 157 -46t94.5 -111.5t45 -137t11.5 -120.5q0 -61 -18.5 -154.5t-63.5 -182.5t-122 -152.5t-196 -63.5t-197.5 47t-126.5 115.5t-68.5 146.5t-20.5 137zM94 457q0 -90 38 -168t96.5 -134.5t125 -86t125.5 -23.5 q37 4 86 23.5t93 69.5t75 137t31 229q0 70 -12.5 124t-33 95t-45 68.5t-50.5 46.5q-61 43 -140 53q-70 0 -139.5 -34t-124.5 -92t-90 -138t-35 -170zM307 1149q0 29 11.5 47t27.5 29q18 12 41 18h15.5t23.5 -6t21.5 -19.5t9.5 -39.5q0 -29 -10.5 -46.5t-23.5 -28.5 t-26.5 -15.5t-17.5 -4.5h-15.5t-23.5 5.5t-22.5 18.5t-10.5 42zM553 1149q0 29 11 47t28 29q18 12 41 18h15t23.5 -6t23 -19.5t10.5 -39.5q0 -29 -10.5 -46.5t-25 -28.5t-26.5 -15.5t-16 -4.5h-16.5t-25 5.5t-22.5 18.5t-10 42z" />
<glyph unicode="&#xd9;" horiz-adv-x="800" d="M47 377q0 86 2 176t6 166t9.5 126t9.5 56t15 18.5t22.5 23.5t20.5 15.5t9 -6.5v2q0 -2 2 -4q2 -14 -6 -84.5t-14 -168t-2 -208t28.5 -203.5t78 -156.5t147.5 -66.5q74 -2 125 33t86 92.5t55.5 133t29.5 155.5t12 157t2 137t-2 99t1 43q4 6 15.5 18.5t23.5 23t21.5 15.5 t9.5 -3q0 -4 4 -48.5t6 -113t-2 -154.5t-19.5 -176t-47 -175t-85 -151.5t-132.5 -107.5t-189 -41q-117 0 -179.5 102.5t-62.5 274.5zM223 1434q-8 6 2.5 7t27.5 -3t35.5 -11.5t26.5 -17.5q8 -12 41 -57t70 -96.5t65.5 -95.5t28.5 -50t-13 -6t-28.5 4t-29 10t-15.5 12 q-6 10 -35.5 57.5t-66.5 99.5t-69 96t-40 51z" />
<glyph unicode="&#xda;" horiz-adv-x="815" d="M55 377q0 86 2 176t6.5 166t9.5 126t9 56t15.5 18.5t22.5 23.5t20.5 15.5t9.5 -6.5v2q0 -2 2 -4q2 -14 -6.5 -84.5t-14.5 -168t-2 -208t28.5 -203.5t78 -156.5t147.5 -66.5q74 -2 125 33t86 92.5t55.5 133t29.5 155.5t12 157t2 137t-2 99t1 43q4 6 15.5 18.5t23.5 23 t21.5 15.5t9.5 -3q0 -4 4 -48.5t6 -113t-2 -154.5t-19.5 -176t-47 -175t-85 -151.5t-132 -107.5t-189.5 -41q-117 0 -179.5 102.5t-62.5 274.5zM348 1106q2 8 35 49t75 88t78.5 90t47.5 53q8 8 24.5 13.5t31.5 6.5t23.5 -1t0.5 -8t-45 -47t-78 -90.5t-77 -93.5t-42 -54 q-4 -6 -15.5 -10t-24.5 -5t-23.5 1t-10.5 8z" />
<glyph unicode="&#xdc;" horiz-adv-x="811" d="M53 377q0 86 2 176t6.5 166t9.5 126t9 56t15 18.5t22.5 23.5t20.5 15.5t9 -6.5v2q0 -2 3 -4q2 -14 -6.5 -84.5t-14.5 -168t-2 -208t28.5 -203.5t78 -156.5t147.5 -66.5q74 -2 125 33t86 92.5t55.5 133t29.5 155.5t12 157t2 137t-2 99t1 43q4 6 15.5 18.5t23.5 23 t21.5 15.5t9.5 -3q0 -4 4 -48.5t6 -113t-2 -154.5t-19.5 -176t-47 -175t-85 -151.5t-132 -107.5t-189.5 -41q-117 0 -179.5 102.5t-62.5 274.5zM238 1149q0 29 11 47t27 29q18 12 41 18h15.5t24 -6t21.5 -19.5t9 -39.5q0 -29 -10 -46.5t-23.5 -28.5t-27 -15.5t-17.5 -4.5 h-15t-23.5 5.5t-22.5 18.5t-10 42zM483 1149q0 29 11.5 47t27.5 29q18 12 41 18h15.5t23.5 -6t22.5 -19.5t10.5 -39.5q0 -29 -10.5 -46.5t-24.5 -28.5t-26.5 -15.5t-16.5 -4.5h-16.5t-24.5 5.5t-22.5 18.5t-10.5 42z" />
<glyph unicode="&#xe0;" horiz-adv-x="505" d="M2 207q0 -39 12.5 -73t33 -60.5t43 -43t44.5 -20.5q12 -4 24.5 -4t27 5t32 17.5t39.5 34.5q23 23 42 47.5t33.5 46t23 37t8.5 21.5q0 -6 -1.5 -37t-1.5 -65.5v-64.5v-32q2 -4 13.5 1.5t25 13.5t23.5 19t10 22v168q0 23 4 79t11 115q6 68 14 148q-16 6 -39 12 q-18 4 -42.5 8t-53.5 4t-84.5 -22.5t-108.5 -69.5t-93 -124t-40 -183zM10 999q-8 6 2.5 7.5t27.5 -3t35.5 -11.5t26.5 -17q8 -12 41 -57.5t70 -96.5t65.5 -95t28.5 -50t-13 -6t-28.5 4t-29 10t-15.5 12q-6 10 -35.5 57.5t-66.5 99.5t-69 96t-40 50zM76 242q0 14 1 44.5 t9 68.5t24.5 78t47.5 71t70.5 37t76.5 2q41 -6 86 -23v-4q-23 -113 -47 -205q-10 -39 -23.5 -77.5t-26.5 -71.5t-29.5 -56.5t-33.5 -31.5q-45 0 -74.5 21.5t-48 49t-25.5 55t-7 42.5z" />
<glyph unicode="&#xe1;" horiz-adv-x="499" d="M2 207q0 106 40 183t93 124t108.5 69.5t84.5 22.5t53.5 -4t42.5 -8q23 -6 39 -12q-8 -80 -14 -148q-6 -59 -10.5 -115.5t-4.5 -78.5v-168q0 -10 -10 -21.5t-23.5 -19.5t-24.5 -13.5t-14 -1.5v32v64.5t1.5 65.5t1.5 37q0 -6 -8.5 -21.5t-23 -37t-33.5 -46t-42 -47.5 t-40 -35t-31.5 -17t-27 -5t-24.5 4q-23 4 -45 20.5t-42.5 43t-33 60.5t-12.5 73zM76 242q0 -14 7 -42t25.5 -55.5t48 -49t74.5 -21.5q16 8 33 31.5t30 56.5t26.5 71.5t23.5 77.5q25 92 47 205v4q-45 16 -86 23q-37 4 -77 -2t-70 -37q-31 -31 -47.5 -71t-24.5 -78t-9 -68.5 t-1 -44.5zM236 688q2 8 34.5 49t74.5 88t79 90t47 54q8 8 24.5 13t32 6t23.5 -1t0 -8t-45 -47t-78 -90t-77 -93.5t-42 -54.5q-4 -6 -15 -10t-24.5 -5t-23.5 1t-10 8z" />
<glyph unicode="&#xe4;" horiz-adv-x="563" d="M43 207q0 106 40 183t93 124t108.5 69.5t84.5 22.5t53 -4t43 -8q23 -6 39 -12q-8 -80 -15 -148q-6 -59 -10 -115.5t-4 -78.5v-168q0 -10 -10 -21.5t-23.5 -19.5t-24.5 -13.5t-14 -1.5v32v64.5t1.5 65.5t1.5 37q0 -6 -8.5 -21.5t-23 -37t-33.5 -46t-42 -47.5t-40 -35 t-31.5 -17t-27 -5t-24.5 4q-23 4 -45 20.5t-42.5 43t-33 60.5t-12.5 73zM117 242q0 -14 7 -42t25.5 -55.5t48 -49t74.5 -21.5q16 8 33 31.5t30 56.5t26.5 71.5t23.5 77.5q25 92 47 205v4q-45 16 -86 23q-37 4 -77 -2t-70 -37q-31 -31 -47.5 -71t-24.5 -78t-9 -68.5t-1 -44.5 zM135 766q0 29 11.5 47t27.5 29q18 12 41 18h15.5t23.5 -6t21.5 -19.5t9.5 -39.5q0 -29 -10.5 -46.5t-23.5 -28.5t-26.5 -15.5t-17.5 -4.5h-15.5t-23.5 5.5t-22.5 18.5t-10.5 42zM381 766q0 29 11 47t28 29q18 12 41 18h15t23.5 -6t22.5 -19.5t10 -39.5q0 -29 -10 -46.5 t-24.5 -28.5t-26.5 -15.5t-16 -4.5h-16.5t-25 5.5t-22.5 18.5t-10 42z" />
<glyph unicode="&#xe8;" horiz-adv-x="593" d="M10 999q-8 6 2.5 7.5t27.5 -3t35.5 -11.5t26.5 -17q8 -12 41 -57.5t70 -96.5t65.5 -95t28.5 -50t-13 -6t-28.5 4t-29 10t-15.5 12q-6 10 -35.5 57.5t-66.5 99.5t-69 96t-40 50zM23 246q0 -37 14 -81t44 -82t73 -63.5t100 -25.5t104.5 19.5t79 44t47 46t9.5 23.5 q-4 2 -17.5 -8t-34 -24.5t-48 -26t-64.5 -11.5q-86 0 -133 36t-70 79q-27 51 -33 117q160 0 250 30.5t137 69.5q54 43 70 100q0 2 -6 20.5t-25.5 40t-58.5 39t-105 17.5q-90 0 -152.5 -42t-103.5 -100t-59 -119.5t-18 -98.5zM96 350q0 2 6.5 33t24.5 66.5t51 64.5t88 29 q111 0 162 -37t51 -78q0 -14 -28.5 -26.5t-70.5 -21.5t-92 -15.5t-92 -10.5t-71 -5t-29 1z" />
<glyph unicode="&#xe9;" horiz-adv-x="593" d="M23 246q0 37 18 98.5t59 119.5t103.5 100t152.5 42q66 0 105 -17.5t58.5 -39t25.5 -40t6 -20.5q-16 -57 -70 -100q-47 -39 -137 -69.5t-250 -30.5q6 -66 33 -117q23 -43 70 -79t133 -36q37 0 64.5 11.5t48 26t33.5 24.5t18 8q6 -2 -9.5 -23.5t-47 -46t-79 -44 t-104.5 -19.5t-100 25.5t-73 63.5t-44 82t-14 81zM96 350q0 -2 29 -1t71 5t92 10.5t92 15.5t70.5 21.5t28.5 26.5q0 41 -51 78t-162 37q-55 0 -88 -29t-51 -64.5t-24.5 -66.5t-6.5 -33zM236 688q2 8 34.5 49t74.5 88t79 90t47 54q8 8 24.5 13t32 6t23.5 -1t0 -8t-45 -47 t-78 -90t-77 -93.5t-42 -54.5q-4 -6 -15 -10t-24.5 -5t-23.5 1t-10 8z" />
<glyph unicode="&#xeb;" horiz-adv-x="583" d="M23 246q0 37 18 98.5t59 119.5t103.5 100t152.5 42q66 0 105 -17.5t58.5 -39t25.5 -40t6 -20.5q-16 -57 -70 -100q-47 -39 -137 -69.5t-250 -30.5q6 -66 33 -117q23 -43 70 -79t133 -36q37 0 64.5 11.5t48 26t33.5 24.5t18 8q6 -2 -9.5 -23.5t-47 -46t-79 -44 t-104.5 -19.5t-100 25.5t-73 63.5t-44 82t-14 81zM96 350q0 -2 29 -1t71 5t92 10.5t92 15.5t70.5 21.5t28.5 26.5q0 41 -51 78t-162 37q-55 0 -88 -29t-51 -64.5t-24.5 -66.5t-6.5 -33zM111 770q0 29 11 47.5t28 28.5q17 12 40 18h15.5t24 -6t21.5 -19.5t9 -39.5 q0 -29 -10 -46.5t-23.5 -28.5t-27 -15t-17.5 -4h-15t-23.5 5t-22.5 18t-10 42zM356 770q0 29 11.5 47.5t27.5 28.5q18 12 41 18h15.5t23.5 -6t22.5 -19.5t10.5 -39.5q0 -29 -10.5 -46.5t-24.5 -28.5t-26.5 -15t-16.5 -4h-16.5t-24.5 5t-22.5 18t-10.5 42z" />
<glyph unicode="&#xec;" horiz-adv-x="319" d="M-78 1014q-8 6 2 7t27.5 -3t36 -11.5t26.5 -17.5q8 -12 41 -57t70 -96.5t65.5 -95.5t28.5 -50t-13 -6t-28.5 4t-29 10.5t-15.5 12.5q-6 10 -35.5 57t-66.5 99.5t-69 96.5t-40 50zM113 12q-6 -4 5 0t26.5 13.5t28.5 21.5t15 25q0 6 5.5 49t11.5 103.5t12 128t10 125t5 95 t-3 37.5q-6 0 -17 -7t-21.5 -16t-19.5 -19.5t-9 -14.5q0 -6 -3 -47t-7.5 -100.5t-9.5 -127t-11 -125t-11 -97.5t-7 -44z" />
<glyph unicode="&#xed;" horiz-adv-x="282" d="M37 12q4 4 8 44t10 97.5t11.5 125t9.5 127t7 100.5t3 47q0 4 9 14.5t19.5 19.5t21.5 16t18 7q4 0 3 -37.5t-5.5 -95t-10.5 -125t-12 -128t-11 -103.5t-5 -49q-2 -12 -15.5 -24.5t-29 -22t-26.5 -13.5t-5 0zM82 688q2 8 35 49t74.5 88t78.5 90t47 54q8 8 24.5 13t32 6 t24 -1t-0.5 -8q-8 -6 -45 -47t-78 -90t-76.5 -93.5t-41.5 -54.5q-4 -6 -15.5 -10t-25 -5t-23.5 1t-10 8z" />
<glyph unicode="&#xef;" horiz-adv-x="284" d="M-37 784q0 29 11.5 47.5t27.5 28.5q18 13 41 19h15.5t23.5 -6.5t21.5 -19.5t9.5 -40q0 -29 -10.5 -46t-23.5 -28.5t-26.5 -15.5t-17.5 -4h-15.5t-23.5 5t-22.5 18.5t-10.5 41.5zM41 12q2 4 7 44t11.5 97.5t11.5 125t9 127t7 100.5t3 47q0 4 9.5 14.5t19.5 19.5t21.5 16 t17.5 7q4 0 3 -37.5t-5 -95t-10.5 -125t-12.5 -128t-11 -103.5t-5 -49q-2 -12 -15.5 -24.5t-29 -22t-26.5 -13.5t-5 0zM209 784q0 29 11 47.5t28 28.5q18 13 41 19h15t23.5 -6.5t22.5 -19.5t10 -40q0 -29 -10 -46t-24.5 -28.5t-26.5 -15.5t-16 -4h-16.5t-25 5t-22.5 18.5 t-10 41.5z" />
<glyph unicode="&#xf1;" horiz-adv-x="581" d="M28 26.5q-1 18.5 0 43t2 53.5t5 55q2 27 6 67t7 78.5t6 71.5t3 47q-2 59 -6 93t-4 38q0 2 10.5 13.5t22.5 23t23.5 19.5t13.5 2t4 -28.5t3 -50.5t1 -58v-50q35 51 76 93q35 35 83 63.5t103 28.5t87 -25.5t48.5 -64.5t21.5 -85t5 -85q0 -41 -5 -86t-11.5 -86t-13.5 -72 t-11 -43t-16.5 -24.5t-24.5 -21.5t-21.5 -11t-9.5 4q0 4 9.5 46t19.5 101.5t14 128t-7 126.5t-42 97t-92 39t-103 -35.5t-69 -89t-40 -118t-19.5 -121t-7.5 -97t-1 -49.5q0 -12 -11 -24.5t-23.5 -20.5t-23.5 -12t-11 2t-1 24.5zM137 711q-4 4 1 13t14.5 18.5t18.5 17.5t13 8 q8 2 30 5t49.5 6t55 5t48.5 2q20 0 54 2.5t64.5 1t51 -6.5t14.5 -15q-10 -20 -32.5 -33.5t-41.5 -13.5h-25.5h-26.5h-41t-69 -2q-8 0 -35.5 -3t-58.5 -5t-55.5 -3t-28.5 3z" />
<glyph unicode="&#xf2;" horiz-adv-x="624" d="M39 244q0 -100 26.5 -154.5t62.5 -80t70.5 -31t51.5 -5.5q16 0 68.5 10.5t109.5 46.5t101 104.5t44 187.5t-32.5 181t-74.5 91t-79 33t-43 4q-18 0 -67.5 -11.5t-102.5 -51.5t-94 -116.5t-41 -207.5zM53 1049q-8 6 2.5 7t27.5 -3t35.5 -11.5t26.5 -17.5q8 -12 41 -57 t70 -96.5t65.5 -95.5t28.5 -50t-13 -6t-28.5 4t-29 10t-15.5 12q-6 10 -35.5 57.5t-66.5 99.5t-69 96t-40 51zM111 334q0 84 24.5 132t56 71.5t61.5 28.5t40 5q14 0 48 -9t68.5 -36.5t62.5 -77t28 -129.5t-15.5 -135t-41 -88t-59.5 -47t-69 -14t-71.5 14t-66.5 49t-48 92.5 t-18 143.5z" />
<glyph unicode="&#xf3;" horiz-adv-x="620" d="M39 244q0 131 41 207.5t94 116.5t102.5 51.5t67.5 11.5q6 0 43 -4t79 -33t74.5 -91.5t32.5 -180.5q0 -119 -44 -187.5t-101 -104.5t-109.5 -46.5t-68.5 -10.5t-51 5.5t-71 31t-62.5 79.5t-26.5 155zM111 334q0 -86 18 -143.5t48 -92.5t66.5 -49t71.5 -14t69 14t59.5 47 t41 88.5t15.5 134.5q0 80 -28 129.5t-62.5 77t-68.5 36.5t-48 9q-10 0 -40 -5t-61.5 -28.5t-56 -71.5t-24.5 -132zM236 719q2 8 34.5 49t74.5 88t79 90t47 53q8 8 24.5 13.5t32 6.5t23.5 -1t0 -8t-45 -47t-78 -90.5t-77 -93.5t-42 -54q-4 -6 -15 -10t-24.5 -5t-23.5 1t-10 8 z" />
<glyph unicode="&#xf6;" horiz-adv-x="610" d="M39 244q0 131 41 207.5t94 116.5t102.5 51.5t67.5 11.5q6 0 43 -4t79 -33t74.5 -91.5t32.5 -180.5q0 -119 -44 -187.5t-101 -104.5t-109.5 -46.5t-68.5 -10.5t-51 5.5t-71 31t-62.5 79.5t-26.5 155zM111 334q0 -86 18 -143.5t48 -92.5t66.5 -49t71.5 -14t69 14t59.5 47 t41 88.5t15.5 134.5q0 80 -28 129.5t-62.5 77t-68.5 36.5t-48 9q-10 0 -40 -5t-61.5 -28.5t-56 -71.5t-24.5 -132zM141 784q0 29 11.5 47.5t27.5 28.5q18 13 41 19h15.5t23.5 -6.5t21.5 -19.5t9.5 -40q0 -29 -10.5 -46t-23.5 -28.5t-26.5 -15.5t-17.5 -4h-15.5t-23.5 5 t-22.5 18.5t-10.5 41.5zM387 784q0 29 11.5 47.5t27.5 28.5q18 13 41 19h15.5t23.5 -6.5t22.5 -19.5t10.5 -40q0 -29 -10.5 -46t-25 -28.5t-26.5 -15.5t-16 -4h-16.5t-24.5 5t-22.5 18.5t-10.5 41.5z" />
<glyph unicode="&#xf9;" horiz-adv-x="540" d="M10 999q-8 6 2.5 7.5t27.5 -3t35.5 -11.5t26.5 -17q8 -12 41 -57.5t70 -96.5t65.5 -95t28.5 -50t-13 -6t-28.5 4t-29 10t-15.5 12q-6 10 -35.5 57.5t-66.5 99.5t-69 96t-40 50zM34 400.5q1 60.5 3 104.5t2 52q0 12 11 23.5t23.5 20.5t24 13t11.5 2q4 -6 3 -47t-2 -98 t-2.5 -122.5t3 -123t13.5 -98.5t30 -47q29 -10 72.5 0t86.5 46t77 100.5t40 162.5q4 53 5 87t1 54q-2 23 -4 35q18 18 35 33q14 10 24.5 18.5t10.5 -2.5v-53t-7.5 -114.5t-28 -144.5t-64.5 -141.5t-114.5 -107.5t-178.5 -43q-25 0 -40.5 39t-23.5 96.5t-10 126t-1 129z" />
<glyph unicode="&#xfa;" horiz-adv-x="548" d="M44 400.5q1 60.5 3 104.5t2 52q0 12 11.5 23.5t23.5 20.5t23.5 13t11.5 2q4 -6 3 -47t-2 -98t-2 -122.5t3 -123t13 -98.5t30 -47q29 -10 73 0t87 46t76.5 100.5t39.5 162.5q4 53 5 87t1 54q-2 23 -4 35q18 18 35 33q14 10 24.5 18.5t10.5 -2.5v-53t-7 -114.5 t-27.5 -144.5t-64.5 -141.5t-115 -107.5t-179 -43q-25 0 -40.5 39t-23.5 96.5t-10 126t-1 129zM236 702q2 8 34.5 49.5t74.5 88.5t79 90t47 53q8 8 24.5 13t32 6.5t23.5 -1t0 -8.5t-45 -47t-78 -90t-77 -93t-42 -54q-4 -6 -15 -10.5t-24.5 -5.5t-23.5 1t-10 8z" />
<glyph unicode="&#xfc;" horiz-adv-x="528" d="M30 400.5q1 60.5 3 104.5t2 52q0 12 11 23.5t23.5 20.5t23.5 13t11 2q4 -6 3 -47t-2 -98t-2 -122.5t3.5 -123t14.5 -98.5t29 -47q29 -10 72.5 0t86.5 46t77 100.5t40 162.5q4 53 5 87t1 54q-2 23 -4 35q18 18 35 33q14 10 24.5 18.5t10.5 -2.5v-53t-7.5 -114.5 t-28 -144.5t-64.5 -141.5t-114.5 -107.5t-179.5 -43q-25 0 -40 39t-23 96.5t-10 126t-1 129zM98 768q0 29 11.5 47.5t27.5 28.5q18 12 41 18h15.5t23.5 -6t21.5 -19.5t9.5 -39.5q0 -29 -10.5 -46.5t-23.5 -28.5t-26.5 -15.5t-17.5 -4.5h-15.5t-23.5 5.5t-22.5 18.5t-10.5 42 zM344 768q0 29 11.5 47.5t27.5 28.5q18 12 41 18h15.5t23.5 -6t22.5 -19.5t10.5 -39.5q0 -29 -10.5 -46.5t-25 -28.5t-26.5 -15.5t-16 -4.5h-16.5t-24.5 5.5t-22.5 18.5t-10.5 42z" />
<glyph unicode="&#x2000;" horiz-adv-x="720" />
<glyph unicode="&#x2001;" horiz-adv-x="1441" />
<glyph unicode="&#x2002;" horiz-adv-x="720" />
<glyph unicode="&#x2003;" horiz-adv-x="1441" />
<glyph unicode="&#x2004;" horiz-adv-x="480" />
<glyph unicode="&#x2005;" horiz-adv-x="360" />
<glyph unicode="&#x2006;" horiz-adv-x="240" />
<glyph unicode="&#x2007;" horiz-adv-x="240" />
<glyph unicode="&#x2008;" horiz-adv-x="180" />
<glyph unicode="&#x2009;" horiz-adv-x="288" />
<glyph unicode="&#x200a;" horiz-adv-x="80" />
<glyph unicode="&#x2010;" d="M86 276q-4 4 2 15.5t15.5 23t17.5 19.5t12 8q8 -2 47 -1t82 2t81 4t44 7t2 -5t-14 -22.5t-22.5 -25.5t-20.5 -14q-10 -2 -48 -5t-81 -6.5t-79 -3.5t-38 4z" />
<glyph unicode="&#x2011;" d="M86 276q-4 4 2 15.5t15.5 23t17.5 19.5t12 8q8 -2 47 -1t82 2t81 4t44 7t2 -5t-14 -22.5t-22.5 -25.5t-20.5 -14q-10 -2 -48 -5t-81 -6.5t-79 -3.5t-38 4z" />
<glyph unicode="&#x2012;" d="M86 276q-4 4 2 15.5t15.5 23t17.5 19.5t12 8q8 -2 47 -1t82 2t81 4t44 7t2 -5t-14 -22.5t-22.5 -25.5t-20.5 -14q-10 -2 -48 -5t-81 -6.5t-79 -3.5t-38 4z" />
<glyph unicode="&#x2013;" horiz-adv-x="1171" d="M89 276q-13 4 7 15.5t52 23t58.5 19.5t40.5 8q26 -2 156.5 -1t274.5 2t271 4t147 7t6.5 -5t-47 -22.5t-75 -25.5t-68.5 -14q-33 -2 -160.5 -5t-271 -6.5t-264 -3.5t-127.5 4z" />
<glyph unicode="&#x2014;" horiz-adv-x="2195" d="M95 276q-27 4 13 15.5t103.5 23t117 19.5t80.5 8q54 -2 314.5 -1t548 2t542 4t294.5 7t13.5 -5t-93.5 -22.5t-150.5 -25.5t-137.5 -14q-67 -2 -321 -5t-541.5 -6.5t-528.5 -3.5t-254 4z" />
<glyph unicode="&#x202f;" horiz-adv-x="288" />
<glyph unicode="&#x205f;" horiz-adv-x="360" />
<glyph unicode="&#x25fc;" horiz-adv-x="604" d="M0 0v604h604v-604h-604z" />
</font>
</defs>
</svg>
